<svg height="804" viewBox="0 0 1132 804" xmlns:xlink="http://www.w3.org/1999/xlink" width="1132" xmlns="http://www.w3.org/2000/svg" xmlns:ev="http://www.w3.org/2001/xml-events"><defs/><g id="page1" transform="translate(5.5,5.5)"><rect fill="none" x="0" height="794" width="1123" y="0"/><g id="group1" transform="translate(44.259843,42.850394)"><path fill-rule="nonzero" id="shape2" fill="#628cff" d="M517.0,.0C516.8,.0,516.8,.0,516.5,.0C516.5,.0,516.5,.0,516.3,.0C516.0,.0,515.8,.0,515.8,.0C230.7,.5,.0,158.8,.0,354.0C.0,549.2,230.7,707.5,515.8,708.0C516.0,708.0,516.3,708.0,516.3,708.0C516.3,708.0,516.5,708.0,516.5,708.0C516.8,708.0,516.8,708.0,517.0,708.0C802.6,708.0,1034.0,549.6,1034.0,354.0C1034.0,158.4,802.6,.0,517.0,.0L517.0,.0zM537.6,211.9C592.6,210.9,645.8,205.9,697.2,197.4C712.6,239.1,722.3,287.3,723.8,340.0L537.6,340.0L537.6,211.9L537.6,211.9zM537.6,183.5L537.6,30.6C593.3,41.2,650.0,92.1,685.8,170.2C638.0,178.0,588.6,182.4,537.6,183.5L537.6,183.5zM496.4,30.3L496.4,183.6C444.9,182.6,395.0,178.0,347.0,170.0C383.3,91.4,440.2,40.2,496.4,30.3L496.4,30.3zM496.4,211.9L496.4,339.9L309.0,339.9C310.4,287.1,320.1,239.0,335.6,197.3C387.3,205.8,441.2,210.9,496.4,211.9L496.4,211.9zM267.2,339.9L42.0,339.9C46.5,267.0,86.2,200.3,149.6,147.6C195.6,164.9,244.6,179.2,295.8,189.8C278.9,234.9,268.9,285.8,267.2,339.9L267.2,339.9zM267.2,368.1C268.7,422.1,278.6,473.1,295.5,518.2C244.3,529.0,195.6,543.1,149.4,560.4C86.0,507.7,46.5,441.0,41.8,368.1L267.2,368.1L267.2,368.1zM309.0,368.1L496.4,368.1L496.4,495.9C441.2,497.0,387.3,502.1,335.6,510.7C320.1,469.1,310.4,420.9,309.0,368.1L309.0,368.1zM496.4,524.4L496.4,677.9C440.2,667.8,383.3,616.8,347.0,538.1C395.0,530.0,444.9,525.4,496.4,524.4L496.4,524.4zM537.6,677.4L537.6,524.2C588.6,525.2,638.0,529.8,686.0,537.6C650.0,615.9,593.6,666.8,537.6,677.4L537.6,677.4zM537.6,495.9L537.6,368.1L723.8,368.1C722.3,420.7,712.6,468.9,697.2,510.6C645.8,502.1,592.6,497.0,537.6,495.9L537.6,495.9zM765.3,368.1L992.0,368.1C987.5,441.0,947.8,507.5,884.4,560.4C837.9,542.9,788.7,528.6,737.0,517.9C753.9,472.8,763.8,422.1,765.3,368.1L765.3,368.1zM765.3,339.9C763.8,285.9,753.9,235.0,737.2,189.9C788.9,179.2,838.1,164.9,884.4,147.6C947.8,200.3,987.5,267.0,992.0,340.0L765.3,340.0L765.3,339.9zM856.0,125.8C814.8,140.7,771.5,153.2,726.0,162.5C701.9,109.3,667.9,65.9,627.9,37.3C715.8,51.7,794.4,83.1,856.0,125.8L856.0,125.8zM404.7,37.6C364.6,66.0,330.8,109.4,307.0,162.4C262.0,153.0,219.0,140.7,178.2,125.8C239.1,83.2,317.2,52.1,404.7,37.6L404.7,37.6zM178.0,582.1C218.7,567.1,262.0,554.8,306.7,545.5C330.8,598.6,364.6,641.8,404.7,670.4C317.2,655.9,239.1,624.8,178.0,582.1L178.0,582.1zM627.9,670.7C668.1,642.1,701.9,598.7,726.3,545.3C771.8,554.7,815.0,567.1,856.3,582.1C794.6,624.9,715.8,656.3,627.9,670.7L627.9,670.7z" stroke-width="1" stroke="#628cff"/><g id="group3" transform="translate(579.733251,129.687924)"><path fill-rule="nonzero" id="shape4" fill="#7ba9e1" d="M.0,224.3C.0,100.4,101.7,.0,227.1,.0C352.6,.0,454.3,100.4,454.3,224.3C454.3,348.2,352.6,448.6,227.1,448.6C101.7,448.6,.0,348.2,.0,224.3z" stroke-width="1" fill-opacity="0.65" stroke="#7ba9e1"/><g id="group5" transform="translate(79.338369,79.315629)"><path fill-rule="nonzero" id="shape6" fill="#ffffff" d="M33.6,.0L239.3,.0L205.7,24.2L.0,24.2L33.6,.0z" transform="translate(0.000000,105.300159)"/><path fill-rule="nonzero" id="shape7" fill="#ffffff" d="M33.6,.0L239.3,.0L205.7,24.2L.0,24.2L33.6,.0z" transform="translate(0.732176,153.583753)"/><path fill-rule="nonzero" id="shape8" fill="#ffffff" d="M253.9,42.6C216.7,-1.4,149.4,.4,149.4,.4C149.4,.4,110.8,-5.8,56.1,31.9C1.5,69.6,.0,145.5,.0,145.5C.0,145.5,-0.8,201.6,42.4,246.1C85.5,290.7,149.1,291.9,149.1,291.9C149.1,291.9,210.8,294.5,252.6,248.3C252.6,248.3,223.4,217.5,223.4,217.5C223.4,217.5,192.9,247.3,149.1,247.5C105.2,247.8,74.9,217.0,74.9,217.0C74.9,217.0,44.4,191.2,45.1,145.5C45.8,99.8,74.3,74.5,74.3,74.5C74.3,74.5,99.4,43.3,149.1,43.5C198.8,43.7,222.3,74.5,223.4,73.4C224.5,72.3,253.9,42.6,253.9,42.6z" transform="translate(41.672280,0.000000)"/></g></g><g id="group9" transform="translate(0.000000,129.687924)"><path fill-rule="nonzero" id="shape10" fill="#e16e6a" d="M461.2,224.3C461.2,348.2,357.9,448.6,230.6,448.6C103.2,448.6,.0,348.2,.0,224.3C.0,100.4,103.2,.0,230.6,.0C357.9,.0,461.2,100.4,461.2,224.3z" stroke-width="1" fill-opacity="0.65" stroke="#e16e6a"/><path fill-rule="nonzero" id="shape11" fill="#ffffff" d="M89.0,.0L119.8,.0L119.8,38.0C143.3,40.9,162.1,50.0,175.8,61.2C199.0,80.1,199.0,113.1,199.0,113.1L159.0,113.1C160.4,113.1,151.3,76.3,115.2,71.6C79.1,66.9,48.2,77.7,46.3,100.4C44.4,123.0,65.6,135.3,122.9,145.7C180.2,156.0,213.9,183.4,208.1,224.9C202.3,266.5,170.1,283.5,134.9,289.1C129.8,289.9,124.8,290.6,119.8,291.1L119.8,328.0L89.0,328.0L89.0,291.4C70.1,289.8,51.4,284.5,32.3,274.0C-1.9,255.1,.0,211.3,.0,211.3L39.1,211.3C39.1,211.3,36.2,254.7,90.1,257.5C144.1,260.3,162.4,244.3,166.7,228.7C171.0,213.1,158.8,194.0,139.5,187.0C120.2,179.9,65.6,173.0,39.1,160.3C12.6,147.6,3.9,125.8,4.4,104.1C4.9,82.4,15.0,54.1,65.1,41.8C73.4,39.8,81.4,38.5,89.0,37.7L89.0,.0z" stroke-width="0.3333329856395721" stroke="#ffffff" transform="translate(126.212609,56.301882)"/></g><path fill-rule="nonzero" id="shape12" fill="#3641d9" d="M714.0,.0L565.2,.0L357.0,284.5L148.7,.0L.0,.0L208.9,267.6L119.0,267.6L119.0,329.4L255.8,329.4L282.6,369.3L282.6,391.1L119.0,391.1L119.0,452.9L282.6,452.9L282.6,576.4L431.4,576.4L431.4,452.9L595.0,452.9L595.0,391.1L431.4,391.1L431.4,369.3L459.1,329.4L595.0,329.4L595.0,267.6L505.2,267.6L714.0,.0L714.0,.0zM565.2,288.2L565.2,308.8L440.7,308.8L401.6,364.1L401.6,411.7L565.2,411.7L565.2,432.3L401.6,432.3L401.6,555.8L312.4,555.8L312.4,432.3L148.7,432.3L148.7,411.7L312.4,411.7L312.4,365.7L275.2,308.8L148.7,308.8L148.7,288.2L258.8,288.2L235.1,257.8L49.9,20.6L130.2,20.6L357.0,329.4L583.8,20.6L663.8,20.6L664.1,20.6L479.0,257.8L455.3,288.2L565.2,288.2L565.2,288.2z" stroke-width="1" stroke="#3641d9" transform="translate(160.005587,77.476148)"/></g></g></svg>