<svg xmlns:ev="http://www.w3.org/2001/xml-events" width="1132" height="804" xmlns="http://www.w3.org/2000/svg" viewBox="0 0 1132 804" xmlns:xlink="http://www.w3.org/1999/xlink"><defs/><g id="page2" transform="translate(5.5,5.5)"><rect width="1123" fill="none" height="794" x="0" y="0"/><g id="group1" transform="translate(45.143373,46.674366)"><g id="shape2" transform="translate(516.116470,40.000000)"><path fill="none" stroke="#44bdad" d="M.0,.0C-25.2,5.5,-50.5,10.9,-122.3,13.0C-194.0,15.1,-312.3,13.7,-377.3,17.0C-434.8,19.9,-450.4,26.4,-461.2,47.3" stroke-width="2.666666746139526"/><path fill="#44bdad" stroke-linecap="round" stroke="#44bdad" d="M-456.7,49.1L-465.2,56.0L-465.6,45.1L-456.7,49.1" stroke-width="1"/></g><g id="shape3" transform="translate(516.116470,40.000000)"><path fill="none" stroke="#44bdad" d="M.0,.0C16.5,5.9,33.0,11.8,109.7,13.0C186.5,14.2,323.5,10.6,392.7,17.0C448.4,22.1,460.4,33.7,463.8,46.5" stroke-width="2.666666746139526"/><path fill="#44bdad" stroke-linecap="round" stroke="#44bdad" d="M468.6,45.6L465.2,56.0L458.9,47.1L468.6,45.6" stroke-width="1"/></g><g id="shape4" transform="translate(516.116470,40.000000)"><path fill="none" stroke="#44bdad" d="M.0,.0C-24.1,6.0,-48.1,12.1,-93.3,17.0C-138.4,21.9,-204.6,25.7,-244.3,32.0C-277.2,37.2,-291.8,44.2,-303.4,51.5" stroke-width="2.666666746139526"/><path fill="#44bdad" stroke-linecap="round" stroke="#44bdad" d="M-299.3,54.7L-310.1,56.0L-304.7,46.5L-299.3,54.7" stroke-width="1"/></g><g id="shape5" transform="translate(516.116470,40.000000)"><path fill="none" stroke="#44bdad" d="M.0,.0C12.3,6.0,24.5,12.1,71.7,17.0C119.0,21.9,201.2,25.7,246.7,32.0C281.9,36.9,295.2,43.2,303.6,49.9" stroke-width="2.666666746139526"/><path fill="#44bdad" stroke-linecap="round" stroke="#44bdad" d="M306.3,45.8L310.1,56.0L299.6,53.0L306.3,45.8" stroke-width="1"/></g><g id="shape6" transform="translate(516.116470,40.000000)"><path fill="none" stroke="#44bdad" d="M.0,.0C-11.1,8.2,-22.3,16.4,-41.3,22.0C-60.2,27.6,-87.0,30.8,-107.3,36.0C-123.5,40.2,-135.6,45.8,-146.9,51.7" stroke-width="2.666666746139526"/><path fill="#44bdad" stroke-linecap="round" stroke="#44bdad" d="M-144.1,55.7L-155.1,56.0L-148.7,47.1L-144.1,55.7" stroke-width="1"/></g><g id="shape7" transform="translate(516.116470,40.000000)"><path fill="none" stroke="#44bdad" d="M.0,.0C10.9,8.4,21.7,16.9,43.6,23.1C65.5,29.2,98.4,33.1,118.8,38.8C134.2,43.2,142.4,48.5,150.2,52.3" stroke-width="2.666666746139526"/><path fill="#44bdad" stroke-linecap="round" stroke="#44bdad" d="M150.6,47.2L157.8,55.4L146.9,56.3L150.6,47.2" stroke-width="1"/></g><g id="shape8" transform="translate(516.116470,40.000000)"><path fill="none" stroke="#44bdad" d="M.0,.0C.0,3.1,.0,6.2,.0,14.0C.0,21.8,.0,34.2,.0,42.0C.0,44.0,.0,45.7,.0,47.2" stroke-width="2.666666746139526"/><path fill="#44bdad" stroke-linecap="round" stroke="#44bdad" d="M4.9,46.2L.0,56.0L-4.9,46.2L4.9,46.2" stroke-width="1"/></g><g id="group9" transform="translate(-0.000000,-0.000000)"><g id="group10" transform="translate(45.477377,0.000000)"><g id="shape11" transform="translate(293.004181,0.000000)"><path fill="#dadada" stroke="#101843" fill-rule="nonzero" d="M355.3,33.0L355.3,7.0C355.3,3.1,352.1,.0,348.3,.0L7.0,.0C3.1,.0,.0,3.1,.0,7.0L.0,33.0C.0,36.9,3.1,40.0,7.0,40.0L348.3,40.0C352.1,40.0,355.3,36.9,355.3,33.0z" stroke-width="1"/><text xml:space="preserve" style="fill:#fe9d17;font-family:Arial,PingFang SC,Mircrosoft YaHei,Arial;font-size:15.00pt;font-style:italic"><tspan x="4.6" y="27.5" style="font-family:Arial,PingFang SC,Mircrosoft YaHei,Arial">Human Resource management system</tspan></text></g><g id="shape12" transform="translate(0.000000,0.000000)"><path fill="#b3ad9d" stroke="#101843" fill-rule="nonzero" d="M224.8,33.0L224.8,7.0C224.8,3.1,221.6,.0,217.8,.0L7.0,.0C3.1,.0,.0,3.1,.0,7.0L.0,33.0C.0,36.9,3.1,40.0,7.0,40.0L217.8,40.0C221.6,40.0,224.8,36.9,224.8,33.0z" stroke-width="1"/><text xml:space="preserve" style="fill:#467dfe;font-family:Arial,PingFang SC,Mircrosoft YaHei,Arial;font-size:15.00pt;font-style:italic"><tspan x="11.4" y="27.5" style="font-family:Arial,PingFang SC,Mircrosoft YaHei,Arial">Product manufacturers</tspan></text></g><g id="shape13" transform="translate(716.519185,0.000000)"><path fill="#90d6ab" stroke="#101843" fill-rule="nonzero" d="M224.8,33.0L224.8,7.0C224.8,3.1,221.6,.0,217.8,.0L7.0,.0C3.1,.0,.0,3.1,.0,7.0L.0,33.0C.0,36.9,3.1,40.0,7.0,40.0L217.8,40.0C221.6,40.0,224.8,36.9,224.8,33.0z" stroke-width="1"/><text xml:space="preserve" style="fill:#467dfe;font-family:Arial,PingFang SC,Mircrosoft YaHei,Arial;font-size:15.00pt;font-style:italic"><tspan x="54.4" y="27.5" style="font-family:Arial,PingFang SC,Mircrosoft YaHei,Arial">Job analytics</tspan></text></g><g id="shape14" transform="translate(293.004181,20.000000)"><path fill="none" stroke="#191919" d="M.0,.0L-61.6,.0" stroke-width="1"/><path fill="#191919" stroke-linecap="round" stroke="#191919" d="M-61.6,3.0L-67.6,.0L-61.6,-3.0L-61.6,3.0" stroke-width="1"/></g><g id="shape15" transform="translate(648.274004,20.000000)"><path fill="none" stroke="#191919" d="M.0,.0L62.2,.0" stroke-width="1"/><path fill="#191919" stroke-linecap="round" stroke="#191919" d="M62.2,-3.0L68.2,.0L62.2,3.0L62.2,-3.0" stroke-width="1"/></g><g id="shape16" transform="translate(716.519185,20.000000)"><path fill="none" stroke="#191919" d="M.0,.0L-62.2,.0" stroke-width="1"/><path fill="#191919" stroke-linecap="round" stroke="#191919" d="M-62.2,3.0L-68.2,.0L-62.2,-3.0L-62.2,3.0" stroke-width="1"/></g><g id="shape17" transform="translate(224.758557,20.000000)"><path fill="none" stroke="#191919" d="M.0,.0L61.6,.0" stroke-width="1"/><path fill="#191919" stroke-linecap="round" stroke="#191919" d="M61.6,-3.0L67.6,.0L61.6,3.0L61.6,-3.0" stroke-width="1"/></g></g><g id="group18" transform="translate(0.000000,89.500000)"><g id="shape19" transform="translate(0.000000,6.500000)"><path fill="#628cff" stroke="#101843" fill-rule="nonzero" d="M101.8,53.2L101.8,7.0C101.8,3.1,98.7,.0,94.8,.0L7.0,.0C3.1,.0,.0,3.1,.0,7.0L.0,53.2C.0,57.1,3.1,60.2,7.0,60.2L94.8,60.2C98.7,60.2,101.8,57.1,101.8,53.2z" stroke-width="1"/><text xml:space="preserve" style="fill:#191919;font-family:Arial,PingFang SC,Mircrosoft YaHei,Arial;font-size:12.00pt"><tspan x="9.4" y="36.6" style="font-family:Arial,PingFang SC,Mircrosoft YaHei,Arial">Recruitment</tspan></text></g><g id="shape20" transform="translate(155.072302,6.500000)"><path fill="#628cff" stroke="#101843" fill-rule="nonzero" d="M101.8,53.2L101.8,7.0C101.8,3.1,98.7,.0,94.8,.0L7.0,.0C3.1,.0,.0,3.1,.0,7.0L.0,53.2C.0,57.1,3.1,60.2,7.0,60.2L94.8,60.2C98.7,60.2,101.8,57.1,101.8,53.2z" stroke-width="1"/><text xml:space="preserve" style="fill:#191919;font-family:Arial,PingFang SC,Mircrosoft YaHei,Arial;font-size:12.00pt"><tspan x="5.4" y="27.1" style="font-family:Arial,PingFang SC,Mircrosoft YaHei,Arial">Learning and </tspan><tspan x="6.4" y="46.1" style="font-family:Arial,PingFang SC,Mircrosoft YaHei,Arial">development</tspan></text></g><g id="shape21" transform="translate(310.144604,6.500000)"><path fill="#628cff" stroke="#101843" fill-rule="nonzero" d="M101.8,53.2L101.8,7.0C101.8,3.1,98.7,.0,94.8,.0L7.0,.0C3.1,.0,.0,3.1,.0,7.0L.0,53.2C.0,57.1,3.1,60.2,7.0,60.2L94.8,60.2C98.7,60.2,101.8,57.1,101.8,53.2z" stroke-width="1"/><text xml:space="preserve" style="fill:#191919;font-family:Arial,PingFang SC,Mircrosoft YaHei,Arial;font-size:12.00pt"><tspan x="5.9" y="27.1" style="font-family:Arial,PingFang SC,Mircrosoft YaHei,Arial">Performance </tspan><tspan x="5.4" y="46.1" style="font-family:Arial,PingFang SC,Mircrosoft YaHei,Arial">management</tspan></text></g><g id="shape22" transform="translate(775.361510,6.500000)"><path fill="#628cff" stroke="#101843" fill-rule="nonzero" d="M101.8,53.2L101.8,7.0C101.8,3.1,98.7,.0,94.8,.0L7.0,.0C3.1,.0,.0,3.1,.0,7.0L.0,53.2C.0,57.1,3.1,60.2,7.0,60.2L94.8,60.2C98.7,60.2,101.8,57.1,101.8,53.2z" stroke-width="1"/><text xml:space="preserve" style="fill:#191919;font-family:Arial,PingFang SC,Mircrosoft YaHei,Arial;font-size:12.00pt"><tspan x="14.9" y="27.5" style="font-family:Arial,PingFang SC,Mircrosoft YaHei,Arial">Evaluating </tspan><tspan x="11.9" y="46.5" style="font-family:Arial,PingFang SC,Mircrosoft YaHei,Arial">and reward</tspan></text></g><g id="shape23" transform="translate(623.057500,5.852055)"><path fill="#628cff" stroke="#101843" fill-rule="nonzero" d="M101.8,52.6L101.8,7.0C101.8,3.1,98.7,.0,94.8,.0L7.0,.0C3.1,.0,.0,3.1,.0,7.0L.0,52.6C.0,56.5,3.1,59.6,7.0,59.6L94.8,59.6C98.7,59.6,101.8,56.5,101.8,52.6z" stroke-width="1"/><text xml:space="preserve" style="fill:#191919;font-family:Arial,PingFang SC,Mircrosoft YaHei,Arial;font-size:12.00pt"><tspan x="8.4" y="17.5" style="font-family:Arial,PingFang SC,Mircrosoft YaHei,Arial">Compensati</tspan><tspan x="27.4" y="36.5" style="font-family:Arial,PingFang SC,Mircrosoft YaHei,Arial">on and </tspan><tspan x="23.4" y="55.5" style="font-family:Arial,PingFang SC,Mircrosoft YaHei,Arial">benefits</tspan></text></g><g id="shape24" transform="translate(930.433812,6.500000)"><path fill="#628cff" stroke="#101843" fill-rule="nonzero" d="M101.8,53.2L101.8,7.0C101.8,3.1,98.7,.0,94.8,.0L7.0,.0C3.1,.0,.0,3.1,.0,7.0L.0,53.2C.0,57.1,3.1,60.2,7.0,60.2L94.8,60.2C98.7,60.2,101.8,57.1,101.8,53.2z" stroke-width="1"/><text xml:space="preserve" style="fill:#191919;font-family:Arial,PingFang SC,Mircrosoft YaHei,Arial;font-size:12.00pt"><tspan x="6.9" y="27.1" style="font-family:Arial,PingFang SC,Mircrosoft YaHei,Arial">Strategy and </tspan><tspan x="14.4" y="46.1" style="font-family:Arial,PingFang SC,Mircrosoft YaHei,Arial">leadership</tspan></text></g><g id="shape25" transform="translate(465.216906,6.500000)"><path fill="#628cff" stroke="#101843" fill-rule="nonzero" d="M101.8,53.2L101.8,7.0C101.8,3.1,98.7,.0,94.8,.0L7.0,.0C3.1,.0,.0,3.1,.0,7.0L.0,53.2C.0,57.1,3.1,60.2,7.0,60.2L94.8,60.2C98.7,60.2,101.8,57.1,101.8,53.2z" stroke-width="1"/><text xml:space="preserve" style="fill:#191919;font-family:Arial,PingFang SC,Mircrosoft YaHei,Arial;font-size:12.00pt"><tspan x="20.9" y="27.1" style="font-family:Arial,PingFang SC,Mircrosoft YaHei,Arial">HR Data </tspan><tspan x="20.9" y="46.1" style="font-family:Arial,PingFang SC,Mircrosoft YaHei,Arial">analytics</tspan></text></g></g></g><g id="shape26" transform="translate(151.558142,650.852055)"><path fill="#e7e7e7" stroke="#101843" fill-rule="nonzero" d="M729.1,42.5L729.1,7.0C729.1,3.1,726.0,.0,722.1,.0L7.0,.0C3.1,.0,.0,3.1,.0,7.0L.0,42.5C.0,46.4,3.1,49.5,7.0,49.5L722.1,49.5C726.0,49.5,729.1,46.4,729.1,42.5z" stroke-width="1"/><text xml:space="preserve" style="fill:#191919;font-family:Arial,PingFang SC,Mircrosoft YaHei,Arial;font-size:13.00pt"><tspan x="95.1" y="20.8" style="font-family:Arial,PingFang SC,Mircrosoft YaHei,Arial">This is a structured program that covered everything I needed in this area.</tspan><tspan x="725.1" y="40.8" style="font-family:Arial,PingFang SC,Mircrosoft YaHei,Arial">این یک برنامه ساختاریافته است که هر آنچه را که در این زمینه نیاز داشتم را پوشش دادیم</tspan></text></g><g id="group27" transform="translate(-0.000000,126.102055)"><g id="shape28" transform="translate(0.000000,59.250000)"><path fill="#90d6ab" stroke="#101843" fill-rule="nonzero" d="M110.9,63.0L110.9,7.0C110.9,3.1,107.7,.0,103.9,.0L7.0,.0C3.1,.0,.0,3.1,.0,7.0L.0,63.0C.0,66.9,3.1,70.0,7.0,70.0L103.9,70.0C107.7,70.0,110.9,66.9,110.9,63.0z" stroke-width="1"/><text xml:space="preserve" style="fill:#191919;font-family:Arial,PingFang SC,Mircrosoft YaHei,Arial;font-size:10.00pt"><tspan x="25.9" y="32.0" style="font-family:Arial,PingFang SC,Mircrosoft YaHei,Arial">Create job </tspan><tspan x="30.9" y="48.0" style="font-family:Arial,PingFang SC,Mircrosoft YaHei,Arial">postings</tspan></text></g><g id="shape29" transform="translate(0.000000,150.545891)"><path fill="#90d6ab" stroke="#101843" fill-rule="nonzero" d="M110.9,73.0L110.9,7.0C110.9,3.1,107.7,.0,103.9,.0L7.0,.0C3.1,.0,.0,3.1,.0,7.0L.0,73.0C.0,76.9,3.1,80.0,7.0,80.0L103.9,80.0C107.7,80.0,110.9,76.9,110.9,73.0z" stroke-width="1"/><text xml:space="preserve" style="fill:#191919;font-family:Arial,PingFang SC,Mircrosoft YaHei,Arial;font-size:10.00pt"><tspan x="34.9" y="21.0" style="font-family:Arial,PingFang SC,Mircrosoft YaHei,Arial">Source </tspan><tspan x="23.9" y="37.0" style="font-family:Arial,PingFang SC,Mircrosoft YaHei,Arial">candidates </tspan><tspan x="11.9" y="53.0" style="font-family:Arial,PingFang SC,Mircrosoft YaHei,Arial">through various </tspan><tspan x="29.4" y="69.0" style="font-family:Arial,PingFang SC,Mircrosoft YaHei,Arial">channels</tspan></text></g><g id="shape30" transform="translate(0.000000,251.841781)"><path fill="#90d6ab" stroke="#101843" fill-rule="nonzero" d="M110.9,63.0L110.9,7.0C110.9,3.1,107.7,.0,103.9,.0L7.0,.0C3.1,.0,.0,3.1,.0,7.0L.0,63.0C.0,66.9,3.1,70.0,7.0,70.0L103.9,70.0C107.7,70.0,110.9,66.9,110.9,63.0z" stroke-width="1"/><text xml:space="preserve" style="fill:#191919;font-family:Arial,PingFang SC,Mircrosoft YaHei,Arial;font-size:10.00pt"><tspan x="7.9" y="40.0" style="font-family:Arial,PingFang SC,Mircrosoft YaHei,Arial">Screen resumes</tspan></text></g><g id="shape31" transform="translate(0.000000,348.137672)"><path fill="#90d6ab" stroke="#101843" fill-rule="nonzero" d="M110.9,63.0L110.9,7.0C110.9,3.1,107.7,.0,103.9,.0L7.0,.0C3.1,.0,.0,3.1,.0,7.0L.0,63.0C.0,66.9,3.1,70.0,7.0,70.0L103.9,70.0C107.7,70.0,110.9,66.9,110.9,63.0z" stroke-width="1"/><text xml:space="preserve" style="fill:#191919;font-family:Arial,PingFang SC,Mircrosoft YaHei,Arial;font-size:10.00pt"><tspan x="31.4" y="32.0" style="font-family:Arial,PingFang SC,Mircrosoft YaHei,Arial">Conduct </tspan><tspan x="27.4" y="48.0" style="font-family:Arial,PingFang SC,Mircrosoft YaHei,Arial">interviews</tspan></text></g><g id="shape32" transform="translate(0.000000,444.433562)"><path fill="#90d6ab" stroke="#101843" fill-rule="nonzero" d="M110.9,63.0L110.9,7.0C110.9,3.1,107.7,.0,103.9,.0L7.0,.0C3.1,.0,.0,3.1,.0,7.0L.0,63.0C.0,66.9,3.1,70.0,7.0,70.0L103.9,70.0C107.7,70.0,110.9,66.9,110.9,63.0z" stroke-width="1"/><text xml:space="preserve" style="fill:#191919;font-family:Arial,PingFang SC,Mircrosoft YaHei,Arial;font-size:10.00pt"><tspan x="33.4" y="32.0" style="font-family:Arial,PingFang SC,Mircrosoft YaHei,Arial">Assess </tspan><tspan x="10.4" y="48.0" style="font-family:Arial,PingFang SC,Mircrosoft YaHei,Arial">candidate skills</tspan></text></g><g id="shape33" transform="translate(149.428127,59.249781)"><path fill="#50ad76" stroke="#101843" fill-rule="nonzero" d="M110.9,63.0L110.9,7.0C110.9,3.1,107.7,.0,103.9,.0L7.0,.0C3.1,.0,.0,3.1,.0,7.0L.0,63.0C.0,66.9,3.1,70.0,7.0,70.0L103.9,70.0C107.7,70.0,110.9,66.9,110.9,63.0z" stroke-width="1"/><text xml:space="preserve" style="fill:#191919;font-family:Arial,PingFang SC,Mircrosoft YaHei,Arial;font-size:10.00pt"><tspan x="36.9" y="32.0" style="font-family:Arial,PingFang SC,Mircrosoft YaHei,Arial">Needs </tspan><tspan x="18.9" y="48.0" style="font-family:Arial,PingFang SC,Mircrosoft YaHei,Arial">Assessment</tspan></text></g><g id="shape34" transform="translate(149.427927,155.545781)"><path fill="#50ad76" stroke="#101843" fill-rule="nonzero" d="M110.9,63.0L110.9,7.0C110.9,3.1,107.7,.0,103.9,.0L7.0,.0C3.1,.0,.0,3.1,.0,7.0L.0,63.0C.0,66.9,3.1,70.0,7.0,70.0L103.9,70.0C107.7,70.0,110.9,66.9,110.9,63.0z" stroke-width="1"/><text xml:space="preserve" style="fill:#191919;font-family:Arial,PingFang SC,Mircrosoft YaHei,Arial;font-size:10.00pt"><tspan x="8.9" y="24.0" style="font-family:Arial,PingFang SC,Mircrosoft YaHei,Arial">Foster a Culture </tspan><tspan x="11.4" y="40.0" style="font-family:Arial,PingFang SC,Mircrosoft YaHei,Arial">of Learning and </tspan><tspan x="18.4" y="56.0" style="font-family:Arial,PingFang SC,Mircrosoft YaHei,Arial">Development</tspan></text></g><g id="shape35" transform="translate(149.427927,251.841781)"><path fill="#50ad76" stroke="#101843" fill-rule="nonzero" d="M110.9,63.0L110.9,7.0C110.9,3.1,107.7,.0,103.9,.0L7.0,.0C3.1,.0,.0,3.1,.0,7.0L.0,63.0C.0,66.9,3.1,70.0,7.0,70.0L103.9,70.0C107.7,70.0,110.9,66.9,110.9,63.0z" stroke-width="1"/><text xml:space="preserve" style="fill:#191919;font-family:Arial,PingFang SC,Mircrosoft YaHei,Arial;font-size:10.00pt"><tspan x="22.9" y="32.0" style="font-family:Arial,PingFang SC,Mircrosoft YaHei,Arial">Design and </tspan><tspan x="18.4" y="48.0" style="font-family:Arial,PingFang SC,Mircrosoft YaHei,Arial">Development</tspan></text></g><g id="shape36" transform="translate(149.428127,348.137781)"><path fill="#50ad76" stroke="#101843" fill-rule="nonzero" d="M110.9,63.0L110.9,7.0C110.9,3.1,107.7,.0,103.9,.0L7.0,.0C3.1,.0,.0,3.1,.0,7.0L.0,63.0C.0,66.9,3.1,70.0,7.0,70.0L103.9,70.0C107.7,70.0,110.9,66.9,110.9,63.0z" stroke-width="1"/><text xml:space="preserve" style="fill:#191919;font-family:Arial,PingFang SC,Mircrosoft YaHei,Arial;font-size:10.00pt"><tspan x="4.4" y="32.0" style="font-family:Arial,PingFang SC,Mircrosoft YaHei,Arial">Overcome Market </tspan><tspan x="20.9" y="48.0" style="font-family:Arial,PingFang SC,Mircrosoft YaHei,Arial">Competition</tspan></text></g><g id="shape37" transform="translate(149.427927,444.433781)"><path fill="#50ad76" stroke="#101843" fill-rule="nonzero" d="M110.9,63.0L110.9,7.0C110.9,3.1,107.7,.0,103.9,.0L7.0,.0C3.1,.0,.0,3.1,.0,7.0L.0,63.0C.0,66.9,3.1,70.0,7.0,70.0L103.9,70.0C107.7,70.0,110.9,66.9,110.9,63.0z" stroke-width="1"/><text xml:space="preserve" style="fill:#191919;font-family:Arial,PingFang SC,Mircrosoft YaHei,Arial;font-size:10.00pt"><tspan x="32.9" y="40.0" style="font-family:Arial,PingFang SC,Mircrosoft YaHei,Arial">Delivery</tspan></text></g><g id="shape38" transform="translate(298.856427,59.249562)"><path fill="#d2e18f" stroke="#101843" fill-rule="nonzero" d="M110.9,63.0L110.9,7.0C110.9,3.1,107.7,.0,103.9,.0L7.0,.0C3.1,.0,.0,3.1,.0,7.0L.0,63.0C.0,66.9,3.1,70.0,7.0,70.0L103.9,70.0C107.7,70.0,110.9,66.9,110.9,63.0z" stroke-width="1"/><text xml:space="preserve" style="fill:#191919;font-family:Arial,PingFang SC,Mircrosoft YaHei,Arial;font-size:10.00pt"><tspan x="7.9" y="32.0" style="font-family:Arial,PingFang SC,Mircrosoft YaHei,Arial">Providing regular </tspan><tspan x="29.4" y="48.0" style="font-family:Arial,PingFang SC,Mircrosoft YaHei,Arial">feedback</tspan></text></g><g id="shape39" transform="translate(298.856427,155.545562)"><path fill="#d2e18f" stroke="#101843" fill-rule="nonzero" d="M110.9,63.0L110.9,7.0C110.9,3.1,107.7,.0,103.9,.0L7.0,.0C3.1,.0,.0,3.1,.0,7.0L.0,63.0C.0,66.9,3.1,70.0,7.0,70.0L103.9,70.0C107.7,70.0,110.9,66.9,110.9,63.0z" stroke-width="1"/><text xml:space="preserve" style="fill:#191919;font-family:Arial,PingFang SC,Mircrosoft YaHei,Arial;font-size:10.00pt"><tspan x="24.9" y="24.0" style="font-family:Arial,PingFang SC,Mircrosoft YaHei,Arial">Assessing </tspan><tspan x="27.4" y="40.0" style="font-family:Arial,PingFang SC,Mircrosoft YaHei,Arial">employee </tspan><tspan x="19.9" y="56.0" style="font-family:Arial,PingFang SC,Mircrosoft YaHei,Arial">performance</tspan></text></g><g id="shape40" transform="translate(298.856627,246.841562)"><path fill="#d2e18f" stroke="#101843" fill-rule="nonzero" d="M110.9,73.0L110.9,7.0C110.9,3.1,107.7,.0,103.9,.0L7.0,.0C3.1,.0,.0,3.1,.0,7.0L.0,73.0C.0,76.9,3.1,80.0,7.0,80.0L103.9,80.0C107.7,80.0,110.9,76.9,110.9,73.0z" stroke-width="1"/><text xml:space="preserve" style="fill:#191919;font-family:Arial,PingFang SC,Mircrosoft YaHei,Arial;font-size:10.00pt"><tspan x="31.4" y="21.0" style="font-family:Arial,PingFang SC,Mircrosoft YaHei,Arial">Ongoing </tspan><tspan x="11.4" y="37.0" style="font-family:Arial,PingFang SC,Mircrosoft YaHei,Arial">communication </tspan><tspan x="31.4" y="53.0" style="font-family:Arial,PingFang SC,Mircrosoft YaHei,Arial">between </tspan><tspan x="26.9" y="69.0" style="font-family:Arial,PingFang SC,Mircrosoft YaHei,Arial">managers</tspan></text></g><g id="shape41" transform="translate(298.856427,348.137562)"><path fill="#d2e18f" stroke="#101843" fill-rule="nonzero" d="M110.9,63.0L110.9,7.0C110.9,3.1,107.7,.0,103.9,.0L7.0,.0C3.1,.0,.0,3.1,.0,7.0L.0,63.0C.0,66.9,3.1,70.0,7.0,70.0L103.9,70.0C107.7,70.0,110.9,66.9,110.9,63.0z" stroke-width="1"/><text xml:space="preserve" style="fill:#191919;font-family:Arial,PingFang SC,Mircrosoft YaHei,Arial;font-size:10.00pt"><tspan x="22.9" y="32.0" style="font-family:Arial,PingFang SC,Mircrosoft YaHei,Arial">Addressing </tspan><tspan x="28.4" y="48.0" style="font-family:Arial,PingFang SC,Mircrosoft YaHei,Arial">strengths</tspan></text></g><g id="shape42" transform="translate(298.856427,444.433562)"><path fill="#d2e18f" stroke="#101843" fill-rule="nonzero" d="M110.9,63.0L110.9,7.0C110.9,3.1,107.7,.0,103.9,.0L7.0,.0C3.1,.0,.0,3.1,.0,7.0L.0,63.0C.0,66.9,3.1,70.0,7.0,70.0L103.9,70.0C107.7,70.0,110.9,66.9,110.9,63.0z" stroke-width="1"/><text xml:space="preserve" style="fill:#191919;font-family:Arial,PingFang SC,Mircrosoft YaHei,Arial;font-size:10.00pt"><tspan x="18.9" y="32.0" style="font-family:Arial,PingFang SC,Mircrosoft YaHei,Arial">Performance </tspan><tspan x="4.4" y="48.0" style="font-family:Arial,PingFang SC,Mircrosoft YaHei,Arial">reviews, coaching</tspan></text></g><g id="shape43" transform="translate(460.687970,54.249562)"><path fill="#dca2ff" stroke="#101843" fill-rule="nonzero" d="M110.9,73.0L110.9,7.0C110.9,3.1,107.7,.0,103.9,.0L7.0,.0C3.1,.0,.0,3.1,.0,7.0L.0,73.0C.0,76.9,3.1,80.0,7.0,80.0L103.9,80.0C107.7,80.0,110.9,76.9,110.9,73.0z" stroke-width="1"/><text xml:space="preserve" style="fill:#191919;font-family:Arial,PingFang SC,Mircrosoft YaHei,Arial;font-size:10.00pt"><tspan x="24.9" y="21.0" style="font-family:Arial,PingFang SC,Mircrosoft YaHei,Arial">Collecting, </tspan><tspan x="25.9" y="37.0" style="font-family:Arial,PingFang SC,Mircrosoft YaHei,Arial">analyzing, </tspan><tspan x="10.4" y="53.0" style="font-family:Arial,PingFang SC,Mircrosoft YaHei,Arial">interpreting HR-</tspan><tspan x="21.4" y="69.0" style="font-family:Arial,PingFang SC,Mircrosoft YaHei,Arial">related data</tspan></text></g><g id="shape44" transform="translate(460.687970,155.545562)"><path fill="#dca2ff" stroke="#101843" fill-rule="nonzero" d="M110.9,63.0L110.9,7.0C110.9,3.1,107.7,.0,103.9,.0L7.0,.0C3.1,.0,.0,3.1,.0,7.0L.0,63.0C.0,66.9,3.1,70.0,7.0,70.0L103.9,70.0C107.7,70.0,110.9,66.9,110.9,63.0z" stroke-width="1"/><text xml:space="preserve" style="fill:#191919;font-family:Arial,PingFang SC,Mircrosoft YaHei,Arial;font-size:10.00pt"><tspan x="8.9" y="24.0" style="font-family:Arial,PingFang SC,Mircrosoft YaHei,Arial">Gaining insights </tspan><tspan x="15.4" y="40.0" style="font-family:Arial,PingFang SC,Mircrosoft YaHei,Arial">into workforce </tspan><tspan x="37.4" y="56.0" style="font-family:Arial,PingFang SC,Mircrosoft YaHei,Arial">trends</tspan></text></g><g id="shape45" transform="translate(460.687970,251.841562)"><path fill="#dca2ff" stroke="#101843" fill-rule="nonzero" d="M110.9,63.0L110.9,7.0C110.9,3.1,107.7,.0,103.9,.0L7.0,.0C3.1,.0,.0,3.1,.0,7.0L.0,63.0C.0,66.9,3.1,70.0,7.0,70.0L103.9,70.0C107.7,70.0,110.9,66.9,110.9,63.0z" stroke-width="1"/><text xml:space="preserve" style="fill:#191919;font-family:Arial,PingFang SC,Mircrosoft YaHei,Arial;font-size:10.00pt"><tspan x="29.4" y="24.0" style="font-family:Arial,PingFang SC,Mircrosoft YaHei,Arial">Informing </tspan><tspan x="30.4" y="40.0" style="font-family:Arial,PingFang SC,Mircrosoft YaHei,Arial">strategic </tspan><tspan x="8.4" y="56.0" style="font-family:Arial,PingFang SC,Mircrosoft YaHei,Arial">decision-making</tspan></text></g><g id="shape46" transform="translate(460.687970,343.137562)"><path fill="#dca2ff" stroke="#101843" fill-rule="nonzero" d="M110.9,73.0L110.9,7.0C110.9,3.1,107.7,.0,103.9,.0L7.0,.0C3.1,.0,.0,3.1,.0,7.0L.0,73.0C.0,76.9,3.1,80.0,7.0,80.0L103.9,80.0C107.7,80.0,110.9,76.9,110.9,73.0z" stroke-width="1"/><text xml:space="preserve" style="fill:#191919;font-family:Arial,PingFang SC,Mircrosoft YaHei,Arial;font-size:10.00pt"><tspan x="32.4" y="21.0" style="font-family:Arial,PingFang SC,Mircrosoft YaHei,Arial">Utilizing </tspan><tspan x="27.4" y="37.0" style="font-family:Arial,PingFang SC,Mircrosoft YaHei,Arial">statistical </tspan><tspan x="28.4" y="53.0" style="font-family:Arial,PingFang SC,Mircrosoft YaHei,Arial">methods, </tspan><tspan x="31.4" y="69.0" style="font-family:Arial,PingFang SC,Mircrosoft YaHei,Arial">software</tspan></text></g><g id="shape47" transform="translate(460.687970,444.433562)"><path fill="#dca2ff" stroke="#101843" fill-rule="nonzero" d="M110.9,63.0L110.9,7.0C110.9,3.1,107.7,.0,103.9,.0L7.0,.0C3.1,.0,.0,3.1,.0,7.0L.0,63.0C.0,66.9,3.1,70.0,7.0,70.0L103.9,70.0C107.7,70.0,110.9,66.9,110.9,63.0z" stroke-width="1"/><text xml:space="preserve" style="fill:#191919;font-family:Arial,PingFang SC,Mircrosoft YaHei,Arial;font-size:10.00pt"><tspan x="13.4" y="24.0" style="font-family:Arial,PingFang SC,Mircrosoft YaHei,Arial">Areas such as </tspan><tspan x="20.9" y="40.0" style="font-family:Arial,PingFang SC,Mircrosoft YaHei,Arial">recruitment, </tspan><tspan x="30.4" y="56.0" style="font-family:Arial,PingFang SC,Mircrosoft YaHei,Arial">retention</tspan></text></g><g id="shape48" transform="translate(613.999427,59.250000)"><path fill="#88b0f5" stroke="#101843" fill-rule="nonzero" d="M110.9,63.0L110.9,7.0C110.9,3.1,107.7,.0,103.9,.0L7.0,.0C3.1,.0,.0,3.1,.0,7.0L.0,63.0C.0,66.9,3.1,70.0,7.0,70.0L103.9,70.0C107.7,70.0,110.9,66.9,110.9,63.0z" stroke-width="1"/><text xml:space="preserve" style="fill:#191919;font-family:Arial,PingFang SC,Mircrosoft YaHei,Arial;font-size:10.00pt"><tspan x="14.9" y="32.0" style="font-family:Arial,PingFang SC,Mircrosoft YaHei,Arial">Attracting and </tspan><tspan x="12.9" y="48.0" style="font-family:Arial,PingFang SC,Mircrosoft YaHei,Arial">retaining talent</tspan></text></g><g id="shape49" transform="translate(613.999427,155.546000)"><path fill="#88b0f5" stroke="#101843" fill-rule="nonzero" d="M110.9,63.0L110.9,7.0C110.9,3.1,107.7,.0,103.9,.0L7.0,.0C3.1,.0,.0,3.1,.0,7.0L.0,63.0C.0,66.9,3.1,70.0,7.0,70.0L103.9,70.0C107.7,70.0,110.9,66.9,110.9,63.0z" stroke-width="1"/><text xml:space="preserve" style="fill:#191919;font-family:Arial,PingFang SC,Mircrosoft YaHei,Arial;font-size:10.00pt"><tspan x="13.9" y="24.0" style="font-family:Arial,PingFang SC,Mircrosoft YaHei,Arial">Motivating and </tspan><tspan x="29.4" y="40.0" style="font-family:Arial,PingFang SC,Mircrosoft YaHei,Arial">engaging </tspan><tspan x="23.9" y="56.0" style="font-family:Arial,PingFang SC,Mircrosoft YaHei,Arial">employees</tspan></text></g><g id="shape50" transform="translate(613.999427,251.842000)"><path fill="#88b0f5" stroke="#101843" fill-rule="nonzero" d="M110.9,63.0L110.9,7.0C110.9,3.1,107.7,.0,103.9,.0L7.0,.0C3.1,.0,.0,3.1,.0,7.0L.0,63.0C.0,66.9,3.1,70.0,7.0,70.0L103.9,70.0C107.7,70.0,110.9,66.9,110.9,63.0z" stroke-width="1"/><text xml:space="preserve" style="fill:#191919;font-family:Arial,PingFang SC,Mircrosoft YaHei,Arial;font-size:10.00pt"><tspan x="15.9" y="32.0" style="font-family:Arial,PingFang SC,Mircrosoft YaHei,Arial">Enhanced job </tspan><tspan x="22.4" y="48.0" style="font-family:Arial,PingFang SC,Mircrosoft YaHei,Arial">satisfaction</tspan></text></g><g id="shape51" transform="translate(613.999427,348.138000)"><path fill="#88b0f5" stroke="#101843" fill-rule="nonzero" d="M110.9,63.0L110.9,7.0C110.9,3.1,107.7,.0,103.9,.0L7.0,.0C3.1,.0,.0,3.1,.0,7.0L.0,63.0C.0,66.9,3.1,70.0,7.0,70.0L103.9,70.0C107.7,70.0,110.9,66.9,110.9,63.0z" stroke-width="1"/><text xml:space="preserve" style="fill:#191919;font-family:Arial,PingFang SC,Mircrosoft YaHei,Arial;font-size:10.00pt"><tspan x="6.4" y="32.0" style="font-family:Arial,PingFang SC,Mircrosoft YaHei,Arial">Promoting equity </tspan><tspan x="20.4" y="48.0" style="font-family:Arial,PingFang SC,Mircrosoft YaHei,Arial">and fairness</tspan></text></g><g id="shape52" transform="translate(613.999427,444.434000)"><path fill="#88b0f5" stroke="#101843" fill-rule="nonzero" d="M110.9,63.0L110.9,7.0C110.9,3.1,107.7,.0,103.9,.0L7.0,.0C3.1,.0,.0,3.1,.0,7.0L.0,63.0C.0,66.9,3.1,70.0,7.0,70.0L103.9,70.0C107.7,70.0,110.9,66.9,110.9,63.0z" stroke-width="1"/><text xml:space="preserve" style="fill:#191919;font-family:Arial,PingFang SC,Mircrosoft YaHei,Arial;font-size:10.00pt"><tspan x="7.9" y="24.0" style="font-family:Arial,PingFang SC,Mircrosoft YaHei,Arial">Compliance with </tspan><tspan x="41.9" y="40.0" style="font-family:Arial,PingFang SC,Mircrosoft YaHei,Arial">legal </tspan><tspan x="17.9" y="56.0" style="font-family:Arial,PingFang SC,Mircrosoft YaHei,Arial">requirements</tspan></text></g><g id="shape53" transform="translate(767.687583,59.249562)"><path fill="#66e3ff" stroke="#101843" fill-rule="nonzero" d="M110.9,63.0L110.9,7.0C110.9,3.1,107.7,.0,103.9,.0L7.0,.0C3.1,.0,.0,3.1,.0,7.0L.0,63.0C.0,66.9,3.1,70.0,7.0,70.0L103.9,70.0C107.7,70.0,110.9,66.9,110.9,63.0z" stroke-width="1"/><text xml:space="preserve" style="fill:#191919;font-family:Arial,PingFang SC,Mircrosoft YaHei,Arial;font-size:10.00pt"><tspan x="20.9" y="40.0" style="font-family:Arial,PingFang SC,Mircrosoft YaHei,Arial">Base salary</tspan></text></g><g id="shape54" transform="translate(767.687583,155.545562)"><path fill="#66e3ff" stroke="#101843" fill-rule="nonzero" d="M110.9,63.0L110.9,7.0C110.9,3.1,107.7,.0,103.9,.0L7.0,.0C3.1,.0,.0,3.1,.0,7.0L.0,63.0C.0,66.9,3.1,70.0,7.0,70.0L103.9,70.0C107.7,70.0,110.9,66.9,110.9,63.0z" stroke-width="1"/><text xml:space="preserve" style="fill:#191919;font-family:Arial,PingFang SC,Mircrosoft YaHei,Arial;font-size:10.00pt"><tspan x="36.9" y="40.0" style="font-family:Arial,PingFang SC,Mircrosoft YaHei,Arial">Bonus</tspan></text></g><g id="shape55" transform="translate(767.687583,251.841562)"><path fill="#66e3ff" stroke="#101843" fill-rule="nonzero" d="M110.9,63.0L110.9,7.0C110.9,3.1,107.7,.0,103.9,.0L7.0,.0C3.1,.0,.0,3.1,.0,7.0L.0,63.0C.0,66.9,3.1,70.0,7.0,70.0L103.9,70.0C107.7,70.0,110.9,66.9,110.9,63.0z" stroke-width="1"/><text xml:space="preserve" style="fill:#191919;font-family:Arial,PingFang SC,Mircrosoft YaHei,Arial;font-size:10.00pt"><tspan x="17.4" y="40.0" style="font-family:Arial,PingFang SC,Mircrosoft YaHei,Arial">Profit-sharing</tspan></text></g><g id="shape56" transform="translate(767.687583,348.137562)"><path fill="#66e3ff" stroke="#101843" fill-rule="nonzero" d="M110.9,63.0L110.9,7.0C110.9,3.1,107.7,.0,103.9,.0L7.0,.0C3.1,.0,.0,3.1,.0,7.0L.0,63.0C.0,66.9,3.1,70.0,7.0,70.0L103.9,70.0C107.7,70.0,110.9,66.9,110.9,63.0z" stroke-width="1"/><text xml:space="preserve" style="fill:#191919;font-family:Arial,PingFang SC,Mircrosoft YaHei,Arial;font-size:10.00pt"><tspan x="13.4" y="32.0" style="font-family:Arial,PingFang SC,Mircrosoft YaHei,Arial">Stock options/</tspan><tspan x="36.9" y="48.0" style="font-family:Arial,PingFang SC,Mircrosoft YaHei,Arial">Equity</tspan></text></g><g id="shape57" transform="translate(767.687583,444.433562)"><path fill="#66e3ff" stroke="#101843" fill-rule="nonzero" d="M110.9,63.0L110.9,7.0C110.9,3.1,107.7,.0,103.9,.0L7.0,.0C3.1,.0,.0,3.1,.0,7.0L.0,63.0C.0,66.9,3.1,70.0,7.0,70.0L103.9,70.0C107.7,70.0,110.9,66.9,110.9,63.0z" stroke-width="1"/><text xml:space="preserve" style="fill:#191919;font-family:Arial,PingFang SC,Mircrosoft YaHei,Arial;font-size:10.00pt"><tspan x="14.9" y="24.0" style="font-family:Arial,PingFang SC,Mircrosoft YaHei,Arial">Job evaluation </tspan><tspan x="25.4" y="40.0" style="font-family:Arial,PingFang SC,Mircrosoft YaHei,Arial">and salary </tspan><tspan x="29.9" y="56.0" style="font-family:Arial,PingFang SC,Mircrosoft YaHei,Arial">structure</tspan></text></g><g id="shape58" transform="translate(921.375739,59.249562)"><path fill="#f4996b" stroke="#101843" fill-rule="nonzero" d="M110.9,63.0L110.9,7.0C110.9,3.1,107.7,.0,103.9,.0L7.0,.0C3.1,.0,.0,3.1,.0,7.0L.0,63.0C.0,66.9,3.1,70.0,7.0,70.0L103.9,70.0C107.7,70.0,110.9,66.9,110.9,63.0z" stroke-width="1"/><text xml:space="preserve" style="fill:#191919;font-family:Arial,PingFang SC,Mircrosoft YaHei,Arial;font-size:10.00pt"><tspan x="26.4" y="32.0" style="font-family:Arial,PingFang SC,Mircrosoft YaHei,Arial">Employee </tspan><tspan x="30.9" y="48.0" style="font-family:Arial,PingFang SC,Mircrosoft YaHei,Arial">relations</tspan></text></g><g id="shape59" transform="translate(921.375739,155.545562)"><path fill="#f4996b" stroke="#101843" fill-rule="nonzero" d="M110.9,63.0L110.9,7.0C110.9,3.1,107.7,.0,103.9,.0L7.0,.0C3.1,.0,.0,3.1,.0,7.0L.0,63.0C.0,66.9,3.1,70.0,7.0,70.0L103.9,70.0C107.7,70.0,110.9,66.9,110.9,63.0z" stroke-width="1"/><text xml:space="preserve" style="fill:#191919;font-family:Arial,PingFang SC,Mircrosoft YaHei,Arial;font-size:10.00pt"><tspan x="24.4" y="32.0" style="font-family:Arial,PingFang SC,Mircrosoft YaHei,Arial">Health and </tspan><tspan x="36.9" y="48.0" style="font-family:Arial,PingFang SC,Mircrosoft YaHei,Arial">Safety</tspan></text></g><g id="shape60" transform="translate(921.375739,251.841562)"><path fill="#f4996b" stroke="#101843" fill-rule="nonzero" d="M110.9,63.0L110.9,7.0C110.9,3.1,107.7,.0,103.9,.0L7.0,.0C3.1,.0,.0,3.1,.0,7.0L.0,63.0C.0,66.9,3.1,70.0,7.0,70.0L103.9,70.0C107.7,70.0,110.9,66.9,110.9,63.0z" stroke-width="1"/><text xml:space="preserve" style="fill:#191919;font-family:Arial,PingFang SC,Mircrosoft YaHei,Arial;font-size:10.00pt"><tspan x="9.9" y="40.0" style="font-family:Arial,PingFang SC,Mircrosoft YaHei,Arial">Ethically Sound</tspan></text></g><g id="shape61" transform="translate(921.375739,348.137562)"><path fill="#f4996b" stroke="#101843" fill-rule="nonzero" d="M110.9,63.0L110.9,7.0C110.9,3.1,107.7,.0,103.9,.0L7.0,.0C3.1,.0,.0,3.1,.0,7.0L.0,63.0C.0,66.9,3.1,70.0,7.0,70.0L103.9,70.0C107.7,70.0,110.9,66.9,110.9,63.0z" stroke-width="1"/><text xml:space="preserve" style="fill:#191919;font-family:Arial,PingFang SC,Mircrosoft YaHei,Arial;font-size:10.00pt"><tspan x="13.9" y="32.0" style="font-family:Arial,PingFang SC,Mircrosoft YaHei,Arial">Ability to Lead </tspan><tspan x="5.4" y="48.0" style="font-family:Arial,PingFang SC,Mircrosoft YaHei,Arial">When Necessary</tspan></text></g><g id="shape62" transform="translate(921.375739,444.433562)"><path fill="#f4996b" stroke="#101843" fill-rule="nonzero" d="M110.9,63.0L110.9,7.0C110.9,3.1,107.7,.0,103.9,.0L7.0,.0C3.1,.0,.0,3.1,.0,7.0L.0,63.0C.0,66.9,3.1,70.0,7.0,70.0L103.9,70.0C107.7,70.0,110.9,66.9,110.9,63.0z" stroke-width="1"/><text xml:space="preserve" style="fill:#191919;font-family:Arial,PingFang SC,Mircrosoft YaHei,Arial;font-size:10.00pt"><tspan x="8.9" y="32.0" style="font-family:Arial,PingFang SC,Mircrosoft YaHei,Arial">A Good Listener </tspan><tspan x="18.4" y="48.0" style="font-family:Arial,PingFang SC,Mircrosoft YaHei,Arial">and curiosity</tspan></text></g><g id="shape63" transform="translate(49.899564,30.102055)"><path fill="none" stroke="#467dfe" d="M.0,.0L4.5,.0L4.5,20.7" stroke-width="2"/><path fill="#467dfe" stroke-linecap="round" stroke="#467dfe" d="M8.8,20.7L4.5,29.1L.3,20.7L8.8,20.7" stroke-width="1"/></g><g id="shape64" transform="translate(55.428314,129.250000)"><path fill="none" stroke="#467dfe" d="M.0,.0L.0,12.8" stroke-width="2"/><path fill="#467dfe" stroke-linecap="round" stroke="#467dfe" d="M4.2,12.8L.0,21.3L-4.2,12.8L4.2,12.8" stroke-width="1"/></g><g id="shape65" transform="translate(55.428314,230.545891)"><path fill="none" stroke="#467dfe" d="M.0,.0L.0,12.8" stroke-width="2"/><path fill="#467dfe" stroke-linecap="round" stroke="#467dfe" d="M4.2,12.8L.0,21.3L-4.2,12.8L4.2,12.8" stroke-width="1"/></g><g id="shape66" transform="translate(55.428314,321.841781)"><path fill="none" stroke="#467dfe" d="M.0,.0L.0,17.8" stroke-width="2"/><path fill="#467dfe" stroke-linecap="round" stroke="#467dfe" d="M4.2,17.8L.0,26.3L-4.2,17.8L4.2,17.8" stroke-width="1"/></g><g id="shape67" transform="translate(55.428314,418.137672)"><path fill="none" stroke="#467dfe" d="M.0,.0L.0,17.8" stroke-width="2"/><path fill="#467dfe" stroke-linecap="round" stroke="#467dfe" d="M4.2,17.8L.0,26.3L-4.2,17.8L4.2,17.8" stroke-width="1"/></g><g id="shape68" transform="translate(354.284927,129.249562)"><path fill="none" stroke="#467dfe" d="M.0,.0L.0,17.8" stroke-width="2"/><path fill="#467dfe" stroke-linecap="round" stroke="#467dfe" d="M4.2,17.8L.0,26.3L-4.2,17.8L4.2,17.8" stroke-width="1"/></g><g id="shape69" transform="translate(354.284927,225.545562)"><path fill="none" stroke="#467dfe" d="M.0,.0L.0,12.8" stroke-width="2"/><path fill="#467dfe" stroke-linecap="round" stroke="#467dfe" d="M4.2,12.8L.0,21.3L-4.2,12.8L4.2,12.8" stroke-width="1"/></g><g id="shape70" transform="translate(354.285127,326.841562)"><path fill="none" stroke="#191919" d="M.0,.0L-0.0,15.3" stroke-width="1"/><path fill="#191919" stroke-linecap="round" stroke="#191919" d="M3.0,15.3L-0.0,21.3L-3.0,15.3L3.0,15.3" stroke-width="1"/></g><g id="shape71" transform="translate(354.284927,418.137562)"><path fill="none" stroke="#467dfe" d="M.0,.0L.0,17.8" stroke-width="2"/><path fill="#467dfe" stroke-linecap="round" stroke="#467dfe" d="M4.2,17.8L.0,26.3L-4.2,17.8L4.2,17.8" stroke-width="1"/></g><g id="shape72" transform="translate(674.957063,28.897945)"><path fill="none" stroke="#467dfe" d="M.0,.0L-4.5,.0L-4.5,21.9" stroke-width="2"/><path fill="#467dfe" stroke-linecap="round" stroke="#467dfe" d="M-0.3,21.9L-4.5,30.4L-8.8,21.9L-0.3,21.9" stroke-width="1"/></g><g id="shape73" transform="translate(669.427927,129.250000)"><path fill="none" stroke="#467dfe" d="M.0,.0L.0,17.8" stroke-width="2"/><path fill="#467dfe" stroke-linecap="round" stroke="#467dfe" d="M4.2,17.8L.0,26.3L-4.2,17.8L4.2,17.8" stroke-width="1"/></g><g id="shape74" transform="translate(669.427927,225.546000)"><path fill="none" stroke="#467dfe" d="M.0,.0L.0,17.8" stroke-width="2"/><path fill="#467dfe" stroke-linecap="round" stroke="#467dfe" d="M4.2,17.8L.0,26.3L-4.2,17.8L4.2,17.8" stroke-width="1"/></g><g id="shape75" transform="translate(669.427927,321.842000)"><path fill="none" stroke="#467dfe" d="M.0,.0L.0,17.8" stroke-width="2"/><path fill="#467dfe" stroke-linecap="round" stroke="#467dfe" d="M4.2,17.8L.0,26.3L-4.2,17.8L4.2,17.8" stroke-width="1"/></g><g id="shape76" transform="translate(669.427927,418.138000)"><path fill="none" stroke="#467dfe" d="M.0,.0L.0,17.8" stroke-width="2"/><path fill="#467dfe" stroke-linecap="round" stroke="#467dfe" d="M4.2,17.8L.0,26.3L-4.2,17.8L4.2,17.8" stroke-width="1"/></g><g id="shape77" transform="translate(877.160637,0.000000)"><path fill="none" stroke="#467dfe" d="M.0,.0L44.1,.0" stroke-width="2"/><path fill="#467dfe" stroke-linecap="round" stroke="#467dfe" d="M44.1,-4.2L52.6,.0L44.1,4.2L44.1,-4.2" stroke-width="1"/></g><g id="shape78" transform="translate(982.333376,30.102055)"><path fill="none" stroke="#467dfe" d="M.0,.0L-4.5,.0L-4.5,20.7" stroke-width="2"/><path fill="#467dfe" stroke-linecap="round" stroke="#467dfe" d="M-0.3,20.7L-4.5,29.1L-8.8,20.7L-0.3,20.7" stroke-width="1"/></g><g id="shape79" transform="translate(976.804239,129.249562)"><path fill="none" stroke="#467dfe" d="M.0,.0L.0,17.8" stroke-width="2"/><path fill="#467dfe" stroke-linecap="round" stroke="#467dfe" d="M4.2,17.8L.0,26.3L-4.2,17.8L4.2,17.8" stroke-width="1"/></g><g id="shape80" transform="translate(976.804239,225.545562)"><path fill="none" stroke="#467dfe" d="M.0,.0L.0,17.8" stroke-width="2"/><path fill="#467dfe" stroke-linecap="round" stroke="#467dfe" d="M4.2,17.8L.0,26.3L-4.2,17.8L4.2,17.8" stroke-width="1"/></g><g id="shape81" transform="translate(976.804239,321.841562)"><path fill="none" stroke="#467dfe" d="M.0,.0L.0,17.8" stroke-width="2"/><path fill="#467dfe" stroke-linecap="round" stroke="#467dfe" d="M4.2,17.8L.0,26.3L-4.2,17.8L4.2,17.8" stroke-width="1"/></g><g id="shape82" transform="translate(976.804239,418.137562)"><path fill="none" stroke="#467dfe" d="M.0,.0L.0,17.8" stroke-width="2"/><path fill="#467dfe" stroke-linecap="round" stroke="#467dfe" d="M4.2,17.8L.0,26.3L-4.2,17.8L4.2,17.8" stroke-width="1"/></g><g id="shape83" transform="translate(354.284927,321.841562)"><path fill="none" stroke="#467dfe" d="M.0,.0L.0,17.8" stroke-width="2"/><path fill="#467dfe" stroke-linecap="round" stroke="#467dfe" d="M4.2,17.8L.0,26.3L-4.2,17.8L4.2,17.8" stroke-width="1"/></g><g id="shape84" transform="translate(204.971866,30.454109)"><path fill="none" stroke="#467dfe" d="M.0,.0L1.1,.0L1.1,20.0" stroke-width="2"/><path fill="#467dfe" stroke-linecap="round" stroke="#467dfe" d="M5.4,20.0L1.1,28.4L-3.1,20.0L5.4,20.0" stroke-width="1"/></g><g id="shape85" transform="translate(204.856627,129.249781)"><path fill="none" stroke="#467dfe" d="M.0,.0L-0.0,17.8" stroke-width="2"/><path fill="#467dfe" stroke-linecap="round" stroke="#467dfe" d="M4.2,17.8L-0.0,26.3L-4.2,17.8L4.2,17.8" stroke-width="1"/></g><g id="shape86" transform="translate(204.856427,225.545781)"><path fill="none" stroke="#467dfe" d="M.0,.0L.0,17.8" stroke-width="2"/><path fill="#467dfe" stroke-linecap="round" stroke="#467dfe" d="M4.2,17.8L.0,26.3L-4.2,17.8L4.2,17.8" stroke-width="1"/></g><g id="shape87" transform="translate(204.856427,321.841781)"><path fill="none" stroke="#467dfe" d="M.0,.0L.0,17.8" stroke-width="2"/><path fill="#467dfe" stroke-linecap="round" stroke="#467dfe" d="M4.2,17.8L.0,26.3L-4.2,17.8L4.2,17.8" stroke-width="1"/></g><g id="shape88" transform="translate(204.856627,418.137781)"><path fill="none" stroke="#467dfe" d="M.0,.0L-0.0,17.8" stroke-width="2"/><path fill="#467dfe" stroke-linecap="round" stroke="#467dfe" d="M4.2,17.8L-0.0,26.3L-4.2,17.8L4.2,17.8" stroke-width="1"/></g><g id="shape89" transform="translate(516.116470,30.102055)"><path fill="none" stroke="#467dfe" d="M.0,.0L.0,15.7" stroke-width="2"/><path fill="#467dfe" stroke-linecap="round" stroke="#467dfe" d="M4.2,15.7L.0,24.1L-4.2,15.7L4.2,15.7" stroke-width="1"/></g><g id="shape90" transform="translate(516.116470,134.249562)"><path fill="none" stroke="#467dfe" d="M.0,.0L.0,12.8" stroke-width="2"/><path fill="#467dfe" stroke-linecap="round" stroke="#467dfe" d="M4.2,12.8L.0,21.3L-4.2,12.8L4.2,12.8" stroke-width="1"/></g><g id="shape91" transform="translate(516.116470,225.545562)"><path fill="none" stroke="#467dfe" d="M.0,.0L.0,17.8" stroke-width="2"/><path fill="#467dfe" stroke-linecap="round" stroke="#467dfe" d="M4.2,17.8L.0,26.3L-4.2,17.8L4.2,17.8" stroke-width="1"/></g><g id="shape92" transform="translate(516.116470,321.841562)"><path fill="none" stroke="#467dfe" d="M.0,.0L.0,12.8" stroke-width="2"/><path fill="#467dfe" stroke-linecap="round" stroke="#467dfe" d="M4.2,12.8L.0,21.3L-4.2,12.8L4.2,12.8" stroke-width="1"/></g><g id="shape93" transform="translate(516.116470,423.137562)"><path fill="none" stroke="#467dfe" d="M.0,.0L.0,12.8" stroke-width="2"/><path fill="#467dfe" stroke-linecap="round" stroke="#467dfe" d="M4.2,12.8L.0,21.3L-4.2,12.8L4.2,12.8" stroke-width="1"/></g><g id="shape94" transform="translate(823.116083,129.249562)"><path fill="none" stroke="#467dfe" d="M.0,.0L.0,17.8" stroke-width="2"/><path fill="#467dfe" stroke-linecap="round" stroke="#467dfe" d="M4.2,17.8L.0,26.3L-4.2,17.8L4.2,17.8" stroke-width="1"/></g><g id="shape95" transform="translate(823.116083,225.545562)"><path fill="none" stroke="#467dfe" d="M.0,.0L.0,17.8" stroke-width="2"/><path fill="#467dfe" stroke-linecap="round" stroke="#467dfe" d="M4.2,17.8L.0,26.3L-4.2,17.8L4.2,17.8" stroke-width="1"/></g><g id="shape96" transform="translate(823.116083,321.841562)"><path fill="none" stroke="#467dfe" d="M.0,.0L.0,17.8" stroke-width="2"/><path fill="#467dfe" stroke-linecap="round" stroke="#467dfe" d="M4.2,17.8L.0,26.3L-4.2,17.8L4.2,17.8" stroke-width="1"/></g><g id="shape97" transform="translate(823.116083,418.137562)"><path fill="none" stroke="#467dfe" d="M.0,.0L.0,17.8" stroke-width="2"/><path fill="#467dfe" stroke-linecap="round" stroke="#467dfe" d="M4.2,17.8L.0,26.3L-4.2,17.8L4.2,17.8" stroke-width="1"/></g></g><g id="shape98" transform="translate(362.044168,156.204109)"><path fill="none" stroke="#467dfe" d="M.0,.0L-6.8,.0L-6.8,20.7" stroke-width="2"/><path fill="#467dfe" stroke-linecap="round" stroke="#467dfe" d="M-2.5,20.7L-6.8,29.1L-11.0,20.7L-2.5,20.7" stroke-width="1"/></g><g id="shape99" transform="translate(827.261074,156.204109)"><path fill="none" stroke="#467dfe" d="M.0,.0L-3.1,.0L-3.1,20.7" stroke-width="2"/><path fill="#467dfe" stroke-linecap="round" stroke="#467dfe" d="M1.1,20.7L-3.1,29.1L-7.4,20.7L1.1,20.7" stroke-width="1"/></g></g></g></svg>