<svg height="804" xmlns:ev="http://www.w3.org/2001/xml-events" viewBox="0 0 1132 804" xmlns:xlink="http://www.w3.org/1999/xlink" width="1132" xmlns="http://www.w3.org/2000/svg"><defs/><g transform="translate(5.5,5.5)" id="page1"><rect height="794" y="0" x="0" width="1123" fill="none"/><g transform="translate(38.000000,38.000000)" id="group1"><g transform="translate(443.391320,100.908079)" id="group2"><path fill-rule="nonzero" fill="#e16e6a" d="M605.6,258.1C605.6,400.6,470.0,516.2,302.8,516.2C135.6,516.2,.0,400.6,.0,258.1C.0,115.6,135.6,.0,302.8,.0C470.0,.0,605.6,115.6,605.6,258.1z" stroke="#e16e6a" stroke-width="1" id="shape3"/><path transform="translate(165.739047,64.780556)" fill-rule="nonzero" fill="#ffffff" d="M116.8,.0L157.3,.0L157.3,43.7C188.2,47.1,212.9,57.5,230.9,70.4C261.3,92.1,261.3,130.1,261.3,130.1L208.8,130.1C210.7,130.1,198.7,87.8,151.2,82.3C103.8,76.9,63.3,89.4,60.8,115.5C58.3,141.5,86.1,155.7,161.4,167.6C236.6,179.5,280.9,211.0,273.3,258.8C265.7,306.6,223.3,326.2,177.2,332.7C170.5,333.6,163.9,334.4,157.3,334.9L157.3,377.4L116.8,377.4L116.8,335.3C92.0,333.4,67.4,327.4,42.5,315.3C-2.4,293.6,.0,243.1,.0,243.1L51.3,243.1C51.3,243.1,47.5,293.0,118.4,296.3C189.2,299.5,213.2,281.1,218.9,263.2C224.6,245.2,208.5,223.3,183.2,215.1C157.9,207.0,86.1,199.1,51.3,184.4C16.5,169.8,5.2,144.8,5.8,119.8C6.4,94.8,19.7,62.3,85.5,48.1C96.4,45.8,106.8,44.2,116.8,43.4L116.8,.0z" stroke="#ffffff" stroke-width="0.3333329856395721" id="shape4"/></g><g transform="translate(0.000000,100.908079)" id="group5"><path fill-rule="nonzero" fill="#7ba9e1" d="M.0,258.1C.0,115.6,135.6,.0,302.8,.0C470.0,.0,605.6,115.6,605.6,258.1C605.6,400.6,470.0,516.2,302.8,516.2C135.6,516.2,.0,400.6,.0,258.1z" stroke="#7ba9e1" stroke-width="1" id="shape6"/><g transform="translate(105.770464,91.260013)" id="group7"><path transform="translate(0.000000,121.157634)" fill-rule="nonzero" fill="#ffffff" d="M44.8,.0L319.0,.0L274.2,27.8L.0,27.8L44.8,.0z" id="shape8"/><path transform="translate(0.976106,176.712402)" fill-rule="nonzero" fill="#ffffff" d="M44.8,.0L319.0,.0L274.2,27.8L.0,27.8L44.8,.0z" id="shape9"/><path transform="translate(55.555672,0.000000)" fill-rule="nonzero" fill="#ffffff" d="M338.5,49.0C288.9,-1.6,199.2,.4,199.2,.4C199.2,.4,147.7,-6.7,74.8,36.7C2.0,80.0,.0,167.4,.0,167.4C.0,167.4,-1.0,231.9,56.5,283.2C114.0,334.4,198.7,335.9,198.7,335.9C198.7,335.9,281.0,338.9,336.7,285.7C336.7,285.7,297.8,250.3,297.8,250.3C297.8,250.3,257.2,284.6,198.7,284.8C140.2,285.1,99.9,249.6,99.9,249.6C99.9,249.6,59.3,220.0,60.1,167.4C61.0,114.8,99.1,85.7,99.1,85.7C99.1,85.7,132.5,49.8,198.7,50.1C265.0,50.3,296.4,85.7,297.8,84.5C299.3,83.2,338.5,49.0,338.5,49.0z" id="shape10"/></g></g><path transform="translate(129.773364,0.000000)" fill-rule="nonzero" fill="#129682" d="M800.3,.0L633.5,.0L400.1,354.4L166.7,.0L.0,.0L234.2,333.4L133.4,333.4L133.4,410.3L286.7,410.3L316.8,460.0L316.8,487.2L133.4,487.2L133.4,564.1L316.8,564.1L316.8,718.0L483.5,718.0L483.5,564.1L666.9,564.1L666.9,487.2L483.5,487.2L483.5,460.0L514.5,410.3L666.9,410.3L666.9,333.4L566.3,333.4L800.3,.0L800.3,.0zM633.5,359.0L633.5,384.6L493.9,384.6L450.2,453.6L450.2,512.9L633.5,512.9L633.5,538.5L450.2,538.5L450.2,692.4L350.1,692.4L350.1,538.5L166.7,538.5L166.7,512.9L350.1,512.9L350.1,455.6L308.4,384.6L166.7,384.6L166.7,359.0L290.1,359.0L263.5,321.2L55.9,25.6L145.9,25.6L400.1,410.3L654.4,25.6L744.0,25.6L744.4,25.6L536.9,321.2L510.4,359.0L633.5,359.0L633.5,359.0z" stroke="#129682" stroke-width="1" id="shape11"/></g></g></svg>