<svg height="804" viewBox="0 0 1132 804" xmlns:xlink="http://www.w3.org/1999/xlink" width="1132" xmlns="http://www.w3.org/2000/svg" xmlns:ev="http://www.w3.org/2001/xml-events"><defs/><g id="page7" transform="translate(5.5,5.5)"><rect fill="none" x="0" height="794" width="1123" y="0"/><g id="group1" transform="translate(56.759843,56.850385)"><path fill-rule="nonzero" id="shape2" fill="#4155c6" d="M.0,20.0C.0,9.0,8.5,.0,19.0,.0C29.5,.0,38.0,9.0,38.0,20.0C38.0,31.0,29.5,40.0,19.0,40.0C8.5,40.0,.0,31.0,.0,20.0zM36.5,20.3C36.5,10.1,28.7,1.8,19.0,1.8C9.8,1.8,2.2,9.3,1.5,18.8C1.9,17.6,2.6,16.5,3.4,15.5C5.1,13.6,7.3,12.7,9.9,12.7C12.4,12.7,14.3,13.5,15.7,15.1C16.4,15.9,17.6,17.9,19.5,20.9C20.8,23.2,22.2,24.7,23.6,25.6C25.0,26.5,26.5,26.9,28.1,26.9C30.3,26.9,32.3,26.1,34.1,24.6C35.2,23.7,36.0,22.6,36.5,21.5C36.5,21.1,36.5,20.7,36.5,20.3zM10.1,19.4C8.9,19.4,7.8,20.5,7.8,21.8C7.8,23.2,8.9,24.2,10.1,24.2C11.4,24.2,12.4,23.2,12.4,21.8C12.4,20.5,11.4,19.4,10.1,19.4zM28.2,15.4C26.9,15.4,25.9,16.4,25.9,17.7C25.9,19.1,26.9,20.1,28.2,20.1C29.4,20.1,30.5,19.1,30.5,17.7C30.5,16.4,29.4,15.4,28.2,15.4z" stroke-width="1" stroke="#4155c6" transform="translate(667.000000,340.000018)"/><path fill-rule="nonzero" id="shape3" fill="#4155c6" d="M5.9,29.7L5.9,11.3L10.4,11.3L10.4,29.7L13.2,29.7L17.6,29.7L20.4,29.7L20.4,11.3L24.8,11.3L24.8,29.7L27.6,29.7L27.6,11.3L32.1,11.3L32.1,29.7L35.3,29.7L35.3,31.8L2.7,31.8L2.7,29.7L5.9,29.7zM.0,7.9L2.7,7.9L2.7,9.9L35.3,9.9L35.3,7.9L38.0,7.9L19.0,.0L.0,7.9zM17.6,11.3L13.2,11.3L13.2,29.7L17.6,29.7L17.6,11.3zM.0,38.0L38.0,38.0L38.0,33.1L.0,33.1L.0,38.0z" stroke-width="1" stroke="#4155c6" transform="translate(704.000000,64.000018)"/><path fill-rule="nonzero" id="shape4" fill="#4155c6" d="M.0,9.8L26.0,.0L52.0,9.8L26.0,19.6L.0,9.8zM26.0,17.0L45.1,9.8L26.0,2.6L6.9,9.8L26.0,17.0zM25.7,34.0C25.8,34.0,25.9,34.0,26.0,34.0C26.1,34.0,26.2,34.0,26.3,34.0C32.4,33.9,37.7,32.1,41.3,29.5L41.3,16.4L38.6,17.4L38.6,27.3C35.7,29.5,31.2,30.9,26.0,31.0C20.8,30.9,16.3,29.5,13.4,27.3L13.4,17.4L10.7,16.4L10.7,29.5C14.3,32.1,19.6,33.9,25.7,34.0zM44.2,34.0L46.8,34.0L46.8,14.5L44.2,15.5L44.2,34.0z" stroke-width="1" stroke="#4155c6" transform="matrix(-1.000000,0.000000,0.000000,1.000000,1009.000000,635.000018)"/><path fill-rule="nonzero" id="shape5" fill="#4155c6" d="M.0,3.0L15.3,3.0C15.7,1.3,17.2,.0,19.0,.0C20.8,.0,22.3,1.3,22.7,3.0L38.0,3.0L38.0,4.8L30.6,4.8L37.9,17.9C38.0,17.9,38.0,18.0,38.0,18.0C38.0,22.3,34.6,25.8,30.4,25.8C26.2,25.8,22.8,22.3,22.8,18.0C22.8,18.0,22.8,17.9,22.8,17.9L30.2,4.8L22.7,4.8C22.4,6.3,21.3,7.4,19.9,7.7L19.9,30.0L30.4,30.0L30.4,32.0L7.6,32.0L7.6,30.0L18.1,30.0L18.1,7.7C16.7,7.4,15.6,6.3,15.3,4.8L7.8,4.8L15.1,17.9C15.2,17.9,15.2,18.0,15.2,18.0C15.2,22.3,11.8,25.8,7.6,25.8C3.4,25.8,.0,22.3,.0,18.0C.0,18.0,.0,17.9,.0,17.9L7.4,4.8L.0,4.8L.0,3.0zM13.2,17.9L7.6,7.8L2.0,17.9L13.2,17.9zM36.0,17.9L30.4,7.8L24.8,17.9L36.0,17.9zM2.2,19.9C3.0,22.2,5.1,23.8,7.6,23.8C10.1,23.8,12.2,22.2,13.0,19.9L2.2,19.9zM25.0,19.9C25.8,22.2,27.9,23.8,30.4,23.8C32.9,23.8,35.0,22.2,35.8,19.9L25.0,19.9zM19.0,5.9C20.0,5.9,20.9,5.0,20.9,3.9C20.9,2.8,20.0,2.0,19.0,2.0C18.0,2.0,17.1,2.8,17.1,3.9C17.1,5.0,18.0,5.9,19.0,5.9z" stroke-width="0.3333329856395721" stroke="#4155c6" transform="translate(747.000000,248.000018)"/><path fill-rule="nonzero" id="shape6" fill="#4155c6" d="M5.8,2.9L8.8,4.0C8.8,4.0,9.8,4.1,11.0,3.4C12.2,2.7,14.9,1.8,16.5,1.9L11.1,6.0C11.1,6.0,9.6,7.7,11.4,9.6C13.2,11.4,18.0,8.9,18.0,8.9L21.7,7.3C21.7,7.3,22.3,6.9,23.5,7.9L35.7,17.8C35.7,17.8,36.4,18.6,35.6,19.8C34.7,21.0,33.3,20.0,33.3,20.0L22.7,11.5C22.7,11.5,22.2,11.0,21.8,11.5C21.3,12.0,22.2,12.5,22.2,12.5L31.6,20.0C31.6,20.0,32.2,20.9,31.3,21.8C30.4,22.7,29.1,21.9,29.2,21.9C29.3,21.9,20.3,14.6,20.3,14.6C20.3,14.6,19.9,14.1,19.4,14.6C18.9,15.1,19.7,15.5,19.7,15.5L27.3,21.8C27.3,21.8,28.0,22.9,27.2,23.7C26.4,24.4,25.1,23.9,25.1,23.9L21.5,21.0C21.5,21.0,21.5,19.7,20.7,18.9C19.9,18.2,18.3,18.4,18.3,18.4C18.3,18.4,17.4,17.0,16.5,16.6C15.5,16.2,14.5,16.3,14.0,17.2C14.0,17.2,13.6,15.9,12.4,15.5C11.2,15.2,9.9,16.3,9.9,16.3C9.9,16.3,9.0,14.5,7.4,14.7C5.8,14.9,5.5,16.3,5.5,16.3C5.5,16.3,.1,13.2,.0,13.2C.0,13.2,5.8,3.0,5.8,2.9zM23.6,6.7L36.5,17.2L42.0,13.1L36.3,2.6L34.2,3.7C33.1,4.4,32.2,3.7,32.2,3.7C30.2,2.6,26.6,.8,26.6,.8C24.2,-0.8,22.2,.5,21.6,.7C17.1,2.9,15.1,4.4,15.1,4.4C12.5,6.1,11.7,7.3,11.7,7.3C10.8,10.0,14.9,9.2,14.9,9.2L22.2,6.1C22.6,6.0,23.6,6.7,23.6,6.7zM17.6,20.1L16.4,24.0C16.2,24.6,16.6,25.3,17.8,25.7C18.5,25.9,19.1,25.5,19.3,24.9L20.5,21.0C20.6,20.3,20.3,19.7,19.1,19.3C18.4,19.1,17.8,19.5,17.6,20.1zM14.1,18.1L12.9,21.9C12.7,22.6,13.1,23.2,14.3,23.6C15.0,23.8,15.6,23.5,15.8,22.8L16.9,19.0C17.1,18.3,16.8,17.6,15.5,17.3C14.9,17.1,14.3,17.4,14.1,18.1zM10.4,17.1L9.4,20.4C9.3,21.0,9.6,21.5,10.6,21.9C11.2,22.0,11.7,21.7,11.9,21.2L12.9,17.9C13.0,17.4,12.7,16.8,11.7,16.5C11.1,16.3,10.6,16.6,10.4,17.1zM6.5,16.4L6.0,18.0C5.8,18.5,6.1,19.2,7.1,19.6C7.7,19.8,8.3,19.5,8.5,18.9L9.0,17.4C9.2,16.8,8.9,16.1,7.9,15.8C7.4,15.5,6.7,15.8,6.5,16.4zM21.0,22.1L20.1,25.2L21.0,25.9C21.0,25.9,22.4,26.4,23.1,25.2C23.7,24.0,21.0,22.1,21.0,22.1z" transform="translate(908.000000,372.000018)"/><path fill-rule="nonzero" id="shape7" fill="#4155c6" d="M.0,20.0C.0,9.0,8.5,.0,19.0,.0C29.5,.0,38.0,9.0,38.0,20.0C38.0,31.0,29.5,40.0,19.0,40.0C8.5,40.0,.0,31.0,.0,20.0zM19.0,37.1C28.0,37.1,35.3,29.5,35.3,20.0C35.3,10.5,28.0,2.9,19.0,2.9C10.0,2.9,2.7,10.5,2.7,20.0C2.7,29.5,10.0,37.1,19.0,37.1zM26.0,17.3C27.5,17.3,28.8,15.9,28.8,14.3C28.8,12.6,27.5,11.3,26.0,11.3C24.4,11.3,23.1,12.6,23.1,14.3C23.1,15.9,24.4,17.3,26.0,17.3zM12.0,17.3C13.6,17.3,14.9,15.9,14.9,14.3C14.9,12.6,13.6,11.3,12.0,11.3C10.5,11.3,9.2,12.6,9.2,14.3C9.2,15.9,10.5,17.3,12.0,17.3zM19.1,31.4C23.6,31.3,27.4,28.0,28.6,23.6C28.6,23.6,28.7,22.6,27.8,22.5C26.9,22.4,26.5,23.6,26.5,23.6C25.4,26.9,22.5,29.3,19.0,29.4C15.5,29.3,12.6,26.9,11.5,23.6C11.5,23.6,11.1,22.4,10.2,22.5C9.3,22.6,9.4,23.6,9.4,23.6C10.6,28.0,14.4,31.3,18.9,31.4C18.9,31.4,18.9,31.4,18.9,31.4C18.9,31.4,19.0,31.4,19.0,31.4C19.0,31.4,19.1,31.4,19.1,31.4C19.1,31.4,19.1,31.4,19.1,31.4z" stroke-width="1" stroke="#4155c6" transform="translate(695.000000,465.000018)"/><g id="group8" transform="translate(393.000000,46.000018)"><path fill-rule="nonzero" id="shape9" fill="#e16e6a" d="M.0,28.0C.0,12.5,12.5,.0,28.0,.0C43.5,.0,56.0,12.5,56.0,28.0C56.0,43.5,43.5,56.0,28.0,56.0C12.5,56.0,.0,43.5,.0,28.0z" stroke-width="1" stroke="#e16e6a"/><path fill-rule="nonzero" id="shape10" fill="#ffffff" d="M18.6,.0L21.0,.0L21.0,2.5C22.2,4.0,24.7,5.1,27.6,5.1C30.3,5.1,32.7,4.2,33.9,2.8C34.1,2.6,34.9,3.1,35.1,3.5C33.9,5.2,31.0,6.4,27.5,6.4C24.9,6.4,22.5,5.7,21.0,4.7L21.0,28.1C23.7,28.4,25.9,29.8,27.3,31.8L12.4,31.8C13.7,29.8,16.0,28.4,18.6,28.1L18.6,4.7C17.1,5.7,14.8,6.4,12.2,6.4C8.7,6.4,5.7,5.2,4.6,3.5C4.7,3.4,5.5,2.6,5.8,2.8C7.0,4.2,9.3,5.1,12.1,5.1C15.0,5.1,17.5,4.0,18.6,2.5L18.6,.0zM15.7,16.1C14.1,18.8,11.2,20.5,7.9,20.5C4.5,20.5,1.6,18.8,.0,16.1L1.7,16.1L7.9,5.0L14.0,16.1L15.7,16.1zM2.6,16.1L13.0,16.1L7.9,6.7L2.6,16.1zM30.1,5.0L36.3,16.1L38.0,16.1C36.4,18.8,33.5,20.5,30.1,20.5C26.8,20.5,23.9,18.8,22.3,16.1L24.0,16.1L30.1,5.0zM35.3,16.1L30.1,6.7L25.1,16.1L35.3,16.1z" stroke-width="0.3333329856395721" stroke="#ffffff" transform="translate(9.000012,12.875156)"/></g><g id="group11" transform="translate(901.000000,502.000018)"><path fill-rule="nonzero" id="shape12" fill="#e08a13" d="M.0,28.0C.0,12.5,12.5,.0,28.0,.0C43.5,.0,56.0,12.5,56.0,28.0C56.0,43.5,43.5,56.0,28.0,56.0C12.5,56.0,.0,43.5,.0,28.0z" stroke-width="1" stroke="#e08a13"/><path fill-rule="nonzero" id="shape13" fill="#ffffff" d="M22.7,8.9C22.6,9.1,22.5,9.3,22.4,9.4L21.0,11.9L35.1,20.1C36.3,20.8,36.8,22.4,36.1,23.6C35.4,24.8,33.8,25.2,32.6,24.5L18.4,16.4L16.6,19.6C17.2,20.4,17.4,21.3,17.0,22.1C16.3,23.3,14.6,23.5,13.2,22.7L6.4,18.8C4.9,17.9,4.3,16.4,4.9,15.3C5.4,14.5,6.3,14.1,7.4,14.3L13.2,4.1C13.3,4.0,13.5,3.8,13.6,3.7C12.9,2.9,12.7,1.8,13.1,1.1C13.8,-0.1,15.5,-0.3,16.9,.5L23.7,4.4C25.2,5.2,25.8,6.8,25.2,7.8C24.7,8.7,23.7,9.1,22.7,8.9zM.0,33.1L22.9,33.1L22.9,26.9L.0,26.9L.0,33.1z" transform="translate(11.796960,9.268812)"/></g><path fill-rule="nonzero" id="shape14" fill="#21769d" d="M.0,27.0C.0,23.1,.8,19.4,2.4,16.0L15.2,51.3C6.2,46.9,.0,37.6,.0,27.0zM45.2,25.6C45.2,28.0,44.4,30.7,43.2,34.4L40.5,43.4L30.9,14.3C32.4,14.2,33.9,14.0,33.9,14.0C35.4,13.8,35.3,11.6,33.8,11.8C33.8,11.8,29.4,12.2,26.5,12.2C23.8,12.2,19.4,11.8,19.4,11.8C17.9,11.8,17.7,14.0,19.1,14.0C19.1,14.0,20.4,14.2,21.9,14.3L26.2,25.8L20.3,43.5L10.5,14.3C12.0,14.2,13.5,14.0,13.5,14.0C15.0,13.8,14.9,11.8,13.3,11.8C13.3,11.8,8.9,12.2,6.1,12.2C5.6,12.2,5.1,12.2,4.4,12.2C9.3,4.9,17.6,.0,27.0,.0C34.1,.0,40.5,2.7,45.2,7.1C45.1,7.1,45.1,7.1,44.9,7.1C42.2,7.1,40.3,9.3,40.3,11.8C40.3,14.2,41.7,16.0,43.0,18.2C44.0,20.1,45.2,22.3,45.2,25.6zM27.5,29.4L35.8,52.1C35.8,52.3,35.9,52.3,35.9,52.5C33.2,53.5,30.2,54.0,27.0,54.0C24.3,54.0,21.8,53.5,19.4,52.8L27.5,29.4zM50.6,14.0C52.8,17.9,54.0,22.3,54.0,27.0C54.0,37.0,48.6,45.6,40.5,50.3L48.8,26.3C50.3,22.4,50.8,19.4,50.8,16.7C50.8,15.9,50.8,14.8,50.6,14.0z" transform="translate(553.000000,121.000018)"/><g id="group15" transform="translate(401.259843,227.850412)"><g id="group16" transform="translate(0.000100,0.000000)"><g id="group17" transform="translate(51.187700,67.475900)"><path fill-rule="nonzero" id="shape18" fill="#fdc59f" d="M.0,6.4C.0,2.9,2.6,.0,5.8,.0C9.0,.0,11.6,2.9,11.6,6.4C11.6,9.9,9.0,12.8,5.8,12.8C2.6,12.8,.0,9.9,.0,6.4z" stroke-width="1" stroke="#fdc59f" transform="translate(7.997800,58.906700)"/><path fill-rule="nonzero" id="shape19" fill="#3e62ae" d="M.9,.0C.9,.0,8.1,4.5,12.8,12.0C15.1,15.5,18.3,24.0,18.8,35.3C19.4,48.6,18.4,62.9,18.4,62.9L8.9,63.2C8.9,63.2,9.0,44.3,7.7,35.6C7.2,32.4,6.4,22.4,3.3,18.4C-2.2,11.3,.9,.0,.9,.0z" stroke-width="1" stroke="#3e62ae" transform="translate(-0.003050,-1.055100)"/></g><path fill-rule="nonzero" id="shape20" fill="#f8af7e" d="M.0,5.9C.0,2.6,2.6,.0,5.7,.0C8.9,.0,11.4,2.6,11.4,5.9C11.4,9.2,8.9,11.8,5.7,11.8C2.6,11.8,.0,9.2,.0,5.9zM45.1,11.8C48.2,11.8,50.8,9.2,50.8,5.9C50.8,2.6,48.2,.0,45.1,.0C41.9,.0,39.4,2.6,39.4,5.9C39.4,9.2,41.9,11.8,45.1,11.8z" stroke-width="1" stroke="#f8af7e" transform="translate(10.166100,32.957270)"/><path fill-rule="nonzero" id="shape21" fill="#f8af7e" d="M.0,.0L19.3,.0L19.3,11.7C19.3,11.7,15.8,17.3,10.2,17.3C4.7,17.3,.0,11.7,.0,11.7L.0,.0z" stroke-width="1" stroke="#f8af7e" transform="translate(25.615200,56.166890)"/><path fill-rule="nonzero" id="shape22" fill="#fdc59f" d="M11.6,6.4C11.6,2.9,9.0,.0,5.8,.0C2.6,.0,.0,2.9,.0,6.4C.0,9.9,2.6,12.8,5.8,12.8C9.0,12.8,11.6,9.9,11.6,6.4z" stroke-width="1" stroke="#fdc59f" transform="translate(-0.000010,124.157310)"/><path fill-rule="nonzero" id="shape23" fill="#3e62ae" d="M18.0,.4C18.0,.4,12.1,3.3,7.7,12.4C3.3,21.5,.1,60.9,.0,61.8C.0,62.6,9.6,63.8,9.6,63.8L18.0,.4z" stroke-width="1" stroke="#3e62ae" transform="translate(1.400600,64.941900)"/><path fill-rule="nonzero" id="shape24" fill="#5383c3" d="M34.5,.0C34.5,.0,39.3,1.1,42.1,3.4C45.0,5.8,47.6,51.9,46.0,55.8C40.1,56.2,29.4,56.3,24.5,56.3C24.5,56.3,24.0,56.3,23.3,56.3C22.5,56.3,22.0,56.3,22.0,56.3C17.2,56.3,6.4,56.2,.5,55.8C-1.1,51.9,1.6,5.8,4.4,3.4C7.2,1.1,12.0,.0,12.0,.0L23.3,8.5L34.5,.0z" stroke-width="1" stroke="#5383c3" transform="translate(11.897500,63.723900)"/><path fill-rule="nonzero" id="shape25" fill="#944e2a" d="M1.3,.0L44.7,.0C45.5,.0,46.1,.5,46.1,1.2L46.1,2.6C46.1,3.2,45.5,3.8,44.7,3.8L1.3,3.8C.6,3.8,.0,3.2,.0,2.6L.0,1.2C.0,.5,.6,.0,1.3,.0z" stroke-width="1" stroke="#944e2a" transform="translate(12.139800,119.416810)"/><path fill-rule="nonzero" id="shape26" fill="#0e2350" d="M.0,.0L45.7,.0C45.7,.0,40.7,89.1,42.1,89.1C43.5,89.1,27.7,89.2,27.7,89.2L24.7,16.6L21.0,16.6L18.0,89.2C18.0,89.2,2.2,89.1,3.6,89.1C5.0,89.1,.0,.0,.0,.0z" stroke-width="1" stroke="#0e2350" transform="translate(12.340200,122.981800)"/><path fill-rule="nonzero" id="shape27" fill="#fdc59f" d="M.0,29.0C.0,13.2,9.1,.0,21.3,.0C33.5,.0,42.8,12.8,42.8,28.6C42.8,44.4,36.9,57.5,21.3,57.2C5.7,56.9,.0,44.8,.0,29.0z" stroke-width="1" stroke="#fdc59f" transform="translate(14.276300,5.235100)"/><path fill-rule="nonzero" id="shape28" fill="#5a291a" d="M41.6,19.8C40.7,22.1,35.3,23.7,33.6,24.1C31.9,24.4,36.2,19.8,36.5,19.8C36.5,19.8,28.1,26.0,20.7,25.5C13.3,25.0,6.6,25.1,6.6,25.1C6.6,25.1,4.6,37.2,4.3,40.5C4.0,43.9,.2,26.9,2.0,22.6C1.4,23.0,.0,22.6,.0,22.6C.0,22.6,3.7,15.0,4.8,13.0C5.9,11.1,3.1,11.8,3.1,11.8C3.1,11.8,5.7,7.2,9.3,4.5C12.8,1.8,21.4,-1.4,27.4,.6C33.5,2.6,35.2,5.0,35.2,5.0C35.2,5.0,37.5,1.3,41.3,7.2C45.2,13.0,48.6,17.4,48.4,29.1C48.0,40.8,44.8,41.1,44.8,41.1C44.8,41.1,44.5,34.7,44.3,28.8C44.0,22.9,41.3,19.8,41.6,19.8z" stroke-width="1" stroke="#5a291a" transform="translate(10.811100,0.000000)"/><path fill-rule="nonzero" id="shape29" fill="#f29952" d="M6.6,3.2C12.0,3.2,10.9,.1,12.6,.0C14.2,-0.1,11.9,4.3,6.6,4.3C1.3,4.2,-1.2,-0.1,.5,.0C2.2,.1,1.2,3.2,6.6,3.2z" stroke-width="1" stroke="#f29952" transform="translate(29.221000,51.765830)"/><path fill-rule="nonzero" id="shape30" fill="#dcdcdd" d="M12.7,7.7L9.1,11.0L.0,2.2L2.3,.0L12.7,7.7zM14.4,7.7L18.1,11.0L27.2,2.2L24.9,.0L14.4,7.7z" stroke-width="1" stroke="#dcdcdd" transform="translate(21.499300,63.168060)"/><path fill-rule="nonzero" id="shape31" fill="#5a291a" d="M26.8,7.2C25.8,9.6,23.5,8.7,12.6,8.7C1.7,8.7,.0,9.3,.0,5.7C.0,4.2,5.3,1.8,10.8,.9C17.9,-0.3,25.8,.1,25.8,.1C26.5,.7,27.8,4.8,26.8,7.2zM35.0,7.2C36.0,9.6,38.3,8.7,49.2,8.7C60.1,8.7,61.8,9.3,61.8,5.7C61.8,4.1,55.6,1.8,49.5,.9C42.7,-0.2,36.0,.0,36.0,.0C35.3,.7,34.0,4.8,35.0,7.2z" stroke-width="1" stroke="#5a291a" transform="translate(4.854400,211.118640)"/><path fill-rule="nonzero" id="shape32" fill="#3d1d12" d="M25.7,6.6C27.1,6.6,27.9,7.3,27.9,8.1L27.9,9.5C27.9,10.3,27.1,11.0,26.1,11.0C24.8,11.0,24.0,10.3,24.0,9.5L24.0,8.1C24.0,7.3,24.8,6.6,25.7,6.6zM4.3,8.1L4.3,9.5C4.3,10.3,5.1,11.0,6.4,11.0C7.4,11.0,8.2,10.3,8.2,9.5L8.2,8.1C8.2,7.3,7.4,6.6,6.1,6.6C5.1,6.6,4.3,7.3,4.3,8.1zM3.5,1.4C5.2,1.0,6.7,1.7,6.6,1.2C6.3,.2,4.6,-0.3,2.8,.2C1.0,.7,-0.2,1.9,.0,2.9C.2,3.4,2.0,1.8,3.5,1.4zM30.5,3.2C30.8,2.2,29.6,1.0,27.8,.5C26.0,.0,24.3,.5,24.0,1.5C23.8,2.1,25.4,1.3,27.1,1.7C28.6,2.1,30.4,3.7,30.5,3.2z" stroke-width="1" stroke="#3d1d12" transform="translate(19.672300,31.071980)"/></g><g id="group33" transform="translate(136.083800,5.130000)"><g id="group34" transform="translate(12.867900,140.219500)"><path fill-rule="nonzero" id="shape35" fill="#eb6d71" d="M55.2,7.4C55.3,9.4,51.3,10.1,46.9,9.7C42.5,9.3,40.3,7.1,40.3,7.1L37.3,6.8L37.9,9.4L35.0,9.3C35.0,9.3,34.6,8.1,32.6,5.9C30.5,3.7,33.5,.0,33.5,.0L41.9,.9C41.9,.9,54.8,5.4,55.2,7.4zM.0,7.4C-0.2,9.4,3.8,10.1,8.2,9.7C12.7,9.3,14.8,7.1,14.8,7.1L17.9,6.8L17.2,9.4L20.2,9.3C20.2,9.3,20.5,8.1,22.6,5.9C24.6,3.7,21.7,.0,21.7,.0L13.2,.9C13.2,.9,.3,5.4,.0,7.4z" stroke-width="1" stroke="#eb6d71" transform="translate(0.000000,64.482760)"/><path fill-rule="nonzero" id="shape36" fill="#fdc59f" d="M37.4,2.5L35.8,63.9C36.9,64.5,40.7,66.8,43.5,68.1C43.5,68.1,41.7,70.3,37.9,69.3C35.3,68.6,31.3,66.5,29.2,65.3L27.8,64.3L25.3,.0L37.4,2.5zM6.1,2.5L7.6,63.9C6.5,64.5,2.8,66.8,.0,68.1C.0,68.1,1.8,70.3,5.5,69.3C8.2,68.6,12.1,66.5,14.2,65.3L15.6,64.3L18.1,.0L6.1,2.5z" stroke-width="1" stroke="#fdc59f" transform="translate(5.954400,0.000000)"/></g><path fill-rule="nonzero" id="shape37" fill="#fdc59f" d="M8.2,5.7C8.2,5.7,11.3,-10.3,14.0,11.3C16.6,32.8,6.9,41.5,6.9,41.5L.0,37.7C.0,37.7,6.4,27.8,4.8,16.8C3.3,5.8,3.3,6.8,3.3,6.8L8.2,5.7z" stroke-width="1" stroke="#fdc59f" transform="translate(57.229730,76.027700)"/><path fill-rule="nonzero" id="shape38" fill="#fdc59f" d="M19.3,4.8C19.3,4.8,15.6,10.9,13.3,21.7C11.2,31.8,10.4,40.4,10.1,44.0C11.2,45.3,11.8,47.1,11.6,49.0C11.3,52.5,8.5,55.1,5.3,54.8C2.1,54.6,-0.2,51.5,.1,48.0C.3,46.3,1.0,44.8,2.0,43.8C1.9,40.6,1.9,32.1,3.6,21.2C5.7,7.4,9.2,.8,10.0,-0.2C10.6,-0.3,20.7,4.9,19.3,4.8z" stroke-width="1" stroke="#fdc59f" transform="translate(-0.085150,79.747700)"/><path fill-rule="nonzero" id="shape39" fill="#f8af7e" d="M5.0,.0L.0,1.4C.0,1.4,-0.9,9.9,11.1,11.8C23.1,13.7,27.9,2.1,27.9,2.1C27.9,2.1,20.3,.0,19.8,.0L5.0,.0z" stroke-width="1" stroke="#f8af7e" transform="translate(25.927000,58.606840)"/><path fill-rule="nonzero" id="shape40" fill="#763c30" d="M58.1,49.0C62.5,55.4,42.4,60.0,31.3,56.3L27.4,56.3C16.3,60.0,-3.7,55.4,.6,49.0C5.4,42.0,-2.2,42.0,1.6,34.8C5.3,27.7,.9,30.4,2.7,20.4C4.4,10.7,14.0,.6,28.0,.0C28.3,.0,28.5,.0,28.8,.0C29.2,.0,29.5,.0,29.9,.0C30.2,.0,30.4,.0,30.7,.0C44.7,.6,54.3,10.7,56.0,20.4C57.8,30.4,53.4,27.7,57.1,34.8C60.9,42.0,53.3,42.0,58.1,49.0z" stroke-width="1" stroke="#763c30" transform="translate(9.819400,0.000100)"/><path fill-rule="nonzero" id="shape41" fill="#f8af7e" d="M.0,5.5C.0,2.5,2.5,.0,5.7,.0C8.8,.0,11.4,2.5,11.4,5.5C11.4,8.5,8.8,11.0,5.7,11.0C2.5,11.0,.0,8.5,.0,5.5zM38.9,11.0C42.0,11.0,44.6,8.5,44.6,5.5C44.6,2.5,42.0,.0,38.9,.0C35.7,.0,33.2,2.5,33.2,5.5C33.2,8.5,35.7,11.0,38.9,11.0z" stroke-width="1" stroke="#f8af7e" transform="translate(17.151500,27.640790)"/><path fill-rule="nonzero" id="shape42" fill="#f8af7e" d="M.0,.0L16.4,.0L16.4,11.7C16.4,11.7,13.4,17.2,8.7,17.2C4.0,17.2,.0,11.7,.0,11.7L.0,.0z" stroke-width="1" stroke="#f8af7e" transform="translate(30.651450,50.733750)"/><path fill-rule="nonzero" id="shape43" fill="#fdc59f" d="M.0,24.2C.0,8.4,7.8,.0,18.4,.0C29.0,.0,37.2,8.0,37.2,23.8C37.2,39.5,29.5,52.2,18.5,52.3C7.5,52.4,.0,39.9,.0,24.2z" stroke-width="1" stroke="#fdc59f" transform="translate(20.682100,4.707000)"/><path fill-rule="nonzero" id="shape44" fill="#f29952" d="M4.3,2.0C7.4,2.1,7.1,.1,8.2,.0C9.3,.0,7.5,2.8,4.3,2.7C1.1,2.5,-0.7,.1,.3,.0C1.3,-0.1,1.2,1.9,4.3,2.0z" stroke-width="1" stroke="#f29952" transform="translate(35.001180,46.078980)"/><path fill-rule="nonzero" id="shape45" fill="#944e2a" d="M.0,23.2C1.2,10.8,4.5,.5,22.2,.0C39.1,-0.4,45.5,14.6,42.8,26.9C42.8,27.0,42.8,27.1,42.8,27.3C39.5,26.7,32.7,24.4,26.3,15.1C22.5,21.1,11.9,25.4,.4,25.4C.3,25.4,.1,23.2,.0,23.2z" stroke-width="1" stroke="#944e2a" transform="translate(17.512300,1.554100)"/><path fill-rule="nonzero" id="shape46" fill="#cfebf6" d="M.0,1.3C.0,.6,.6,.0,1.3,.0C2.1,.0,2.7,.6,2.7,1.3C2.7,2.1,2.1,2.7,1.3,2.7C.6,2.7,.0,2.1,.0,1.3z" stroke-width="1" stroke="#cfebf6" transform="translate(18.235220,37.130870)"/><path fill-rule="nonzero" id="shape47" fill="#cfebf6" d="M.0,1.3C.0,.6,.6,.0,1.3,.0C2.1,.0,2.7,.6,2.7,1.3C2.7,2.1,2.1,2.7,1.3,2.7C.6,2.7,.0,2.1,.0,1.3z" stroke-width="1" stroke="#cfebf6" transform="translate(57.382620,37.130870)"/><path fill-rule="nonzero" id="shape48" fill="#e85464" d="M8.5,96.5C6.4,88.7,8.6,61.8,14.0,50.8C16.0,46.5,16.7,43.2,16.9,41.3C17.7,31.3,14.8,22.0,14.8,22.0L12.5,29.6C12.5,29.6,5.1,28.1,.0,26.2C1.7,16.8,5.5,8.9,8.4,5.8C11.3,2.7,19.6,-1.1,20.9,.3C22.2,1.7,21.4,9.5,32.7,9.5C32.7,9.5,32.8,9.5,32.9,9.5C33.0,9.5,33.0,9.5,33.1,9.5C44.4,9.5,43.6,1.7,44.9,.3C46.2,-1.1,54.5,2.7,57.4,5.8C60.3,8.9,64.1,16.8,65.8,26.2C60.7,28.1,53.3,29.6,53.3,29.6L51.0,22.0C51.0,22.0,48.1,31.3,48.9,41.3C49.1,43.2,49.8,46.5,51.8,50.8C57.2,61.8,59.4,88.7,57.3,96.5C48.3,96.5,17.5,96.5,8.5,96.5z" stroke-width="1" stroke="#e85464" transform="translate(6.128400,59.004300)"/><path fill-rule="nonzero" id="shape49" fill="#fdc59f" d="M11.5,6.4C11.5,2.9,9.0,.0,5.8,.0C2.6,.0,.0,2.9,.0,6.4C.0,9.9,2.6,12.8,5.8,12.8C9.0,12.8,11.5,9.9,11.5,6.4z" stroke-width="1" stroke="#fdc59f" transform="translate(54.059270,111.566090)"/><path fill-rule="nonzero" id="shape50" fill="#5a291a" d="M23.4,5.4C24.7,5.4,25.5,5.9,25.5,6.6L25.5,7.8C25.5,8.5,24.7,9.1,23.8,9.1C22.4,9.1,21.6,8.5,21.6,7.8L21.6,6.6C21.6,5.9,22.4,5.4,23.4,5.4zM2.0,6.6L2.0,7.8C2.0,8.5,2.8,9.1,4.1,9.1C5.1,9.1,5.9,8.5,5.9,7.8L5.9,6.6C5.9,5.9,5.1,5.4,3.7,5.4C2.8,5.4,2.0,5.9,2.0,6.6zM3.0,1.0C5.1,.6,6.2,1.6,6.1,1.1C5.8,.1,3.4,-0.2,2.3,.1C1.2,.4,-0.2,1.1,.0,2.1C.2,2.6,.9,1.4,3.0,1.0zM27.1,2.1C27.4,1.1,26.0,.4,24.9,.1C23.7,-0.2,21.4,.1,21.1,1.1C21.0,1.6,22.1,.6,24.2,1.0C26.3,1.4,27.0,2.6,27.1,2.1z" stroke-width="1" stroke="#5a291a" transform="translate(25.608100,28.021930)"/></g><g id="group51" transform="translate(62.496700,56.901500)"><g id="group52" transform="translate(22.001800,116.071000)"><path fill-rule="nonzero" id="shape53" fill="#fdc59f" d="M22.8,.0C22.8,.0,21.5,40.9,20.7,43.0C19.9,45.1,15.6,43.1,15.6,43.1L13.3,.0L22.8,.0zM.0,.0C.0,.0,1.3,40.9,2.1,43.0C2.9,45.1,7.2,43.1,7.2,43.1L9.5,.0L.0,.0z" stroke-width="1" stroke="#fdc59f" transform="translate(7.259100,0.000000)"/><path fill-rule="nonzero" id="shape54" fill="#f0909b" d="M16.6,5.8C15.9,7.6,13.3,7.1,7.9,7.1C2.6,7.0,.0,7.1,.0,4.4C.0,3.2,4.9,1.8,7.5,.9C12.7,-0.7,15.9,.3,15.9,.3C16.4,.9,17.4,4.0,16.6,5.8zM21.9,5.8C22.7,7.6,25.3,7.1,30.6,7.1C36.0,7.0,38.5,7.1,38.5,4.4C38.5,3.2,33.7,1.8,31.0,.9C25.8,-0.7,22.7,.3,22.7,.3C22.2,.9,21.2,4.0,21.9,5.8z" stroke-width="1" stroke="#f0909b" transform="translate(0.000000,39.864840)"/></g><path fill-rule="nonzero" id="shape55" fill="#fdc59f" d="M24.4,4.7L20.0,19.5C20.0,19.5,18.1,25.6,11.6,21.5C5.2,17.4,.0,12.0,.0,12.0L2.0,5.8L13.9,13.1C13.9,13.1,15.6,8.8,17.7,2.4C19.7,-4.1,23.8,4.7,24.4,4.7z" stroke-width="1" stroke="#fdc59f" transform="translate(0.000100,66.518300)"/><path fill-rule="nonzero" id="shape56" fill="#fdc59f" d="M.0,4.7L4.3,19.5C4.3,19.5,6.2,25.6,12.7,21.5C19.2,17.4,24.4,12.0,24.4,12.0L22.4,5.8L10.5,13.1C10.5,13.1,8.7,8.8,6.7,2.4C4.6,-4.1,.5,4.7,.0,4.7z" stroke-width="1" stroke="#fdc59f" transform="translate(56.420500,67.377800)"/><g id="group57" transform="translate(54.024030,31.152800)"><path fill-rule="nonzero" id="shape58" fill="#763c30" d="M.4,3.4C.4,1.5,1.9,.0,3.7,.0C5.6,.0,7.1,1.5,7.1,3.4C7.1,4.4,6.7,5.3,6.1,5.9C7.4,6.4,8.3,7.6,8.3,9.1C8.3,10.1,7.8,11.0,7.1,11.6C8.1,12.2,8.8,13.3,8.8,14.6C8.8,15.9,8.1,16.9,7.2,17.5C7.3,18.0,7.4,18.4,7.4,18.9C7.4,20.8,6.0,22.3,4.3,22.3C2.5,22.3,1.1,20.8,1.1,18.9C1.1,17.8,1.6,16.8,2.4,16.1C2.2,15.7,2.1,15.1,2.1,14.6C2.1,13.6,2.5,12.7,3.2,12.0C2.2,11.4,1.5,10.3,1.5,9.1C1.5,8.1,1.9,7.3,2.5,6.6C1.3,6.1,.4,4.9,.4,3.4zM.7,31.7C.7,31.7,3.7,29.9,5.0,27.6C6.3,25.3,5.7,23.2,4.0,22.7C2.3,22.3,.7,23.7,.1,25.6C-0.4,27.6,.7,31.7,.7,31.7z" stroke-width="1" stroke="#763c30"/><path fill-rule="nonzero" id="shape59" fill="#f0909b" d="M.0,.4C.1,.0,.9,-0.1,1.8,.1C2.7,.4,3.3,.9,3.2,1.3C3.1,1.7,2.3,1.8,1.4,1.6C.5,1.3,-0.1,.8,.0,.4z" stroke-width="1" stroke="#f0909b" transform="translate(2.175330,21.620450)"/></g><path fill-rule="nonzero" id="shape60" fill="#f8af7e" d="M3.9,1.4C3.9,1.4,2.2,4.2,.3,4.9C-1.6,5.7,6.1,15.8,12.6,15.5C19.1,15.0,23.8,8.3,23.4,8.1C23.0,7.9,24.4,7.3,23.9,6.8C23.4,6.2,19.1,4.4,17.3,1.4C15.5,-1.7,5.5,1.4,5.5,1.4L3.9,1.4z" stroke-width="1" stroke="#f8af7e" transform="translate(29.532500,48.076770)"/><path fill-rule="nonzero" id="shape61" fill="#f0909b" d="M23.2,9.0C23.2,9.0,23.3,9.0,23.4,9.0C23.4,9.0,23.5,9.0,23.6,9.0C31.9,9.8,33.3,.0,33.3,.0C33.3,.0,40.9,1.8,43.8,6.2C46.7,10.5,46.7,17.5,46.7,17.5L38.9,20.4L37.7,15.3C37.7,15.3,35.8,22.0,35.5,28.9C34.3,29.8,34.3,30.8,35.0,32.4C39.8,41.8,46.0,70.6,40.2,72.4C35.5,72.5,29.4,72.7,23.6,72.7C23.5,72.7,23.4,72.7,23.4,72.7C23.3,72.7,23.2,72.7,23.2,72.7C17.4,72.7,11.2,72.5,6.5,72.4C.7,70.6,6.9,41.8,11.7,32.4C12.5,30.8,12.5,29.8,11.3,28.9C11.0,22.0,9.1,15.3,9.1,15.3L7.8,20.4L.0,17.5C.0,17.5,.0,10.5,2.9,6.2C5.8,1.8,13.4,.0,13.4,.0C13.4,.0,14.8,9.8,23.2,9.0z" stroke-width="1" stroke="#f0909b" transform="translate(17.147100,52.286700)"/><path fill-rule="nonzero" id="shape62" fill="#f8af7e" d="M.0,.0L14.4,.0L14.4,8.8C14.4,8.8,11.8,12.9,7.7,12.9C3.5,12.9,.0,8.8,.0,8.8L.0,.0z" stroke-width="1" stroke="#f8af7e" transform="translate(32.878360,41.764070)"/><g id="group63" transform="translate(17.711930,31.152800)"><path fill-rule="nonzero" id="shape64" fill="#763c30" d="M8.4,3.4C8.4,1.5,6.9,.0,5.1,.0C3.2,.0,1.7,1.5,1.7,3.4C1.7,4.4,2.1,5.3,2.7,5.9C1.4,6.4,.5,7.6,.5,9.1C.5,10.1,1.0,11.0,1.7,11.6C.7,12.2,.0,13.3,.0,14.6C.0,15.9,.7,16.9,1.6,17.5C1.5,18.0,1.4,18.4,1.4,18.9C1.4,20.8,2.8,22.3,4.5,22.3C6.3,22.3,7.7,20.8,7.7,18.9C7.7,17.8,7.2,16.8,6.4,16.1C6.6,15.7,6.7,15.1,6.7,14.6C6.7,13.6,6.3,12.7,5.6,12.0C6.6,11.4,7.3,10.3,7.3,9.1C7.3,8.1,6.9,7.3,6.3,6.6C7.5,6.1,8.4,4.9,8.4,3.4zM8.1,31.7C8.1,31.7,5.1,29.9,3.8,27.6C2.5,25.3,3.1,23.2,4.8,22.7C6.5,22.3,8.1,23.7,8.7,25.6C9.2,27.6,8.1,31.7,8.1,31.7z" stroke-width="1" stroke="#763c30"/><path fill-rule="nonzero" id="shape65" fill="#f0909b" d="M3.2,.4C3.1,.0,2.3,-0.1,1.4,.1C.5,.4,-0.1,.9,.0,1.3C.1,1.7,.9,1.8,1.8,1.6C2.7,1.3,3.3,.8,3.2,.4z" stroke-width="1" stroke="#f0909b" transform="translate(3.405150,21.620234)"/></g><path fill-rule="nonzero" id="shape66" fill="#ebc4db" d="M.0,20.0C.0,9.0,9.4,.0,21.1,.0C32.8,.0,42.2,9.0,42.2,20.0C42.2,31.1,32.8,40.1,21.1,40.1C9.4,40.1,.0,31.1,.0,20.0z" stroke-width="1" stroke="#ebc4db" transform="translate(19.295100,0.984900)"/><path fill-rule="nonzero" id="shape67" fill="#f8af7e" d="M.0,4.4C.0,2.0,2.1,.0,4.8,.0C7.4,.0,9.5,2.0,9.5,4.4C9.5,6.9,7.4,8.8,4.8,8.8C2.1,8.8,.0,6.9,.0,4.4zM37.6,8.8C40.3,8.8,42.4,6.9,42.4,4.4C42.4,2.0,40.3,.0,37.6,.0C35.0,.0,32.9,2.0,32.9,4.4C32.9,6.9,35.0,8.8,37.6,8.8z" stroke-width="1" stroke="#f8af7e" transform="translate(18.939200,26.705390)"/><path fill-rule="nonzero" id="shape68" fill="#fdc59f" d="M.3,19.5C-1.9,8.4,7.6,.0,17.4,.0C27.2,.0,36.3,8.1,34.6,19.3C33.0,30.5,26.5,38.2,17.4,38.6C8.4,38.9,2.6,30.7,.3,19.5z" stroke-width="1" stroke="#fdc59f" transform="translate(22.843800,10.942800)"/><path fill-rule="nonzero" id="shape69" fill="#f29952" d="M3.2,2.4C5.8,2.4,5.3,.1,6.1,.0C6.9,.0,5.8,3.2,3.2,3.2C.6,3.2,-0.6,.0,.3,.0C1.1,.1,.6,2.4,3.2,2.4z" stroke-width="1" stroke="#f29952" transform="translate(37.107610,42.876550)"/><path fill-rule="nonzero" id="shape70" fill="#5a291a" d="M.2,19.7C1.3,10.5,4.4,.5,20.1,.0C35.1,-0.3,40.8,13.0,38.4,24.0C38.4,24.1,38.4,24.2,38.4,24.2C35.4,23.8,29.4,21.7,23.7,13.5C20.3,18.8,10.3,24.3,.0,24.3C.0,24.3,.3,19.7,.2,19.7z" stroke-width="1" stroke="#5a291a" transform="translate(20.626200,3.187900)"/><path fill-rule="nonzero" id="shape71" fill="#5a291a" d="M20.4,3.5C21.5,3.5,22.1,4.0,22.1,4.7L22.1,5.8C22.1,6.5,21.5,7.0,20.7,7.0C19.6,7.0,19.0,6.5,19.0,5.8L19.0,4.7C19.0,4.0,19.6,3.5,20.4,3.5zM2.0,4.7L2.0,5.8C2.0,6.5,2.6,7.0,3.7,7.0C4.5,7.0,5.1,6.5,5.1,5.8L5.1,4.7C5.1,4.0,4.5,3.5,3.4,3.5C2.6,3.5,2.0,4.0,2.0,4.7zM2.6,1.0C3.9,.7,4.9,1.2,4.8,.8C4.6,.1,3.4,-0.2,2.1,.2C.8,.5,-0.1,1.4,.0,2.1C.1,2.4,1.5,1.3,2.6,1.0zM23.7,2.2C23.9,1.5,23.0,.7,21.6,.4C20.3,.0,19.1,.4,18.8,1.1C18.7,1.4,19.8,.9,21.1,1.2C22.3,1.4,23.6,2.6,23.7,2.2z" stroke-width="1" stroke="#5a291a" transform="translate(28.547000,27.144920)"/><path fill-rule="nonzero" id="shape72" fill="#fed6e5" d="M.0,29.3L24.6,29.5L24.2,32.6L.4,32.6L.0,29.3zM2.2,7.7C5.9,11.1,15.1,10.4,10.3,8.4C5.5,6.4,2.9,.0,2.9,.0C1.8,.0,-1.5,4.4,2.2,7.7zM20.5,.0C20.5,.0,17.9,6.4,13.1,8.4C8.3,10.4,17.5,11.1,21.2,7.7C24.9,4.4,21.6,.0,20.5,.0z" stroke-width="1" stroke="#fed6e5" transform="translate(28.414100,51.825100)"/><path fill-rule="nonzero" id="shape73" fill="#f0909b" d="M9.2,7.2C10.3,7.3,11.8,7.7,13.3,8.4C15.6,9.5,14.6,11.8,13.4,13.1C12.1,14.4,9.7,15.9,8.6,13.1C7.9,11.4,7.5,10.1,7.5,9.1C7.0,9.1,6.5,8.9,6.1,8.5C5.7,8.2,5.5,7.7,5.5,7.2C4.6,7.2,3.3,6.8,1.6,6.1C-1.2,5.0,.3,2.6,1.6,1.3C2.9,.0,5.2,-0.9,6.3,1.4C7.0,2.9,7.4,4.4,7.4,5.4C7.9,5.5,8.3,5.7,8.6,6.0C9.0,6.3,9.1,6.8,9.2,7.2z" stroke-width="1" stroke="#f0909b" transform="translate(49.223780,0.008180)"/></g></g><g id="group74" transform="translate(10.000000,435.000018)"><path fill-rule="nonzero" id="shape75" fill="#000000" d="M.8,.6C1.1,.6,7.6,-3.8,8.2,10.5C8.2,10.5,6.5,14.7,3.5,13.8C3.5,13.8,-2.1,2.6,.8,.6z" stroke-width="1" stroke="#000000" transform="translate(63.112760,88.831680)"/><path fill-rule="nonzero" id="shape76" fill="#fec6a5" d="M.0,12.4C.0,12.4,2.0,9.7,2.6,9.4C3.3,9.2,4.8,10.1,4.0,10.9C3.2,11.6,2.4,13.5,2.4,13.5C2.4,13.5,4.4,10.3,5.6,10.0C6.7,9.8,7.3,10.5,6.4,11.8C5.6,13.2,5.1,14.4,5.1,14.4C5.1,14.4,7.0,12.5,7.5,11.6C8.0,10.8,9.5,10.7,9.5,11.8C9.5,13.0,9.2,13.8,8.6,14.4C8.0,14.9,7.9,15.4,6.7,15.4C5.6,15.4,.0,14.2,.0,12.4zM14.1,.0L11.5,1.6C10.7,1.0,6.7,1.1,6.7,1.1C.6,2.4,.6,3.5,.6,3.5C8.6,.6,9.0,2.3,9.0,3.5C9.0,4.7,11.2,6.1,11.2,6.1L14.9,8.9L17.9,7.1C18.2,3.0,14.1,.0,14.1,.0z" transform="translate(53.188910,89.072450)"/><path fill-rule="nonzero" id="shape77" fill="#fed1b6" d="M5.1,25.7C5.7,26.5,7.7,29.4,7.7,29.4C7.7,29.4,7.4,33.7,6.3,35.8C5.1,37.8,.9,38.6,.9,38.6C.4,36.7,.1,33.3,.1,33.3C1.1,32.3,1.2,29.7,.6,29.1C-0.0,28.5,.0,25.9,.0,25.9C3.0,24.6,5.1,25.7,5.1,25.7zM12.2,10.3C13.7,12.4,18.4,12.6,21.3,13.6C24.1,14.5,23.8,13.3,23.8,13.3C26.9,13.8,24.3,11.5,25.8,11.5C26.8,11.5,27.0,10.6,27.0,10.3C27.1,10.6,28.2,10.6,28.7,9.8C29.2,8.9,27.8,7.2,27.8,7.2C27.8,7.2,25.9,5.7,23.8,4.0C21.7,2.4,22.1,1.9,22.1,1.9C22.2,-2.2,13.6,1.7,13.6,1.7C13.6,2.3,12.2,10.3,12.2,10.3zM26.9,10.2C26.9,10.2,26.9,10.2,27.0,10.3C27.0,10.1,26.9,10.1,26.9,10.2z" transform="translate(40.106900,90.649100)"/><path fill-rule="nonzero" id="shape78" fill="#fed1b6" d="M25.0,8.3C27.2,8.3,35.0,7.0,35.0,7.0C32.0,12.2,30.0,22.9,30.0,22.9C30.0,28.5,27.2,32.9,27.2,32.9C27.2,35.5,26.6,48.5,25.9,52.5C25.1,56.5,25.9,67.2,25.9,67.2C26.9,69.2,26.9,71.8,26.9,71.8C28.9,77.0,34.2,80.8,34.2,80.8C34.2,80.8,35.6,83.3,30.0,81.5C24.4,79.7,16.9,71.1,16.9,71.1C16.9,71.1,18.3,63.2,16.4,56.0C14.4,48.9,13.8,39.3,13.8,39.3C14.0,39.0,14.2,38.6,14.4,38.3C14.1,38.9,13.8,39.2,13.8,39.3C13.7,39.6,10.5,53.6,10.5,64.5C10.5,75.4,13.3,80.9,15.6,83.8C18.0,86.7,16.5,87.2,16.5,87.2C14.3,88.9,10.1,88.0,6.2,84.5C2.3,81.1,1.7,74.9,1.7,74.9C1.7,74.9,2.5,72.9,2.9,70.7C3.4,68.5,.4,55.9,.0,47.2C-0.3,38.4,2.5,33.6,4.4,27.5C6.4,21.5,3.6,8.7,3.6,8.7C4.6,9.2,4.4,9.4,5.4,8.5C6.4,7.5,7.2,.0,7.2,.0C7.6,6.3,8.8,7.8,8.8,7.8C10.3,8.7,21.6,8.8,21.6,8.8C22.1,8.8,23.4,8.3,25.0,8.3zM17.7,32.1C19.3,28.1,18.8,26.3,18.8,26.3C18.8,28.3,18.3,30.3,17.7,32.1zM18.8,26.3C18.8,26.3,18.8,26.3,18.8,26.3z" transform="translate(3.397300,133.087100)"/><path fill-rule="nonzero" id="shape79" fill="#000000" d="M48.6,10.8C50.0,16.4,48.6,16.4,48.6,16.4L45.1,17.7L44.8,16.9C44.8,16.9,43.9,15.9,42.9,18.0C41.8,20.2,35.2,20.8,31.5,21.1C27.9,21.3,23.4,22.0,23.0,18.7C22.5,15.4,24.1,15.0,25.1,14.3C26.0,13.7,29.5,9.8,31.0,8.2C30.4,8.4,29.6,8.6,28.7,8.6C27.2,8.6,26.8,6.9,15.5,8.6C4.3,10.4,.6,7.3,.6,7.3C-0.8,5.7,.6,5.1,.6,5.1C1.5,2.5,4.0,2.5,6.8,2.2C9.5,1.9,12.4,.8,12.4,.8C17.7,-1.0,18.9,.9,20.2,1.0C21.6,1.1,28.9,2.8,28.9,2.8C29.1,4.4,30.8,7.0,31.4,7.7C31.5,7.6,31.5,7.6,31.5,7.6C32.6,8.6,48.6,10.8,48.6,10.8z" stroke-width="1" stroke="#000000" transform="translate(88.302100,212.684200)"/><path fill-rule="nonzero" id="shape80" fill="#727b77" d="M.4,-0.0C.4,-0.0,.0,9.9,.0,10.3C.0,10.7,3.2,11.3,4.4,10.3C5.6,9.3,6.2,1.4,6.2,1.4C6.2,1.4,6.8,9.6,7.8,9.9C8.8,10.3,21.3,11.1,24.4,10.3C27.4,9.4,33.3,9.0,34.6,9.0C36.0,9.0,35.0,4.3,34.8,.9L.4,-0.0z" transform="translate(4.393000,131.633190)"/><path fill-rule="nonzero" id="shape81" fill="#1f2b34" d="M38.8,5.0C38.8,5.0,30.4,8.6,29.3,10.6C28.1,12.5,27.3,14.0,27.8,16.0C28.3,18.0,26.8,16.3,26.8,22.2C26.8,22.2,23.0,26.9,23.6,30.2C23.6,30.2,22.4,31.9,22.4,33.9C22.4,35.8,19.7,34.6,18.6,36.3C17.6,37.9,19.1,37.9,17.7,39.1C16.2,40.3,14.3,39.7,12.9,42.9C11.4,46.1,10.2,45.4,8.6,46.9C6.9,48.3,1.5,51.5,.0,53.0C.0,53.0,2.0,52.7,3.6,55.9C4.9,58.5,5.2,60.0,5.5,62.2C5.7,63.9,5.5,67.2,4.0,66.6C2.5,65.9,2.5,65.7,2.5,65.7C2.5,65.7,3.6,68.2,6.4,66.6C9.3,64.9,25.6,52.6,26.0,52.1C26.5,51.6,27.7,51.2,27.7,53.0C27.7,53.0,28.0,57.8,28.0,59.7C28.0,61.5,26.7,63.5,26.7,65.1C26.7,66.8,28.6,66.8,28.3,68.3C28.0,69.9,26.7,70.1,26.7,73.4C26.7,76.7,26.1,90.5,26.4,91.2C26.7,91.9,29.1,91.5,29.4,91.2C29.7,90.9,29.8,92.4,29.8,92.4C29.8,92.4,42.2,93.8,46.4,93.4C50.6,93.0,67.1,94.0,68.2,94.5C69.3,94.9,73.1,95.1,73.1,94.5C73.1,93.9,70.7,73.8,70.0,71.3C69.2,68.8,74.4,57.8,75.0,44.2C75.0,44.2,75.5,40.3,76.5,37.1C77.5,33.9,79.2,18.5,76.5,11.4C76.5,11.4,74.9,5.9,59.8,.0L38.8,5.0z" stroke-width="1" stroke="#1f2b34" transform="translate(63.931800,36.487400)"/><path fill-rule="nonzero" id="shape82" fill="#29353e" d="M24.5,.0C24.5,.0,27.0,3.6,27.4,4.9C27.8,6.3,23.8,13.5,21.7,15.9L24.3,17.2C24.3,17.2,24.7,17.2,22.8,19.2C21.0,21.2,8.4,41.7,4.9,49.4C1.3,57.0,.0,62.3,.0,62.3C.0,62.3,4.3,34.8,4.9,33.8C5.4,32.9,22.2,1.4,24.5,.0z" transform="translate(96.342600,31.554100)"/><path fill-rule="nonzero" id="shape83" fill="#38434b" d="M6.4,.0C6.4,.0,4.1,8.2,4.9,24.2C4.9,24.2,1.0,46.4,.0,52.3C.0,52.3,.0,24.9,.0,21.7C.0,18.5,.4,7.8,.4,7.8L2.9,7.2C2.9,7.2,4.1,1.8,6.4,.0z" transform="translate(96.342930,41.537300)"/><path fill-rule="nonzero" id="shape84" fill="#624a41" d="M2.8,8.5C2.8,8.5,1.2,6.9,.2,7.3C-0.7,7.7,.7,4.3,6.2,2.3C11.7,.4,11.1,.4,13.7,.0C16.2,-0.4,18.1,.0,20.6,.9C23.7,1.8,24.2,2.7,25.7,3.8C27.5,5.2,29.6,10.2,29.4,14.1C29.2,17.8,29.8,16.9,28.5,20.3C27.3,23.7,27.6,25.6,25.0,26.8C22.4,28.0,20.4,23.1,20.4,23.1C20.4,23.1,13.5,21.2,13.3,21.4C13.1,21.5,9.6,11.5,9.6,11.5L2.8,8.5z" transform="translate(94.420900,0.134500)"/><path fill-rule="nonzero" id="shape85" fill="#fed1b6" d="M5.7,1.8C5.7,1.8,4.1,4.5,3.7,5.2C3.4,6.0,3.5,6.8,3.0,7.9C2.5,9.0,2.5,9.1,3.0,10.7C3.5,12.3,1.5,15.1,.5,16.0C-0.4,17.0,-0.3,18.6,1.5,18.6C3.4,18.6,3.7,19.9,3.7,19.9C3.7,19.9,3.8,20.8,5.4,20.8C6.9,20.8,4.6,22.2,4.6,22.2C4.6,22.2,4.6,23.4,5.4,23.4C6.2,23.4,4.3,25.4,4.6,26.3C4.8,27.3,5.3,29.1,8.6,28.4C11.9,27.7,12.8,28.8,12.8,29.8C12.8,30.8,12.8,31.9,12.8,31.9C12.8,31.9,14.4,33.9,14.8,33.9C15.2,33.8,19.0,29.5,21.8,27.9C24.6,26.3,26.0,25.2,26.4,24.0C26.8,22.9,26.4,21.7,26.4,21.8C26.4,21.8,24.3,20.0,24.0,17.9C23.6,15.7,24.2,14.9,24.6,14.1C24.9,13.2,23.7,8.6,21.2,9.8C18.6,11.0,18.2,13.8,18.0,14.9C17.7,16.0,18.3,16.3,15.6,14.1C15.6,14.1,13.7,10.7,15.3,8.5C16.9,6.3,15.6,3.3,15.6,2.3C15.6,1.3,14.2,.1,11.7,.0C9.3,-0.2,5.7,1.8,5.7,1.8z" transform="translate(92.775400,5.594200)"/><path fill-rule="nonzero" id="shape86" fill="#c6cfdf" d="M18.2,.0C18.2,.0,18.4,1.6,19.8,4.1C19.8,4.1,4.1,30.3,.2,38.5C.2,38.5,-0.9,20.9,1.8,14.1L5.3,10.8L6.6,12.1C6.6,12.1,11.1,6.9,13.3,6.0C15.4,5.2,18.0,3.4,18.2,.0z" transform="translate(101.008420,27.437000)"/><path fill-rule="nonzero" id="shape87" fill="#1f2b34" d="M.0,.8C.0,.8,.3,20.6,.6,22.3C.9,24.1,4.1,45.8,5.2,50.9C6.2,56.1,9.7,64.0,10.0,66.3C10.3,68.5,10.4,68.7,9.5,72.3C8.7,75.9,9.5,85.9,9.5,86.1C9.5,86.2,13.0,85.2,13.5,85.8C14.1,86.3,23.6,88.2,26.1,87.9C26.1,87.9,26.6,90.7,28.0,92.5C29.4,94.2,44.9,96.1,45.7,96.1C46.4,96.1,45.9,91.9,45.4,89.5C44.8,87.0,47.1,86.3,44.1,80.3C44.1,80.3,43.6,76.4,44.3,68.6C45.0,60.7,42.7,43.2,42.4,38.6C42.1,34.0,39.2,21.2,39.7,14.7C40.2,8.2,39.9,4.5,40.5,3.5C40.5,3.5,27.6,1.8,22.4,2.4C17.3,3.0,2.8,1.4,3.0,1.4L2.1,.0L.0,.8z" transform="translate(91.172800,127.405200)"/><path fill-rule="nonzero" id="shape88" fill="#727b77" d="M21.5,.0C21.5,.0,16.9,-0.3,15.9,2.2C14.9,4.7,11.3,6.8,10.0,7.5C8.6,8.3,5.4,10.8,5.8,17.9C6.1,25.0,9.2,31.2,10.6,34.6C12.1,38.0,11.8,47.2,11.6,47.5C11.4,47.8,11.9,47.3,10.9,49.0C10.0,50.6,10.6,50.6,10.6,51.8C10.6,52.9,8.4,56.7,6.7,61.5C5.1,66.2,.4,83.3,.0,88.0C.0,88.0,-0.1,90.1,1.5,90.1C3.0,90.1,3.9,89.7,3.9,89.7C3.9,89.7,2.9,90.5,5.6,90.9C8.2,91.3,19.5,93.7,19.5,93.7C19.5,93.7,24.5,94.3,29.8,93.3C35.0,92.3,38.7,91.8,39.2,91.8C39.7,91.8,41.1,91.8,41.1,89.7C41.1,89.7,40.3,82.7,39.9,75.8C39.9,75.8,43.6,74.7,45.6,75.8C45.6,75.8,45.6,69.4,44.4,65.8C43.2,62.3,43.7,59.8,43.7,59.8C43.7,59.8,40.3,47.7,40.6,46.9C41.0,46.2,40.9,45.1,40.3,44.0C39.6,42.9,42.1,41.5,40.6,38.0C40.6,38.0,43.1,29.7,41.8,26.9C41.8,26.9,41.1,22.7,40.7,20.2C40.4,17.8,39.6,12.8,40.7,10.3C40.7,10.3,41.8,9.6,38.5,7.8C35.3,5.9,32.5,3.3,31.3,1.9L21.5,.0z" transform="translate(0.001300,40.786100)"/><path fill-rule="nonzero" id="shape89" fill="#99a19e" d="M.0,2.7C1.0,3.1,.7,3.3,2.7,6.3C4.8,9.3,9.1,19.1,11.5,22.0C13.9,24.9,19.4,27.2,20.8,28.9C22.1,30.6,24.2,37.1,24.2,37.5C24.2,37.9,24.5,38.7,24.5,38.7C24.5,38.7,25.1,34.1,24.8,32.4C24.5,30.6,21.4,25.6,21.4,25.2C21.4,24.8,7.2,3.2,5.8,.6C5.2,-0.8,.6,.3,.0,2.7z" transform="translate(15.921200,40.284900)"/><path fill-rule="nonzero" id="shape90" fill="#ffffff" d="M9.8,2.6C9.8,2.6,11.1,5.3,11.1,7.0C11.1,8.6,12.1,9.0,12.5,12.8C12.9,16.6,15.8,25.8,15.8,25.8C15.8,25.8,12.5,20.5,10.4,17.1C8.4,13.7,3.3,6.4,1.9,4.1C.6,1.9,.0,.7,.0,.7L1.0,.4C1.0,.4,2.0,-1.1,2.9,1.7C3.8,4.5,9.7,12.0,9.7,12.0C9.7,12.0,10.1,10.2,9.7,6.9C9.2,3.6,9.8,2.6,9.8,2.6z" transform="translate(21.479140,40.103000)"/><path fill-rule="nonzero" id="shape91" fill="#fed1b6" d="M19.2,7.4C19.2,7.4,17.6,10.7,19.2,11.8C20.8,13.0,22.1,14.6,20.7,15.3C19.2,16.0,18.7,15.9,18.7,15.9C18.7,15.9,18.2,16.4,18.7,17.3C19.2,18.1,18.8,18.7,17.8,18.7C16.9,18.7,17.0,19.3,17.5,19.9C18.1,20.5,18.9,21.1,18.2,21.4C17.5,21.7,17.5,22.0,18.1,23.1C18.7,24.2,17.7,25.7,16.6,25.3C14.5,24.6,11.2,24.9,10.4,27.0C9.6,29.0,10.4,32.3,10.4,32.3C10.4,32.3,11.2,34.5,10.2,36.7C10.2,36.7,4.3,28.9,3.7,27.2C3.1,25.4,2.8,24.5,2.2,24.5C1.6,24.5,-0.0,23.1,-0.0,23.1L-0.0,15.9L3.7,7.8L9.9,.6L17.0,.0L20.6,3.6L19.2,7.4z" transform="translate(20.907400,15.725500)"/><path fill-rule="nonzero" id="shape92" fill="#d7b085" d="M24.5,2.5C24.5,2.5,26.4,3.0,27.0,4.0C27.6,4.9,29.4,3.9,30.8,5.9C32.1,7.8,33.9,9.0,31.9,13.1L30.9,13.8C30.9,13.8,31.4,10.7,30.9,10.1C30.3,9.6,29.7,8.9,29.7,10.4C29.7,12.0,30.5,14.5,28.7,9.9C28.7,9.9,28.0,7.8,26.2,8.2C24.3,8.6,22.0,9.8,22.0,10.8C22.0,11.8,22.2,13.7,21.8,14.4C21.4,15.1,21.2,16.8,19.4,16.8C17.5,16.8,16.1,15.5,16.1,17.2C16.1,19.0,16.6,19.5,18.0,20.8C19.4,22.2,18.3,21.5,16.9,22.3C15.5,23.0,12.3,23.3,14.0,25.7C15.6,28.0,14.9,29.2,13.4,28.0C11.9,26.8,14.6,29.2,14.0,29.7C13.4,30.3,14.5,31.7,11.0,31.7C7.4,31.7,6.6,33.6,6.1,31.7C5.6,29.7,3.0,31.1,3.3,28.4C3.7,25.7,1.5,25.6,1.8,23.4C2.1,21.3,-0.7,20.2,.1,17.9C.9,15.6,-0.8,14.0,.7,12.2C2.2,10.3,1.2,6.0,3.9,5.7C6.7,5.4,5.8,2.3,8.2,2.3C10.7,2.3,12.1,-0.5,14.4,.1C16.6,.6,19.5,-0.6,21.0,.8C22.5,2.3,23.3,.2,24.5,2.5z" transform="translate(9.242400,9.267000)"/><path fill-rule="nonzero" id="shape93" fill="#baa38c" d="M3.4,2.1L5.9,.0L7.7,3.0L5.7,5.6L4.5,17.8L.4,25.9L-0.0,16.7C-0.0,16.7,2.2,8.6,3.4,5.1L3.4,2.1z" transform="translate(100.734320,40.137300)"/><path fill-rule="nonzero" id="shape94" fill="#d5dce8" d="M.0,13.0L1.4,16.1C1.4,16.1,7.1,12.7,8.0,11.8C8.9,10.9,10.8,9.0,10.7,9.1C10.7,9.1,13.1,4.6,13.8,4.3L12.1,.0C12.1,.0,12.4,2.5,9.3,4.7C6.0,7.2,6.6,6.1,.0,13.0z" transform="translate(107.047780,27.220720)"/><path fill-rule="nonzero" id="shape95" fill="#c9b7a5" d="M.2,5.1L2.5,5.6C2.5,5.6,1.4,3.6,2.7,-0.0C2.7,-0.0,.4,1.5,.2,2.1C-0.0,2.7,-0.1,5.1,.2,5.1z" transform="translate(103.941620,40.144950)"/><path fill-rule="nonzero" id="shape96" fill="#c5b29e" d="M3.4,.0L.0,11.2L.5,20.4L2.9,16.0L3.4,.0z" transform="translate(100.716130,45.264800)"/><path fill-rule="nonzero" id="shape97" fill="#5a615e" d="M.1,-0.0C.7,-0.0,13.7,2.9,16.5,2.9C19.4,2.9,29.8,2.4,34.6,.9L34.9,3.3C34.9,3.3,28.7,5.6,20.5,4.3C12.3,3.0,7.9,2.8,6.2,2.3C4.4,1.8,1.4,.6,.4,1.3C-0.5,2.0,.4,.1,.1,-0.0z" transform="translate(4.633500,131.651750)"/><path fill-rule="nonzero" id="shape98" fill="#697370" d="M.0,.0C.0,.0,5.6,4.7,5.6,10.6C5.6,16.5,9.4,20.9,10.1,21.9C10.9,23.0,12.0,20.8,12.6,20.2C13.2,19.6,14.0,20.0,15.6,20.5C17.2,21.1,18.7,22.5,18.1,20.2C17.6,17.9,16.8,17.7,17.5,17.7C18.1,17.7,20.8,18.8,22.3,26.4C22.3,26.4,23.5,28.7,21.4,29.3C19.2,29.9,18.6,30.0,20.0,31.3C21.4,32.7,20.0,32.5,20.0,34.1C20.0,35.6,21.1,35.8,18.9,34.9C16.6,34.1,14.7,33.5,14.3,33.5C14.0,33.5,12.0,32.1,12.0,31.6C12.0,31.1,10.7,28.2,10.2,27.7C9.8,27.3,9.7,26.2,9.0,25.2C8.4,24.1,7.9,24.1,7.9,24.1C7.9,24.1,6.9,23.7,7.3,21.4C7.7,19.1,6.3,18.3,5.9,17.3C5.5,16.3,4.9,15.5,4.7,14.6C4.5,13.6,3.4,11.7,3.0,7.8C2.6,3.8,.0,.0,.0,.0zM1.0,38.2C1.0,38.2,2.5,40.3,2.5,42.3C2.5,44.4,2.3,48.7,4.6,53.0C7.2,58.1,1.2,59.6,3.2,64.9C5.2,70.0,.9,69.4,2.2,74.9C3.8,81.3,.4,82.3,.5,82.5C.6,82.7,3.7,83.1,6.3,82.8C8.9,82.5,8.9,82.5,13.2,82.1C18.1,81.7,19.1,80.8,21.6,80.4C24.0,80.0,22.1,76.5,22.1,70.1C22.1,62.9,22.4,48.4,22.4,48.4C17.8,46.3,6.2,42.8,6.2,42.8C4.2,42.3,1.0,38.2,1.0,38.2z" transform="translate(17.865300,51.429400)"/><path fill-rule="nonzero" id="shape99" fill="#646c69" d="M10.5,7.6C10.5,7.6,16.1,15.6,16.8,16.9C17.5,18.3,13.6,14.3,14.4,16.2C15.1,18.2,17.1,19.1,17.5,20.0C18.0,20.8,19.7,21.6,18.6,23.0C17.5,24.5,16.4,26.4,17.5,26.0C18.6,25.7,19.1,24.0,19.6,24.0C20.1,24.0,19.1,26.2,20.2,26.8C21.3,27.4,21.1,28.5,21.6,29.0C22.0,29.4,23.0,29.3,22.8,31.6C22.5,33.9,21.4,34.9,21.1,35.0C20.7,35.1,22.5,35.6,23.5,34.3C24.5,33.0,24.7,35.5,25.8,35.9C26.9,36.2,29.4,36.3,31.2,38.1C33.0,39.8,34.5,38.4,36.1,39.4C37.7,40.4,41.2,40.6,42.7,41.2C44.1,41.8,48.2,43.3,48.2,43.5C48.2,43.8,47.1,52.2,46.5,52.8C45.8,53.5,46.0,53.5,43.6,53.5C41.2,53.5,22.3,46.3,19.0,45.6C15.7,44.8,13.8,41.4,12.9,40.2C12.1,39.0,7.3,29.0,5.6,27.3C3.9,25.6,-1.2,13.3,.2,5.8C.2,5.8,.5,2.8,2.9,.5C2.9,.5,8.6,-2.7,10.5,7.6z" transform="translate(5.513900,48.811600)"/><path fill-rule="nonzero" id="shape100" fill="#616965" d="M40.1,23.3L43.5,24.6C43.5,24.6,44.0,28.4,44.9,31.3C44.9,31.3,46.1,39.0,45.5,40.5C45.5,40.5,43.7,39.5,40.1,40.5C40.1,40.5,40.1,25.0,40.1,23.3zM11.5,12.2C9.0,14.5,10.5,16.9,10.5,16.9C6.5,22.7,1.1,45.6,1.1,45.6C-1.0,53.4,.6,54.9,.6,54.9C.6,56.0,3.8,55.1,3.8,55.1C2.3,55.8,6.4,56.2,8.2,56.2C12.1,56.2,12.0,56.3,13.0,55.7C14.5,54.8,10.9,51.6,13.6,51.1C16.7,50.5,12.8,47.6,12.3,42.7C11.5,35.6,11.5,25.9,12.2,23.8C12.9,21.6,15.4,19.9,14.4,18.2C13.4,16.5,14.0,16.2,14.0,15.5C14.0,14.8,14.6,13.9,14.6,11.6C14.7,5.6,11.0,.0,11.0,.0C11.5,1.9,11.5,12.2,11.5,12.2z" transform="translate(0.126100,75.997700)"/><path fill-rule="nonzero" id="shape101" fill="#111a20" d="M65.0,86.8C65.0,86.8,63.9,98.3,65.0,103.1C65.0,103.1,69.1,134.6,69.1,140.7C69.1,146.9,68.7,163.5,68.7,163.5C68.7,163.5,71.4,165.7,69.8,171.1C69.8,171.1,71.5,178.1,70.3,179.3C70.3,179.3,61.7,178.8,60.1,178.2C58.4,177.7,63.8,173.7,63.8,171.1C63.8,168.6,65.9,168.2,63.8,161.5C61.6,154.7,65.2,146.4,62.7,138.9C60.1,131.5,53.9,127.8,58.3,129.1C62.7,130.4,61.7,127.3,59.7,124.4C57.7,121.5,58.2,121.5,60.1,119.6C62.0,117.7,58.8,113.8,58.3,108.9C57.7,104.0,57.3,95.2,56.4,93.3C55.5,91.4,55.0,85.8,55.0,85.8L63.2,86.6L65.0,86.8zM50.7,171.3C50.7,170.5,46.7,153.1,44.7,148.0C42.7,142.9,39.6,102.0,39.6,99.4C39.6,96.9,35.9,85.4,35.9,85.4C36.9,93.6,34.7,93.3,35.4,98.2C36.1,103.1,34.7,106.9,34.7,112.0C34.7,117.1,37.0,122.4,37.0,128.9C37.0,135.5,39.4,136.9,40.0,141.8C40.5,146.7,37.0,148.6,39.0,154.4C41.1,160.2,41.4,169.8,41.4,169.8C41.4,169.8,50.7,172.0,50.7,171.3zM41.4,169.8C41.4,169.8,41.4,169.8,41.4,169.8C41.4,169.8,41.4,169.8,41.4,169.8zM70.3,27.9C70.3,31.8,70.5,35.8,69.1,37.8C67.6,39.8,67.8,39.9,68.3,45.0C68.9,50.1,66.7,53.8,63.0,61.2C59.4,68.7,54.2,75.4,54.2,75.4C57.5,76.7,60.2,79.6,60.2,79.6C60.2,79.6,61.2,74.3,67.0,62.7C72.9,51.0,72.5,34.3,72.5,34.3C76.9,23.0,75.6,6.1,73.5,2.7C71.3,-0.8,66.7,.0,66.7,.0C69.8,4.8,70.3,27.9,70.3,27.9zM27.5,10.7C27.6,8.2,27.5,6.5,27.4,5.3C27.5,7.1,27.2,9.9,26.0,14.0C24.0,20.7,23.4,23.7,22.4,25.8C21.3,27.9,22.6,34.5,21.8,33.4C21.0,32.2,17.2,32.5,15.1,33.0C12.9,33.5,21.5,35.2,18.7,35.7C15.8,36.2,16.8,38.7,14.3,39.3C11.7,39.9,13.8,42.8,9.6,43.5C5.4,44.1,1.0,48.2,1.0,48.2C1.0,48.2,2.3,50.2,3.0,55.1C3.6,58.8,.0,57.7,.0,57.7C.0,57.7,-0.6,60.1,2.8,59.3C6.1,58.5,18.7,48.2,21.8,45.6C24.0,43.7,24.6,43.7,24.8,43.8C23.9,41.3,24.4,26.2,24.4,25.8C25.4,23.4,27.3,19.3,27.5,10.7zM52.8,17.0C50.8,23.4,51.4,45.0,48.2,49.4C45.0,53.9,40.5,51.8,44.2,53.4C47.8,55.1,47.8,54.5,48.2,57.4C48.6,60.3,44.9,75.1,45.8,73.6C46.7,72.2,56.2,41.6,55.5,40.9C54.8,40.1,55.0,23.8,56.4,15.8C57.9,7.8,61.6,1.0,61.6,1.0C58.1,3.0,54.8,10.7,52.8,17.0zM30.4,46.0C30.3,45.9,30.0,45.6,28.8,56.6C27.9,64.8,28.3,79.4,27.0,82.5C27.0,82.5,26.6,84.6,27.6,84.6C28.7,84.6,28.8,84.6,28.8,84.6C28.8,84.6,28.2,76.7,29.7,56.8C30.3,48.4,30.4,46.3,30.4,46.0zM27.4,5.3C27.3,4.4,27.2,3.8,27.0,3.4C27.1,3.8,27.3,4.4,27.4,5.3zM26.8,3.0C26.9,3.1,26.9,3.2,27.0,3.4C26.7,2.3,26.4,2.6,26.8,3.0zM24.8,43.8C24.8,43.9,24.8,43.9,24.8,44.0C24.8,44.0,24.8,43.9,24.8,43.8zM30.4,46.0C30.4,46.0,30.4,46.0,30.4,46.0C30.4,46.0,30.4,46.0,30.4,46.0z" transform="translate(66.534400,44.245300)"/><path fill-rule="nonzero" id="shape102" fill="#fed1b6" d="M5.0,.0C5.0,.0,4.0,2.0,3.3,3.1C2.6,4.2,2.6,5.9,2.2,7.5C1.9,9.0,.9,10.3,.2,10.7C-0.5,11.1,.6,13.3,2.0,12.4C3.3,11.5,3.3,10.7,3.3,10.7C3.3,10.7,3.4,12.0,3.4,13.0C3.4,14.0,4.0,18.4,4.5,18.9C5.0,19.4,6.7,19.2,6.7,18.3C6.7,17.5,7.9,20.3,9.3,18.9C10.9,17.3,10.1,17.7,10.1,17.7C10.1,17.7,11.9,19.7,12.5,16.3C12.6,15.4,13.2,15.5,13.6,15.9C14.0,16.3,15.7,15.8,16.3,13.8C16.5,13.0,16.5,10.8,16.3,9.9C15.8,7.2,16.9,4.9,16.6,4.7C16.3,4.6,14.9,1.1,5.0,.0z" transform="translate(110.181180,118.671150)"/><path fill-rule="nonzero" id="shape103" fill="#000000" d="M13.3,17.0C17.2,17.0,16.5,14.6,16.6,14.5C16.7,14.3,18.4,17.7,19.3,19.3C20.2,20.9,19.3,22.1,18.4,22.1C17.6,22.1,10.0,21.8,7.8,20.5C5.6,19.2,5.9,17.7,5.9,17.7L5.2,17.0L5.2,18.4L3.3,18.4C3.3,18.4,3.0,18.8,2.7,15.7C2.4,12.6,.0,10.3,.0,8.0C.0,5.8,1.3,3.9,1.3,3.9C2.1,11.7,9.4,17.0,13.3,17.0zM16.4,.0C16.4,.0,14.5,1.9,15.3,6.0C15.3,6.0,16.4,9.7,17.9,11.2C19.5,12.8,19.1,14.3,19.1,14.3L20.9,14.4L20.9,12.7C20.9,12.7,23.3,10.0,24.1,10.4C24.9,10.8,26.6,12.6,27.2,14.4C27.8,16.3,32.2,16.3,33.0,16.3C33.8,16.3,39.1,16.0,39.1,16.0C39.1,16.0,42.0,14.4,39.4,12.9C36.9,11.4,33.8,9.7,33.8,9.7C33.8,9.7,35.3,12.3,29.2,10.1C29.2,10.1,23.2,7.6,16.4,.0z" stroke-width="1" stroke="#000000" transform="translate(3.821300,204.150000)"/></g><g id="group104" transform="translate(858.000000,0.000018)"><path fill-rule="nonzero" id="shape105" fill="#000000" d="M.8,.6C1.1,.6,7.6,-3.8,8.2,10.5C8.2,10.5,6.5,14.7,3.5,13.8C3.5,13.8,-2.1,2.6,.8,.6z" stroke-width="1" stroke="#000000" transform="translate(63.112760,88.831680)"/><path fill-rule="nonzero" id="shape106" fill="#fec6a5" d="M.0,12.4C.0,12.4,2.0,9.7,2.6,9.4C3.3,9.2,4.8,10.1,4.0,10.9C3.2,11.6,2.4,13.5,2.4,13.5C2.4,13.5,4.4,10.3,5.6,10.0C6.7,9.8,7.3,10.5,6.4,11.8C5.6,13.2,5.1,14.4,5.1,14.4C5.1,14.4,7.0,12.5,7.5,11.6C8.0,10.8,9.5,10.7,9.5,11.8C9.5,13.0,9.2,13.8,8.6,14.4C8.0,14.9,7.9,15.4,6.7,15.4C5.6,15.4,.0,14.2,.0,12.4zM14.1,.0L11.5,1.6C10.7,1.0,6.7,1.1,6.7,1.1C.6,2.4,.6,3.5,.6,3.5C8.6,.6,9.0,2.3,9.0,3.5C9.0,4.7,11.2,6.1,11.2,6.1L14.9,8.9L17.9,7.1C18.2,3.0,14.1,.0,14.1,.0z" transform="translate(53.188910,89.072450)"/><path fill-rule="nonzero" id="shape107" fill="#fed1b6" d="M5.1,25.7C5.7,26.5,7.7,29.4,7.7,29.4C7.7,29.4,7.4,33.7,6.3,35.8C5.1,37.8,.9,38.6,.9,38.6C.4,36.7,.1,33.3,.1,33.3C1.1,32.3,1.2,29.7,.6,29.1C-0.0,28.5,.0,25.9,.0,25.9C3.0,24.6,5.1,25.7,5.1,25.7zM12.2,10.3C13.7,12.4,18.4,12.6,21.3,13.6C24.1,14.5,23.8,13.3,23.8,13.3C26.9,13.8,24.3,11.5,25.8,11.5C26.8,11.5,27.0,10.6,27.0,10.3C27.1,10.6,28.2,10.6,28.7,9.8C29.2,8.9,27.8,7.2,27.8,7.2C27.8,7.2,25.9,5.7,23.8,4.0C21.7,2.4,22.1,1.9,22.1,1.9C22.2,-2.2,13.6,1.7,13.6,1.7C13.6,2.3,12.2,10.3,12.2,10.3zM26.9,10.2C26.9,10.2,26.9,10.2,27.0,10.3C27.0,10.1,26.9,10.1,26.9,10.2z" transform="translate(40.106900,90.649100)"/><path fill-rule="nonzero" id="shape108" fill="#fed1b6" d="M25.0,8.3C27.2,8.3,35.0,7.0,35.0,7.0C32.0,12.2,30.0,22.9,30.0,22.9C30.0,28.5,27.2,32.9,27.2,32.9C27.2,35.5,26.6,48.5,25.9,52.5C25.1,56.5,25.9,67.2,25.9,67.2C26.9,69.2,26.9,71.8,26.9,71.8C28.9,77.0,34.2,80.8,34.2,80.8C34.2,80.8,35.6,83.3,30.0,81.5C24.4,79.7,16.9,71.1,16.9,71.1C16.9,71.1,18.3,63.2,16.4,56.0C14.4,48.9,13.8,39.3,13.8,39.3C14.0,39.0,14.2,38.6,14.4,38.3C14.1,38.9,13.8,39.2,13.8,39.3C13.7,39.6,10.5,53.6,10.5,64.5C10.5,75.4,13.3,80.9,15.6,83.8C18.0,86.7,16.5,87.2,16.5,87.2C14.3,88.9,10.1,88.0,6.2,84.5C2.3,81.1,1.7,74.9,1.7,74.9C1.7,74.9,2.5,72.9,2.9,70.7C3.4,68.5,.4,55.9,.0,47.2C-0.3,38.4,2.5,33.6,4.4,27.5C6.4,21.5,3.6,8.7,3.6,8.7C4.6,9.2,4.4,9.4,5.4,8.5C6.4,7.5,7.2,.0,7.2,.0C7.6,6.3,8.8,7.8,8.8,7.8C10.3,8.7,21.6,8.8,21.6,8.8C22.1,8.8,23.4,8.3,25.0,8.3zM17.7,32.1C19.3,28.1,18.8,26.3,18.8,26.3C18.8,28.3,18.3,30.3,17.7,32.1zM18.8,26.3C18.8,26.3,18.8,26.3,18.8,26.3z" transform="translate(3.397300,133.087100)"/><path fill-rule="nonzero" id="shape109" fill="#000000" d="M48.6,10.8C50.0,16.4,48.6,16.4,48.6,16.4L45.1,17.7L44.8,16.9C44.8,16.9,43.9,15.9,42.9,18.0C41.8,20.2,35.2,20.8,31.5,21.1C27.9,21.3,23.4,22.0,23.0,18.7C22.5,15.4,24.1,15.0,25.1,14.3C26.0,13.7,29.5,9.8,31.0,8.2C30.4,8.4,29.6,8.6,28.7,8.6C27.2,8.6,26.8,6.9,15.5,8.6C4.3,10.4,.6,7.3,.6,7.3C-0.8,5.7,.6,5.1,.6,5.1C1.5,2.5,4.0,2.5,6.8,2.2C9.5,1.9,12.4,.8,12.4,.8C17.7,-1.0,18.9,.9,20.2,1.0C21.6,1.1,28.9,2.8,28.9,2.8C29.1,4.4,30.8,7.0,31.4,7.7C31.5,7.6,31.5,7.6,31.5,7.6C32.6,8.6,48.6,10.8,48.6,10.8z" stroke-width="1" stroke="#000000" transform="translate(88.302100,212.684200)"/><path fill-rule="nonzero" id="shape110" fill="#727b77" d="M.4,-0.0C.4,-0.0,.0,9.9,.0,10.3C.0,10.7,3.2,11.3,4.4,10.3C5.6,9.3,6.2,1.4,6.2,1.4C6.2,1.4,6.8,9.6,7.8,9.9C8.8,10.3,21.3,11.1,24.4,10.3C27.4,9.4,33.3,9.0,34.6,9.0C36.0,9.0,35.0,4.3,34.8,.9L.4,-0.0z" transform="translate(4.393000,131.633190)"/><path fill-rule="nonzero" id="shape111" fill="#1f2b34" d="M38.8,5.0C38.8,5.0,30.4,8.6,29.3,10.6C28.1,12.5,27.3,14.0,27.8,16.0C28.3,18.0,26.8,16.3,26.8,22.2C26.8,22.2,23.0,26.9,23.6,30.2C23.6,30.2,22.4,31.9,22.4,33.9C22.4,35.8,19.7,34.6,18.6,36.3C17.6,37.9,19.1,37.9,17.7,39.1C16.2,40.3,14.3,39.7,12.9,42.9C11.4,46.1,10.2,45.4,8.6,46.9C6.9,48.3,1.5,51.5,.0,53.0C.0,53.0,2.0,52.7,3.6,55.9C4.9,58.5,5.2,60.0,5.5,62.2C5.7,63.9,5.5,67.2,4.0,66.6C2.5,65.9,2.5,65.7,2.5,65.7C2.5,65.7,3.6,68.2,6.4,66.6C9.3,64.9,25.6,52.6,26.0,52.1C26.5,51.6,27.7,51.2,27.7,53.0C27.7,53.0,28.0,57.8,28.0,59.7C28.0,61.5,26.7,63.5,26.7,65.1C26.7,66.8,28.6,66.8,28.3,68.3C28.0,69.9,26.7,70.1,26.7,73.4C26.7,76.7,26.1,90.5,26.4,91.2C26.7,91.9,29.1,91.5,29.4,91.2C29.7,90.9,29.8,92.4,29.8,92.4C29.8,92.4,42.2,93.8,46.4,93.4C50.6,93.0,67.1,94.0,68.2,94.5C69.3,94.9,73.1,95.1,73.1,94.5C73.1,93.9,70.7,73.8,70.0,71.3C69.2,68.8,74.4,57.8,75.0,44.2C75.0,44.2,75.5,40.3,76.5,37.1C77.5,33.9,79.2,18.5,76.5,11.4C76.5,11.4,74.9,5.9,59.8,.0L38.8,5.0z" stroke-width="1" stroke="#1f2b34" transform="translate(63.931800,36.487400)"/><path fill-rule="nonzero" id="shape112" fill="#29353e" d="M24.5,.0C24.5,.0,27.0,3.6,27.4,4.9C27.8,6.3,23.8,13.5,21.7,15.9L24.3,17.2C24.3,17.2,24.7,17.2,22.8,19.2C21.0,21.2,8.4,41.7,4.9,49.4C1.3,57.0,.0,62.3,.0,62.3C.0,62.3,4.3,34.8,4.9,33.8C5.4,32.9,22.2,1.4,24.5,.0z" transform="translate(96.342600,31.554100)"/><path fill-rule="nonzero" id="shape113" fill="#38434b" d="M6.4,.0C6.4,.0,4.1,8.2,4.9,24.2C4.9,24.2,1.0,46.4,.0,52.3C.0,52.3,.0,24.9,.0,21.7C.0,18.5,.4,7.8,.4,7.8L2.9,7.2C2.9,7.2,4.1,1.8,6.4,.0z" transform="translate(96.342930,41.537300)"/><path fill-rule="nonzero" id="shape114" fill="#624a41" d="M2.8,8.5C2.8,8.5,1.2,6.9,.2,7.3C-0.7,7.7,.7,4.3,6.2,2.3C11.7,.4,11.1,.4,13.7,.0C16.2,-0.4,18.1,.0,20.6,.9C23.7,1.8,24.2,2.7,25.7,3.8C27.5,5.2,29.6,10.2,29.4,14.1C29.2,17.8,29.8,16.9,28.5,20.3C27.3,23.7,27.6,25.6,25.0,26.8C22.4,28.0,20.4,23.1,20.4,23.1C20.4,23.1,13.5,21.2,13.3,21.4C13.1,21.5,9.6,11.5,9.6,11.5L2.8,8.5z" transform="translate(94.420900,0.134500)"/><path fill-rule="nonzero" id="shape115" fill="#fed1b6" d="M5.7,1.8C5.7,1.8,4.1,4.5,3.7,5.2C3.4,6.0,3.5,6.8,3.0,7.9C2.5,9.0,2.5,9.1,3.0,10.7C3.5,12.3,1.5,15.1,.5,16.0C-0.4,17.0,-0.3,18.6,1.5,18.6C3.4,18.6,3.7,19.9,3.7,19.9C3.7,19.9,3.8,20.8,5.4,20.8C6.9,20.8,4.6,22.2,4.6,22.2C4.6,22.2,4.6,23.4,5.4,23.4C6.2,23.4,4.3,25.4,4.6,26.3C4.8,27.3,5.3,29.1,8.6,28.4C11.9,27.7,12.8,28.8,12.8,29.8C12.8,30.8,12.8,31.9,12.8,31.9C12.8,31.9,14.4,33.9,14.8,33.9C15.2,33.8,19.0,29.5,21.8,27.9C24.6,26.3,26.0,25.2,26.4,24.0C26.8,22.9,26.4,21.7,26.4,21.8C26.4,21.8,24.3,20.0,24.0,17.9C23.6,15.7,24.2,14.9,24.6,14.1C24.9,13.2,23.7,8.6,21.2,9.8C18.6,11.0,18.2,13.8,18.0,14.9C17.7,16.0,18.3,16.3,15.6,14.1C15.6,14.1,13.7,10.7,15.3,8.5C16.9,6.3,15.6,3.3,15.6,2.3C15.6,1.3,14.2,.1,11.7,.0C9.3,-0.2,5.7,1.8,5.7,1.8z" transform="translate(92.775400,5.594200)"/><path fill-rule="nonzero" id="shape116" fill="#c6cfdf" d="M18.2,.0C18.2,.0,18.4,1.6,19.8,4.1C19.8,4.1,4.1,30.3,.2,38.5C.2,38.5,-0.9,20.9,1.8,14.1L5.3,10.8L6.6,12.1C6.6,12.1,11.1,6.9,13.3,6.0C15.4,5.2,18.0,3.4,18.2,.0z" transform="translate(101.008420,27.437000)"/><path fill-rule="nonzero" id="shape117" fill="#1f2b34" d="M.0,.8C.0,.8,.3,20.6,.6,22.3C.9,24.1,4.1,45.8,5.2,50.9C6.2,56.1,9.7,64.0,10.0,66.3C10.3,68.5,10.4,68.7,9.5,72.3C8.7,75.9,9.5,85.9,9.5,86.1C9.5,86.2,13.0,85.2,13.5,85.8C14.1,86.3,23.6,88.2,26.1,87.9C26.1,87.9,26.6,90.7,28.0,92.5C29.4,94.2,44.9,96.1,45.7,96.1C46.4,96.1,45.9,91.9,45.4,89.5C44.8,87.0,47.1,86.3,44.1,80.3C44.1,80.3,43.6,76.4,44.3,68.6C45.0,60.7,42.7,43.2,42.4,38.6C42.1,34.0,39.2,21.2,39.7,14.7C40.2,8.2,39.9,4.5,40.5,3.5C40.5,3.5,27.6,1.8,22.4,2.4C17.3,3.0,2.8,1.4,3.0,1.4L2.1,.0L.0,.8z" transform="translate(91.172800,127.405200)"/><path fill-rule="nonzero" id="shape118" fill="#727b77" d="M21.5,.0C21.5,.0,16.9,-0.3,15.9,2.2C14.9,4.7,11.3,6.8,10.0,7.5C8.6,8.3,5.4,10.8,5.8,17.9C6.1,25.0,9.2,31.2,10.6,34.6C12.1,38.0,11.8,47.2,11.6,47.5C11.4,47.8,11.9,47.3,10.9,49.0C10.0,50.6,10.6,50.6,10.6,51.8C10.6,52.9,8.4,56.7,6.7,61.5C5.1,66.2,.4,83.3,.0,88.0C.0,88.0,-0.1,90.1,1.5,90.1C3.0,90.1,3.9,89.7,3.9,89.7C3.9,89.7,2.9,90.5,5.6,90.9C8.2,91.3,19.5,93.7,19.5,93.7C19.5,93.7,24.5,94.3,29.8,93.3C35.0,92.3,38.7,91.8,39.2,91.8C39.7,91.8,41.1,91.8,41.1,89.7C41.1,89.7,40.3,82.7,39.9,75.8C39.9,75.8,43.6,74.7,45.6,75.8C45.6,75.8,45.6,69.4,44.4,65.8C43.2,62.3,43.7,59.8,43.7,59.8C43.7,59.8,40.3,47.7,40.6,46.9C41.0,46.2,40.9,45.1,40.3,44.0C39.6,42.9,42.1,41.5,40.6,38.0C40.6,38.0,43.1,29.7,41.8,26.9C41.8,26.9,41.1,22.7,40.7,20.2C40.4,17.8,39.6,12.8,40.7,10.3C40.7,10.3,41.8,9.6,38.5,7.8C35.3,5.9,32.5,3.3,31.3,1.9L21.5,.0z" transform="translate(0.001300,40.786100)"/><path fill-rule="nonzero" id="shape119" fill="#99a19e" d="M.0,2.7C1.0,3.1,.7,3.3,2.7,6.3C4.8,9.3,9.1,19.1,11.5,22.0C13.9,24.9,19.4,27.2,20.8,28.9C22.1,30.6,24.2,37.1,24.2,37.5C24.2,37.9,24.5,38.7,24.5,38.7C24.5,38.7,25.1,34.1,24.8,32.4C24.5,30.6,21.4,25.6,21.4,25.2C21.4,24.8,7.2,3.2,5.8,.6C5.2,-0.8,.6,.3,.0,2.7z" transform="translate(15.921200,40.284900)"/><path fill-rule="nonzero" id="shape120" fill="#ffffff" d="M9.8,2.6C9.8,2.6,11.1,5.3,11.1,7.0C11.1,8.6,12.1,9.0,12.5,12.8C12.9,16.6,15.8,25.8,15.8,25.8C15.8,25.8,12.5,20.5,10.4,17.1C8.4,13.7,3.3,6.4,1.9,4.1C.6,1.9,.0,.7,.0,.7L1.0,.4C1.0,.4,2.0,-1.1,2.9,1.7C3.8,4.5,9.7,12.0,9.7,12.0C9.7,12.0,10.1,10.2,9.7,6.9C9.2,3.6,9.8,2.6,9.8,2.6z" transform="translate(21.479140,40.103000)"/><path fill-rule="nonzero" id="shape121" fill="#fed1b6" d="M19.2,7.4C19.2,7.4,17.6,10.7,19.2,11.8C20.8,13.0,22.1,14.6,20.7,15.3C19.2,16.0,18.7,15.9,18.7,15.9C18.7,15.9,18.2,16.4,18.7,17.3C19.2,18.1,18.8,18.7,17.8,18.7C16.9,18.7,17.0,19.3,17.5,19.9C18.1,20.5,18.9,21.1,18.2,21.4C17.5,21.7,17.5,22.0,18.1,23.1C18.7,24.2,17.7,25.7,16.6,25.3C14.5,24.6,11.2,24.9,10.4,27.0C9.6,29.0,10.4,32.3,10.4,32.3C10.4,32.3,11.2,34.5,10.2,36.7C10.2,36.7,4.3,28.9,3.7,27.2C3.1,25.4,2.8,24.5,2.2,24.5C1.6,24.5,-0.0,23.1,-0.0,23.1L-0.0,15.9L3.7,7.8L9.9,.6L17.0,.0L20.6,3.6L19.2,7.4z" transform="translate(20.907400,15.725500)"/><path fill-rule="nonzero" id="shape122" fill="#d7b085" d="M24.5,2.5C24.5,2.5,26.4,3.0,27.0,4.0C27.6,4.9,29.4,3.9,30.8,5.9C32.1,7.8,33.9,9.0,31.9,13.1L30.9,13.8C30.9,13.8,31.4,10.7,30.9,10.1C30.3,9.6,29.7,8.9,29.7,10.4C29.7,12.0,30.5,14.5,28.7,9.9C28.7,9.9,28.0,7.8,26.2,8.2C24.3,8.6,22.0,9.8,22.0,10.8C22.0,11.8,22.2,13.7,21.8,14.4C21.4,15.1,21.2,16.8,19.4,16.8C17.5,16.8,16.1,15.5,16.1,17.2C16.1,19.0,16.6,19.5,18.0,20.8C19.4,22.2,18.3,21.5,16.9,22.3C15.5,23.0,12.3,23.3,14.0,25.7C15.6,28.0,14.9,29.2,13.4,28.0C11.9,26.8,14.6,29.2,14.0,29.7C13.4,30.3,14.5,31.7,11.0,31.7C7.4,31.7,6.6,33.6,6.1,31.7C5.6,29.7,3.0,31.1,3.3,28.4C3.7,25.7,1.5,25.6,1.8,23.4C2.1,21.3,-0.7,20.2,.1,17.9C.9,15.6,-0.8,14.0,.7,12.2C2.2,10.3,1.2,6.0,3.9,5.7C6.7,5.4,5.8,2.3,8.2,2.3C10.7,2.3,12.1,-0.5,14.4,.1C16.6,.6,19.5,-0.6,21.0,.8C22.5,2.3,23.3,.2,24.5,2.5z" transform="translate(9.242400,9.267000)"/><path fill-rule="nonzero" id="shape123" fill="#baa38c" d="M3.4,2.1L5.9,.0L7.7,3.0L5.7,5.6L4.5,17.8L.4,25.9L-0.0,16.7C-0.0,16.7,2.2,8.6,3.4,5.1L3.4,2.1z" transform="translate(100.734320,40.137300)"/><path fill-rule="nonzero" id="shape124" fill="#d5dce8" d="M.0,13.0L1.4,16.1C1.4,16.1,7.1,12.7,8.0,11.8C8.9,10.9,10.8,9.0,10.7,9.1C10.7,9.1,13.1,4.6,13.8,4.3L12.1,.0C12.1,.0,12.4,2.5,9.3,4.7C6.0,7.2,6.6,6.1,.0,13.0z" transform="translate(107.047780,27.220720)"/><path fill-rule="nonzero" id="shape125" fill="#c9b7a5" d="M.2,5.1L2.5,5.6C2.5,5.6,1.4,3.6,2.7,-0.0C2.7,-0.0,.4,1.5,.2,2.1C-0.0,2.7,-0.1,5.1,.2,5.1z" transform="translate(103.941620,40.144950)"/><path fill-rule="nonzero" id="shape126" fill="#c5b29e" d="M3.4,.0L.0,11.2L.5,20.4L2.9,16.0L3.4,.0z" transform="translate(100.716130,45.264800)"/><path fill-rule="nonzero" id="shape127" fill="#5a615e" d="M.1,-0.0C.7,-0.0,13.7,2.9,16.5,2.9C19.4,2.9,29.8,2.4,34.6,.9L34.9,3.3C34.9,3.3,28.7,5.6,20.5,4.3C12.3,3.0,7.9,2.8,6.2,2.3C4.4,1.8,1.4,.6,.4,1.3C-0.5,2.0,.4,.1,.1,-0.0z" transform="translate(4.633500,131.651750)"/><path fill-rule="nonzero" id="shape128" fill="#697370" d="M.0,.0C.0,.0,5.6,4.7,5.6,10.6C5.6,16.5,9.4,20.9,10.1,21.9C10.9,23.0,12.0,20.8,12.6,20.2C13.2,19.6,14.0,20.0,15.6,20.5C17.2,21.1,18.7,22.5,18.1,20.2C17.6,17.9,16.8,17.7,17.5,17.7C18.1,17.7,20.8,18.8,22.3,26.4C22.3,26.4,23.5,28.7,21.4,29.3C19.2,29.9,18.6,30.0,20.0,31.3C21.4,32.7,20.0,32.5,20.0,34.1C20.0,35.6,21.1,35.8,18.9,34.9C16.6,34.1,14.7,33.5,14.3,33.5C14.0,33.5,12.0,32.1,12.0,31.6C12.0,31.1,10.7,28.2,10.2,27.7C9.8,27.3,9.7,26.2,9.0,25.2C8.4,24.1,7.9,24.1,7.9,24.1C7.9,24.1,6.9,23.7,7.3,21.4C7.7,19.1,6.3,18.3,5.9,17.3C5.5,16.3,4.9,15.5,4.7,14.6C4.5,13.6,3.4,11.7,3.0,7.8C2.6,3.8,.0,.0,.0,.0zM1.0,38.2C1.0,38.2,2.5,40.3,2.5,42.3C2.5,44.4,2.3,48.7,4.6,53.0C7.2,58.1,1.2,59.6,3.2,64.9C5.2,70.0,.9,69.4,2.2,74.9C3.8,81.3,.4,82.3,.5,82.5C.6,82.7,3.7,83.1,6.3,82.8C8.9,82.5,8.9,82.5,13.2,82.1C18.1,81.7,19.1,80.8,21.6,80.4C24.0,80.0,22.1,76.5,22.1,70.1C22.1,62.9,22.4,48.4,22.4,48.4C17.8,46.3,6.2,42.8,6.2,42.8C4.2,42.3,1.0,38.2,1.0,38.2z" transform="translate(17.865300,51.429400)"/><path fill-rule="nonzero" id="shape129" fill="#646c69" d="M10.5,7.6C10.5,7.6,16.1,15.6,16.8,16.9C17.5,18.3,13.6,14.3,14.4,16.2C15.1,18.2,17.1,19.1,17.5,20.0C18.0,20.8,19.7,21.6,18.6,23.0C17.5,24.5,16.4,26.4,17.5,26.0C18.6,25.7,19.1,24.0,19.6,24.0C20.1,24.0,19.1,26.2,20.2,26.8C21.3,27.4,21.1,28.5,21.6,29.0C22.0,29.4,23.0,29.3,22.8,31.6C22.5,33.9,21.4,34.9,21.1,35.0C20.7,35.1,22.5,35.6,23.5,34.3C24.5,33.0,24.7,35.5,25.8,35.9C26.9,36.2,29.4,36.3,31.2,38.1C33.0,39.8,34.5,38.4,36.1,39.4C37.7,40.4,41.2,40.6,42.7,41.2C44.1,41.8,48.2,43.3,48.2,43.5C48.2,43.8,47.1,52.2,46.5,52.8C45.8,53.5,46.0,53.5,43.6,53.5C41.2,53.5,22.3,46.3,19.0,45.6C15.7,44.8,13.8,41.4,12.9,40.2C12.1,39.0,7.3,29.0,5.6,27.3C3.9,25.6,-1.2,13.3,.2,5.8C.2,5.8,.5,2.8,2.9,.5C2.9,.5,8.6,-2.7,10.5,7.6z" transform="translate(5.513900,48.811600)"/><path fill-rule="nonzero" id="shape130" fill="#616965" d="M40.1,23.3L43.5,24.6C43.5,24.6,44.0,28.4,44.9,31.3C44.9,31.3,46.1,39.0,45.5,40.5C45.5,40.5,43.7,39.5,40.1,40.5C40.1,40.5,40.1,25.0,40.1,23.3zM11.5,12.2C9.0,14.5,10.5,16.9,10.5,16.9C6.5,22.7,1.1,45.6,1.1,45.6C-1.0,53.4,.6,54.9,.6,54.9C.6,56.0,3.8,55.1,3.8,55.1C2.3,55.8,6.4,56.2,8.2,56.2C12.1,56.2,12.0,56.3,13.0,55.7C14.5,54.8,10.9,51.6,13.6,51.1C16.7,50.5,12.8,47.6,12.3,42.7C11.5,35.6,11.5,25.9,12.2,23.8C12.9,21.6,15.4,19.9,14.4,18.2C13.4,16.5,14.0,16.2,14.0,15.5C14.0,14.8,14.6,13.9,14.6,11.6C14.7,5.6,11.0,.0,11.0,.0C11.5,1.9,11.5,12.2,11.5,12.2z" transform="translate(0.126100,75.997700)"/><path fill-rule="nonzero" id="shape131" fill="#111a20" d="M65.0,86.8C65.0,86.8,63.9,98.3,65.0,103.1C65.0,103.1,69.1,134.6,69.1,140.7C69.1,146.9,68.7,163.5,68.7,163.5C68.7,163.5,71.4,165.7,69.8,171.1C69.8,171.1,71.5,178.1,70.3,179.3C70.3,179.3,61.7,178.8,60.1,178.2C58.4,177.7,63.8,173.7,63.8,171.1C63.8,168.6,65.9,168.2,63.8,161.5C61.6,154.7,65.2,146.4,62.7,138.9C60.1,131.5,53.9,127.8,58.3,129.1C62.7,130.4,61.7,127.3,59.7,124.4C57.7,121.5,58.2,121.5,60.1,119.6C62.0,117.7,58.8,113.8,58.3,108.9C57.7,104.0,57.3,95.2,56.4,93.3C55.5,91.4,55.0,85.8,55.0,85.8L63.2,86.6L65.0,86.8zM50.7,171.3C50.7,170.5,46.7,153.1,44.7,148.0C42.7,142.9,39.6,102.0,39.6,99.4C39.6,96.9,35.9,85.4,35.9,85.4C36.9,93.6,34.7,93.3,35.4,98.2C36.1,103.1,34.7,106.9,34.7,112.0C34.7,117.1,37.0,122.4,37.0,128.9C37.0,135.5,39.4,136.9,40.0,141.8C40.5,146.7,37.0,148.6,39.0,154.4C41.1,160.2,41.4,169.8,41.4,169.8C41.4,169.8,50.7,172.0,50.7,171.3zM41.4,169.8C41.4,169.8,41.4,169.8,41.4,169.8C41.4,169.8,41.4,169.8,41.4,169.8zM70.3,27.9C70.3,31.8,70.5,35.8,69.1,37.8C67.6,39.8,67.8,39.9,68.3,45.0C68.9,50.1,66.7,53.8,63.0,61.2C59.4,68.7,54.2,75.4,54.2,75.4C57.5,76.7,60.2,79.6,60.2,79.6C60.2,79.6,61.2,74.3,67.0,62.7C72.9,51.0,72.5,34.3,72.5,34.3C76.9,23.0,75.6,6.1,73.5,2.7C71.3,-0.8,66.7,.0,66.7,.0C69.8,4.8,70.3,27.9,70.3,27.9zM27.5,10.7C27.6,8.2,27.5,6.5,27.4,5.3C27.5,7.1,27.2,9.9,26.0,14.0C24.0,20.7,23.4,23.7,22.4,25.8C21.3,27.9,22.6,34.5,21.8,33.4C21.0,32.2,17.2,32.5,15.1,33.0C12.9,33.5,21.5,35.2,18.7,35.7C15.8,36.2,16.8,38.7,14.3,39.3C11.7,39.9,13.8,42.8,9.6,43.5C5.4,44.1,1.0,48.2,1.0,48.2C1.0,48.2,2.3,50.2,3.0,55.1C3.6,58.8,.0,57.7,.0,57.7C.0,57.7,-0.6,60.1,2.8,59.3C6.1,58.5,18.7,48.2,21.8,45.6C24.0,43.7,24.6,43.7,24.8,43.8C23.9,41.3,24.4,26.2,24.4,25.8C25.4,23.4,27.3,19.3,27.5,10.7zM52.8,17.0C50.8,23.4,51.4,45.0,48.2,49.4C45.0,53.9,40.5,51.8,44.2,53.4C47.8,55.1,47.8,54.5,48.2,57.4C48.6,60.3,44.9,75.1,45.8,73.6C46.7,72.2,56.2,41.6,55.5,40.9C54.8,40.1,55.0,23.8,56.4,15.8C57.9,7.8,61.6,1.0,61.6,1.0C58.1,3.0,54.8,10.7,52.8,17.0zM30.4,46.0C30.3,45.9,30.0,45.6,28.8,56.6C27.9,64.8,28.3,79.4,27.0,82.5C27.0,82.5,26.6,84.6,27.6,84.6C28.7,84.6,28.8,84.6,28.8,84.6C28.8,84.6,28.2,76.7,29.7,56.8C30.3,48.4,30.4,46.3,30.4,46.0zM27.4,5.3C27.3,4.4,27.2,3.8,27.0,3.4C27.1,3.8,27.3,4.4,27.4,5.3zM26.8,3.0C26.9,3.1,26.9,3.2,27.0,3.4C26.7,2.3,26.4,2.6,26.8,3.0zM24.8,43.8C24.8,43.9,24.8,43.9,24.8,44.0C24.8,44.0,24.8,43.9,24.8,43.8zM30.4,46.0C30.4,46.0,30.4,46.0,30.4,46.0C30.4,46.0,30.4,46.0,30.4,46.0z" transform="translate(66.534400,44.245300)"/><path fill-rule="nonzero" id="shape132" fill="#fed1b6" d="M5.0,.0C5.0,.0,4.0,2.0,3.3,3.1C2.6,4.2,2.6,5.9,2.2,7.5C1.9,9.0,.9,10.3,.2,10.7C-0.5,11.1,.6,13.3,2.0,12.4C3.3,11.5,3.3,10.7,3.3,10.7C3.3,10.7,3.4,12.0,3.4,13.0C3.4,14.0,4.0,18.4,4.5,18.9C5.0,19.4,6.7,19.2,6.7,18.3C6.7,17.5,7.9,20.3,9.3,18.9C10.9,17.3,10.1,17.7,10.1,17.7C10.1,17.7,11.9,19.7,12.5,16.3C12.6,15.4,13.2,15.5,13.6,15.9C14.0,16.3,15.7,15.8,16.3,13.8C16.5,13.0,16.5,10.8,16.3,9.9C15.8,7.2,16.9,4.9,16.6,4.7C16.3,4.6,14.9,1.1,5.0,.0z" transform="translate(110.181180,118.671150)"/><path fill-rule="nonzero" id="shape133" fill="#000000" d="M13.3,17.0C17.2,17.0,16.5,14.6,16.6,14.5C16.7,14.3,18.4,17.7,19.3,19.3C20.2,20.9,19.3,22.1,18.4,22.1C17.6,22.1,10.0,21.8,7.8,20.5C5.6,19.2,5.9,17.7,5.9,17.7L5.2,17.0L5.2,18.4L3.3,18.4C3.3,18.4,3.0,18.8,2.7,15.7C2.4,12.6,.0,10.3,.0,8.0C.0,5.8,1.3,3.9,1.3,3.9C2.1,11.7,9.4,17.0,13.3,17.0zM16.4,.0C16.4,.0,14.5,1.9,15.3,6.0C15.3,6.0,16.4,9.7,17.9,11.2C19.5,12.8,19.1,14.3,19.1,14.3L20.9,14.4L20.9,12.7C20.9,12.7,23.3,10.0,24.1,10.4C24.9,10.8,26.6,12.6,27.2,14.4C27.8,16.3,32.2,16.3,33.0,16.3C33.8,16.3,39.1,16.0,39.1,16.0C39.1,16.0,42.0,14.4,39.4,12.9C36.9,11.4,33.8,9.7,33.8,9.7C33.8,9.7,35.3,12.3,29.2,10.1C29.2,10.1,23.2,7.6,16.4,.0z" stroke-width="1" stroke="#000000" transform="translate(3.821300,204.150000)"/></g><g id="group134" transform="translate(10.000000,0.000018)"><path fill-rule="nonzero" id="shape135" fill="#e16e6a" d="M.0,28.0C.0,12.5,12.5,.0,28.0,.0C43.5,.0,56.0,12.5,56.0,28.0C56.0,43.5,43.5,56.0,28.0,56.0C12.5,56.0,.0,43.5,.0,28.0z" stroke-width="1" stroke="#e16e6a"/><path fill-rule="nonzero" id="shape136" fill="#ffffff" d="M18.6,.0L21.0,.0L21.0,2.5C22.2,4.0,24.7,5.1,27.6,5.1C30.3,5.1,32.7,4.2,33.9,2.8C34.1,2.6,34.9,3.1,35.1,3.5C33.9,5.2,31.0,6.4,27.5,6.4C24.9,6.4,22.5,5.7,21.0,4.7L21.0,28.1C23.7,28.4,25.9,29.8,27.3,31.8L12.4,31.8C13.7,29.8,16.0,28.4,18.6,28.1L18.6,4.7C17.1,5.7,14.8,6.4,12.2,6.4C8.7,6.4,5.7,5.2,4.6,3.5C4.7,3.4,5.5,2.6,5.8,2.8C7.0,4.2,9.3,5.1,12.1,5.1C15.0,5.1,17.5,4.0,18.6,2.5L18.6,.0zM15.7,16.1C14.1,18.8,11.2,20.5,7.9,20.5C4.5,20.5,1.6,18.8,.0,16.1L1.7,16.1L7.9,5.0L14.0,16.1L15.7,16.1zM2.6,16.1L13.0,16.1L7.9,6.7L2.6,16.1zM30.1,5.0L36.3,16.1L38.0,16.1C36.4,18.8,33.5,20.5,30.1,20.5C26.8,20.5,23.9,18.8,22.3,16.1L24.0,16.1L30.1,5.0zM35.3,16.1L30.1,6.7L25.1,16.1L35.3,16.1z" stroke-width="0.3333329856395721" stroke="#ffffff" transform="translate(9.000000,12.875200)"/></g><path fill-rule="nonzero" id="shape137" fill="#4155c6" d="M.0,3.0L15.3,3.0C15.7,1.3,17.2,.0,19.0,.0C20.8,.0,22.3,1.3,22.7,3.0L38.0,3.0L38.0,4.8L30.6,4.8L37.9,17.9C38.0,17.9,38.0,18.0,38.0,18.0C38.0,22.3,34.6,25.8,30.4,25.8C26.2,25.8,22.8,22.3,22.8,18.0C22.8,18.0,22.8,17.9,22.8,17.9L30.2,4.8L22.7,4.8C22.4,6.3,21.3,7.4,19.9,7.7L19.9,30.0L30.4,30.0L30.4,32.0L7.6,32.0L7.6,30.0L18.1,30.0L18.1,7.7C16.7,7.4,15.6,6.3,15.3,4.8L7.8,4.8L15.1,17.9C15.2,17.9,15.2,18.0,15.2,18.0C15.2,22.3,11.8,25.8,7.6,25.8C3.4,25.8,.0,22.3,.0,18.0C.0,18.0,.0,17.9,.0,17.9L7.4,4.8L.0,4.8L.0,3.0zM13.2,17.9L7.6,7.8L2.0,17.9L13.2,17.9zM36.0,17.9L30.4,7.8L24.8,17.9L36.0,17.9zM2.2,19.9C3.0,22.2,5.1,23.8,7.6,23.8C10.1,23.8,12.2,22.2,13.0,19.9L2.2,19.9zM25.0,19.9C25.8,22.2,27.9,23.8,30.4,23.8C32.9,23.8,35.0,22.2,35.8,19.9L25.0,19.9zM19.0,5.9C20.0,5.9,20.9,5.0,20.9,3.9C20.9,2.8,20.0,2.0,19.0,2.0C18.0,2.0,17.1,2.8,17.1,3.9C17.1,5.0,18.0,5.9,19.0,5.9z" stroke-width="0.3333329856395721" stroke="#4155c6" transform="translate(194.000000,637.000018)"/><path fill-rule="nonzero" id="shape138" fill="#4155c6" d="M.0,3.0L15.3,3.0C15.7,1.3,17.2,.0,19.0,.0C20.8,.0,22.3,1.3,22.7,3.0L38.0,3.0L38.0,4.8L30.6,4.8L37.9,17.9C38.0,17.9,38.0,18.0,38.0,18.0C38.0,22.3,34.6,25.8,30.4,25.8C26.2,25.8,22.8,22.3,22.8,18.0C22.8,18.0,22.8,17.9,22.8,17.9L30.2,4.8L22.7,4.8C22.4,6.3,21.3,7.4,19.9,7.7L19.9,30.0L30.4,30.0L30.4,32.0L7.6,32.0L7.6,30.0L18.1,30.0L18.1,7.7C16.7,7.4,15.6,6.3,15.3,4.8L7.8,4.8L15.1,17.9C15.2,17.9,15.2,18.0,15.2,18.0C15.2,22.3,11.8,25.8,7.6,25.8C3.4,25.8,.0,22.3,.0,18.0C.0,18.0,.0,17.9,.0,17.9L7.4,4.8L.0,4.8L.0,3.0zM13.2,17.9L7.6,7.8L2.0,17.9L13.2,17.9zM36.0,17.9L30.4,7.8L24.8,17.9L36.0,17.9zM2.2,19.9C3.0,22.2,5.1,23.8,7.6,23.8C10.1,23.8,12.2,22.2,13.0,19.9L2.2,19.9zM25.0,19.9C25.8,22.2,27.9,23.8,30.4,23.8C32.9,23.8,35.0,22.2,35.8,19.9L25.0,19.9zM19.0,5.9C20.0,5.9,20.9,5.0,20.9,3.9C20.9,2.8,20.0,2.0,19.0,2.0C18.0,2.0,17.1,2.8,17.1,3.9C17.1,5.0,18.0,5.9,19.0,5.9z" stroke-width="0.3333329856395721" stroke="#4155c6" transform="translate(0.000000,202.000018)"/><path fill-rule="nonzero" id="shape139" fill="#4155c6" d="M5.9,29.7L5.9,11.3L10.4,11.3L10.4,29.7L13.2,29.7L17.6,29.7L20.4,29.7L20.4,11.3L24.8,11.3L24.8,29.7L27.6,29.7L27.6,11.3L32.1,11.3L32.1,29.7L35.3,29.7L35.3,31.8L2.7,31.8L2.7,29.7L5.9,29.7zM.0,7.9L2.7,7.9L2.7,9.9L35.3,9.9L35.3,7.9L38.0,7.9L19.0,.0L.0,7.9zM17.6,11.3L13.2,11.3L13.2,29.7L17.6,29.7L17.6,11.3zM.0,38.0L38.0,38.0L38.0,33.1L.0,33.1L.0,38.0z" stroke-width="1" stroke="#4155c6" transform="translate(785.000000,637.000018)"/><path fill-rule="nonzero" id="shape140" fill="#4155c6" d="M.0,20.0C.0,9.0,8.5,.0,19.0,.0C29.5,.0,38.0,9.0,38.0,20.0C38.0,31.0,29.5,40.0,19.0,40.0C8.5,40.0,.0,31.0,.0,20.0zM36.5,20.3C36.5,10.1,28.7,1.8,19.0,1.8C9.8,1.8,2.2,9.3,1.5,18.8C1.9,17.6,2.6,16.5,3.4,15.5C5.1,13.6,7.3,12.7,9.9,12.7C12.4,12.7,14.3,13.5,15.7,15.1C16.4,15.9,17.6,17.9,19.5,20.9C20.8,23.2,22.2,24.7,23.6,25.6C25.0,26.5,26.5,26.9,28.1,26.9C30.3,26.9,32.3,26.1,34.1,24.6C35.2,23.7,36.0,22.6,36.5,21.5C36.5,21.1,36.5,20.7,36.5,20.3zM10.1,19.4C8.9,19.4,7.8,20.5,7.8,21.8C7.8,23.2,8.9,24.2,10.1,24.2C11.4,24.2,12.4,23.2,12.4,21.8C12.4,20.5,11.4,19.4,10.1,19.4zM28.2,15.4C26.9,15.4,25.9,16.4,25.9,17.7C25.9,19.1,26.9,20.1,28.2,20.1C29.4,20.1,30.5,19.1,30.5,17.7C30.5,16.4,29.4,15.4,28.2,15.4z" stroke-width="1" stroke="#4155c6" transform="translate(350.000000,597.000018)"/><path fill-rule="nonzero" id="shape141" fill="#21769d" d="M.0,27.0C.0,23.1,.8,19.4,2.4,16.0L15.2,51.3C6.2,46.9,.0,37.6,.0,27.0zM45.2,25.6C45.2,28.0,44.4,30.7,43.2,34.4L40.5,43.4L30.9,14.3C32.4,14.2,33.9,14.0,33.9,14.0C35.4,13.8,35.3,11.6,33.8,11.8C33.8,11.8,29.4,12.2,26.5,12.2C23.8,12.2,19.4,11.8,19.4,11.8C17.9,11.8,17.7,14.0,19.1,14.0C19.1,14.0,20.4,14.2,21.9,14.3L26.2,25.8L20.3,43.5L10.5,14.3C12.0,14.2,13.5,14.0,13.5,14.0C15.0,13.8,14.9,11.8,13.3,11.8C13.3,11.8,8.9,12.2,6.1,12.2C5.6,12.2,5.1,12.2,4.4,12.2C9.3,4.9,17.6,.0,27.0,.0C34.1,.0,40.5,2.7,45.2,7.1C45.1,7.1,45.1,7.1,44.9,7.1C42.2,7.1,40.3,9.3,40.3,11.8C40.3,14.2,41.7,16.0,43.0,18.2C44.0,20.1,45.2,22.3,45.2,25.6zM27.5,29.4L35.8,52.1C35.8,52.3,35.9,52.3,35.9,52.5C33.2,53.5,30.2,54.0,27.0,54.0C24.3,54.0,21.8,53.5,19.4,52.8L27.5,29.4zM50.6,14.0C52.8,17.9,54.0,22.3,54.0,27.0C54.0,37.0,48.6,45.6,40.5,50.3L48.8,26.3C50.3,22.4,50.8,19.4,50.8,16.7C50.8,15.9,50.8,14.8,50.6,14.0z" transform="translate(478.259843,626.000018)"/><path fill-rule="nonzero" id="shape142" fill="#4155c6" d="M.0,9.8L26.0,.0L52.0,9.8L26.0,19.6L.0,9.8zM26.0,17.0L45.1,9.8L26.0,2.6L6.9,9.8L26.0,17.0zM25.7,34.0C25.8,34.0,25.9,34.0,26.0,34.0C26.1,34.0,26.2,34.0,26.3,34.0C32.4,33.9,37.7,32.1,41.3,29.5L41.3,16.4L38.6,17.4L38.6,27.3C35.7,29.5,31.2,30.9,26.0,31.0C20.8,30.9,16.3,29.5,13.4,27.3L13.4,17.4L10.7,16.4L10.7,29.5C14.3,32.1,19.6,33.9,25.7,34.0zM44.2,34.0L46.8,34.0L46.8,14.5L44.2,15.5L44.2,34.0z" stroke-width="1" stroke="#4155c6" transform="matrix(-1.000000,0.000000,0.000000,1.000000,62.000000,100.000018)"/><path fill-rule="nonzero" id="shape143" fill="#4155c6" d="M.0,20.0C.0,9.0,8.5,.0,19.0,.0C29.5,.0,38.0,9.0,38.0,20.0C38.0,31.0,29.5,40.0,19.0,40.0C8.5,40.0,.0,31.0,.0,20.0zM19.0,37.1C28.0,37.1,35.3,29.5,35.3,20.0C35.3,10.5,28.0,2.9,19.0,2.9C10.0,2.9,2.7,10.5,2.7,20.0C2.7,29.5,10.0,37.1,19.0,37.1zM26.0,17.3C27.5,17.3,28.8,15.9,28.8,14.3C28.8,12.6,27.5,11.3,26.0,11.3C24.4,11.3,23.1,12.6,23.1,14.3C23.1,15.9,24.4,17.3,26.0,17.3zM12.0,17.3C13.6,17.3,14.9,15.9,14.9,14.3C14.9,12.6,13.6,11.3,12.0,11.3C10.5,11.3,9.2,12.6,9.2,14.3C9.2,15.9,10.5,17.3,12.0,17.3zM19.1,31.4C23.6,31.3,27.4,28.0,28.6,23.6C28.6,23.6,28.7,22.6,27.8,22.5C26.9,22.4,26.5,23.6,26.5,23.6C25.4,26.9,22.5,29.3,19.0,29.4C15.5,29.3,12.6,26.9,11.5,23.6C11.5,23.6,11.1,22.4,10.2,22.5C9.3,22.6,9.4,23.6,9.4,23.6C10.6,28.0,14.4,31.3,18.9,31.4C18.9,31.4,18.9,31.4,18.9,31.4C18.9,31.4,19.0,31.4,19.0,31.4C19.0,31.4,19.1,31.4,19.1,31.4C19.1,31.4,19.1,31.4,19.1,31.4z" stroke-width="1" stroke="#4155c6" transform="translate(114.000000,83.000018)"/><path fill-rule="nonzero" id="shape144" fill="#4155c6" d="M.0,3.0L15.3,3.0C15.7,1.3,17.2,.0,19.0,.0C20.8,.0,22.3,1.3,22.7,3.0L38.0,3.0L38.0,4.8L30.6,4.8L37.9,17.9C38.0,17.9,38.0,18.0,38.0,18.0C38.0,22.3,34.6,25.8,30.4,25.8C26.2,25.8,22.8,22.3,22.8,18.0C22.8,18.0,22.8,17.9,22.8,17.9L30.2,4.8L22.7,4.8C22.4,6.3,21.3,7.4,19.9,7.7L19.9,30.0L30.4,30.0L30.4,32.0L7.6,32.0L7.6,30.0L18.1,30.0L18.1,7.7C16.7,7.4,15.6,6.3,15.3,4.8L7.8,4.8L15.1,17.9C15.2,17.9,15.2,18.0,15.2,18.0C15.2,22.3,11.8,25.8,7.6,25.8C3.4,25.8,.0,22.3,.0,18.0C.0,18.0,.0,17.9,.0,17.9L7.4,4.8L.0,4.8L.0,3.0zM13.2,17.9L7.6,7.8L2.0,17.9L13.2,17.9zM36.0,17.9L30.4,7.8L24.8,17.9L36.0,17.9zM2.2,19.9C3.0,22.2,5.1,23.8,7.6,23.8C10.1,23.8,12.2,22.2,13.0,19.9L2.2,19.9zM25.0,19.9C25.8,22.2,27.9,23.8,30.4,23.8C32.9,23.8,35.0,22.2,35.8,19.9L25.0,19.9zM19.0,5.9C20.0,5.9,20.9,5.0,20.9,3.9C20.9,2.8,20.0,2.0,19.0,2.0C18.0,2.0,17.1,2.8,17.1,3.9C17.1,5.0,18.0,5.9,19.0,5.9z" stroke-width="0.3333329856395721" stroke="#4155c6" transform="translate(569.000000,0.000018)"/><path fill-rule="nonzero" id="shape145" fill="#4155c6" d="M.0,3.0L15.3,3.0C15.7,1.3,17.2,.0,19.0,.0C20.8,.0,22.3,1.3,22.7,3.0L38.0,3.0L38.0,4.8L30.6,4.8L37.9,17.9C38.0,17.9,38.0,18.0,38.0,18.0C38.0,22.3,34.6,25.8,30.4,25.8C26.2,25.8,22.8,22.3,22.8,18.0C22.8,18.0,22.8,17.9,22.8,17.9L30.2,4.8L22.7,4.8C22.4,6.3,21.3,7.4,19.9,7.7L19.9,30.0L30.4,30.0L30.4,32.0L7.6,32.0L7.6,30.0L18.1,30.0L18.1,7.7C16.7,7.4,15.6,6.3,15.3,4.8L7.8,4.8L15.1,17.9C15.2,17.9,15.2,18.0,15.2,18.0C15.2,22.3,11.8,25.8,7.6,25.8C3.4,25.8,.0,22.3,.0,18.0C.0,18.0,.0,17.9,.0,17.9L7.4,4.8L.0,4.8L.0,3.0zM13.2,17.9L7.6,7.8L2.0,17.9L13.2,17.9zM36.0,17.9L30.4,7.8L24.8,17.9L36.0,17.9zM2.2,19.9C3.0,22.2,5.1,23.8,7.6,23.8C10.1,23.8,12.2,22.2,13.0,19.9L2.2,19.9zM25.0,19.9C25.8,22.2,27.9,23.8,30.4,23.8C32.9,23.8,35.0,22.2,35.8,19.9L25.0,19.9zM19.0,5.9C20.0,5.9,20.9,5.0,20.9,3.9C20.9,2.8,20.0,2.0,19.0,2.0C18.0,2.0,17.1,2.8,17.1,3.9C17.1,5.0,18.0,5.9,19.0,5.9z" stroke-width="0.3333329856395721" stroke="#4155c6" transform="translate(639.629921,626.000018)"/><g id="group146" transform="translate(39.000000,309.850412)"><path fill-rule="nonzero" id="shape147" fill="#e08a13" d="M.0,28.0C.0,12.5,12.5,.0,28.0,.0C43.5,.0,56.0,12.5,56.0,28.0C56.0,43.5,43.5,56.0,28.0,56.0C12.5,56.0,.0,43.5,.0,28.0z" stroke-width="1" stroke="#e08a13"/><path fill-rule="nonzero" id="shape148" fill="#ffffff" d="M22.7,8.9C22.6,9.1,22.5,9.3,22.4,9.4L21.0,11.9L35.1,20.1C36.3,20.8,36.8,22.4,36.1,23.6C35.4,24.8,33.8,25.2,32.6,24.5L18.4,16.4L16.6,19.6C17.2,20.4,17.4,21.3,17.0,22.1C16.3,23.3,14.6,23.5,13.2,22.7L6.4,18.8C4.9,17.9,4.3,16.4,4.9,15.3C5.4,14.5,6.3,14.1,7.4,14.3L13.2,4.1C13.3,4.0,13.5,3.8,13.6,3.7C12.9,2.9,12.7,1.8,13.1,1.1C13.8,-0.1,15.5,-0.3,16.9,.5L23.7,4.4C25.2,5.2,25.8,6.8,25.2,7.8C24.7,8.7,23.7,9.1,22.7,8.9zM.0,33.1L22.9,33.1L22.9,26.9L.0,26.9L.0,33.1z" transform="translate(11.797000,9.268800)"/></g><path fill-rule="nonzero" id="shape149" fill="#21769d" d="M.0,27.0C.0,23.1,.8,19.4,2.4,16.0L15.2,51.3C6.2,46.9,.0,37.6,.0,27.0zM45.2,25.6C45.2,28.0,44.4,30.7,43.2,34.4L40.5,43.4L30.9,14.3C32.4,14.2,33.9,14.0,33.9,14.0C35.4,13.8,35.3,11.6,33.8,11.8C33.8,11.8,29.4,12.2,26.5,12.2C23.8,12.2,19.4,11.8,19.4,11.8C17.9,11.8,17.7,14.0,19.1,14.0C19.1,14.0,20.4,14.2,21.9,14.3L26.2,25.8L20.3,43.5L10.5,14.3C12.0,14.2,13.5,14.0,13.5,14.0C15.0,13.8,14.9,11.8,13.3,11.8C13.3,11.8,8.9,12.2,6.1,12.2C5.6,12.2,5.1,12.2,4.4,12.2C9.3,4.9,17.6,.0,27.0,.0C34.1,.0,40.5,2.7,45.2,7.1C45.1,7.1,45.1,7.1,44.9,7.1C42.2,7.1,40.3,9.3,40.3,11.8C40.3,14.2,41.7,16.0,43.0,18.2C44.0,20.1,45.2,22.3,45.2,25.6zM27.5,29.4L35.8,52.1C35.8,52.3,35.9,52.3,35.9,52.5C33.2,53.5,30.2,54.0,27.0,54.0C24.3,54.0,21.8,53.5,19.4,52.8L27.5,29.4zM50.6,14.0C52.8,17.9,54.0,22.3,54.0,27.0C54.0,37.0,48.6,45.6,40.5,50.3L48.8,26.3C50.3,22.4,50.8,19.4,50.8,16.7C50.8,15.9,50.8,14.8,50.6,14.0z" transform="translate(158.000000,202.000018)"/><path fill-rule="nonzero" id="shape150" fill="#4155c6" d="M5.8,2.9L8.8,4.0C8.8,4.0,9.8,4.1,11.0,3.4C12.2,2.7,14.9,1.8,16.5,1.9L11.1,6.0C11.1,6.0,9.6,7.7,11.4,9.6C13.2,11.4,18.0,8.9,18.0,8.9L21.7,7.3C21.7,7.3,22.3,6.9,23.5,7.9L35.7,17.8C35.7,17.8,36.4,18.6,35.6,19.8C34.7,21.0,33.3,20.0,33.3,20.0L22.7,11.5C22.7,11.5,22.2,11.0,21.8,11.5C21.3,12.0,22.2,12.5,22.2,12.5L31.6,20.0C31.6,20.0,32.2,20.9,31.3,21.8C30.4,22.7,29.1,21.9,29.2,21.9C29.3,21.9,20.3,14.6,20.3,14.6C20.3,14.6,19.9,14.1,19.4,14.6C18.9,15.1,19.7,15.5,19.7,15.5L27.3,21.8C27.3,21.8,28.0,22.9,27.2,23.7C26.4,24.4,25.1,23.9,25.1,23.9L21.5,21.0C21.5,21.0,21.5,19.7,20.7,18.9C19.9,18.2,18.3,18.4,18.3,18.4C18.3,18.4,17.4,17.0,16.5,16.6C15.5,16.2,14.5,16.3,14.0,17.2C14.0,17.2,13.6,15.9,12.4,15.5C11.2,15.2,9.9,16.3,9.9,16.3C9.9,16.3,9.0,14.5,7.4,14.7C5.8,14.9,5.5,16.3,5.5,16.3C5.5,16.3,.1,13.2,.0,13.2C.0,13.2,5.8,3.0,5.8,2.9zM23.6,6.7L36.5,17.2L42.0,13.1L36.3,2.6L34.2,3.7C33.1,4.4,32.2,3.7,32.2,3.7C30.2,2.6,26.6,.8,26.6,.8C24.2,-0.8,22.2,.5,21.6,.7C17.1,2.9,15.1,4.4,15.1,4.4C12.5,6.1,11.7,7.3,11.7,7.3C10.8,10.0,14.9,9.2,14.9,9.2L22.2,6.1C22.6,6.0,23.6,6.7,23.6,6.7zM17.6,20.1L16.4,24.0C16.2,24.6,16.6,25.3,17.8,25.7C18.5,25.9,19.1,25.5,19.3,24.9L20.5,21.0C20.6,20.3,20.3,19.7,19.1,19.3C18.4,19.1,17.8,19.5,17.6,20.1zM14.1,18.1L12.9,21.9C12.7,22.6,13.1,23.2,14.3,23.6C15.0,23.8,15.6,23.5,15.8,22.8L16.9,19.0C17.1,18.3,16.8,17.6,15.5,17.3C14.9,17.1,14.3,17.4,14.1,18.1zM10.4,17.1L9.4,20.4C9.3,21.0,9.6,21.5,10.6,21.9C11.2,22.0,11.7,21.7,11.9,21.2L12.9,17.9C13.0,17.4,12.7,16.8,11.7,16.5C11.1,16.3,10.6,16.6,10.4,17.1zM6.5,16.4L6.0,18.0C5.8,18.5,6.1,19.2,7.1,19.6C7.7,19.8,8.3,19.5,8.5,18.9L9.0,17.4C9.2,16.8,8.9,16.1,7.9,15.8C7.4,15.5,6.7,15.8,6.5,16.4zM21.0,22.1L20.1,25.2L21.0,25.9C21.0,25.9,22.4,26.4,23.1,25.2C23.7,24.0,21.0,22.1,21.0,22.1z" transform="translate(158.000000,367.000018)"/><path fill-rule="nonzero" id="shape151" fill="#4155c6" d="M5.8,2.9L8.8,4.0C8.8,4.0,9.8,4.1,11.0,3.4C12.2,2.7,14.9,1.8,16.5,1.9L11.1,6.0C11.1,6.0,9.6,7.7,11.4,9.6C13.2,11.4,18.0,8.9,18.0,8.9L21.7,7.3C21.7,7.3,22.3,6.9,23.5,7.9L35.7,17.8C35.7,17.8,36.4,18.6,35.6,19.8C34.7,21.0,33.3,20.0,33.3,20.0L22.7,11.5C22.7,11.5,22.2,11.0,21.8,11.5C21.3,12.0,22.2,12.5,22.2,12.5L31.6,20.0C31.6,20.0,32.2,20.9,31.3,21.8C30.4,22.7,29.1,21.9,29.2,21.9C29.3,21.9,20.3,14.6,20.3,14.6C20.3,14.6,19.9,14.1,19.4,14.6C18.9,15.1,19.7,15.5,19.7,15.5L27.3,21.8C27.3,21.8,28.0,22.9,27.2,23.7C26.4,24.4,25.1,23.9,25.1,23.9L21.5,21.0C21.5,21.0,21.5,19.7,20.7,18.9C19.9,18.2,18.3,18.4,18.3,18.4C18.3,18.4,17.4,17.0,16.5,16.6C15.5,16.2,14.5,16.3,14.0,17.2C14.0,17.2,13.6,15.9,12.4,15.5C11.2,15.2,9.9,16.3,9.9,16.3C9.9,16.3,9.0,14.5,7.4,14.7C5.8,14.9,5.5,16.3,5.5,16.3C5.5,16.3,.1,13.2,.0,13.2C.0,13.2,5.8,3.0,5.8,2.9zM23.6,6.7L36.5,17.2L42.0,13.1L36.3,2.6L34.2,3.7C33.1,4.4,32.2,3.7,32.2,3.7C30.2,2.6,26.6,.8,26.6,.8C24.2,-0.8,22.2,.5,21.6,.7C17.1,2.9,15.1,4.4,15.1,4.4C12.5,6.1,11.7,7.3,11.7,7.3C10.8,10.0,14.9,9.2,14.9,9.2L22.2,6.1C22.6,6.0,23.6,6.7,23.6,6.7zM17.6,20.1L16.4,24.0C16.2,24.6,16.6,25.3,17.8,25.7C18.5,25.9,19.1,25.5,19.3,24.9L20.5,21.0C20.6,20.3,20.3,19.7,19.1,19.3C18.4,19.1,17.8,19.5,17.6,20.1zM14.1,18.1L12.9,21.9C12.7,22.6,13.1,23.2,14.3,23.6C15.0,23.8,15.6,23.5,15.8,22.8L16.9,19.0C17.1,18.3,16.8,17.6,15.5,17.3C14.9,17.1,14.3,17.4,14.1,18.1zM10.4,17.1L9.4,20.4C9.3,21.0,9.6,21.5,10.6,21.9C11.2,22.0,11.7,21.7,11.9,21.2L12.9,17.9C13.0,17.4,12.7,16.8,11.7,16.5C11.1,16.3,10.6,16.6,10.4,17.1zM6.5,16.4L6.0,18.0C5.8,18.5,6.1,19.2,7.1,19.6C7.7,19.8,8.3,19.5,8.5,18.9L9.0,17.4C9.2,16.8,8.9,16.1,7.9,15.8C7.4,15.5,6.7,15.8,6.5,16.4zM21.0,22.1L20.1,25.2L21.0,25.9C21.0,25.9,22.4,26.4,23.1,25.2C23.7,24.0,21.0,22.1,21.0,22.1z" transform="translate(251.500000,46.000018)"/><path fill-rule="nonzero" id="shape152" fill="#4155c6" d="M5.8,2.9L8.8,4.0C8.8,4.0,9.8,4.1,11.0,3.4C12.2,2.7,14.9,1.8,16.5,1.9L11.1,6.0C11.1,6.0,9.6,7.7,11.4,9.6C13.2,11.4,18.0,8.9,18.0,8.9L21.7,7.3C21.7,7.3,22.3,6.9,23.5,7.9L35.7,17.8C35.7,17.8,36.4,18.6,35.6,19.8C34.7,21.0,33.3,20.0,33.3,20.0L22.7,11.5C22.7,11.5,22.2,11.0,21.8,11.5C21.3,12.0,22.2,12.5,22.2,12.5L31.6,20.0C31.6,20.0,32.2,20.9,31.3,21.8C30.4,22.7,29.1,21.9,29.2,21.9C29.3,21.9,20.3,14.6,20.3,14.6C20.3,14.6,19.9,14.1,19.4,14.6C18.9,15.1,19.7,15.5,19.7,15.5L27.3,21.8C27.3,21.8,28.0,22.9,27.2,23.7C26.4,24.4,25.1,23.9,25.1,23.9L21.5,21.0C21.5,21.0,21.5,19.7,20.7,18.9C19.9,18.2,18.3,18.4,18.3,18.4C18.3,18.4,17.4,17.0,16.5,16.6C15.5,16.2,14.5,16.3,14.0,17.2C14.0,17.2,13.6,15.9,12.4,15.5C11.2,15.2,9.9,16.3,9.9,16.3C9.9,16.3,9.0,14.5,7.4,14.7C5.8,14.9,5.5,16.3,5.5,16.3C5.5,16.3,.1,13.2,.0,13.2C.0,13.2,5.8,3.0,5.8,2.9zM23.6,6.7L36.5,17.2L42.0,13.1L36.3,2.6L34.2,3.7C33.1,4.4,32.2,3.7,32.2,3.7C30.2,2.6,26.6,.8,26.6,.8C24.2,-0.8,22.2,.5,21.6,.7C17.1,2.9,15.1,4.4,15.1,4.4C12.5,6.1,11.7,7.3,11.7,7.3C10.8,10.0,14.9,9.2,14.9,9.2L22.2,6.1C22.6,6.0,23.6,6.7,23.6,6.7zM17.6,20.1L16.4,24.0C16.2,24.6,16.6,25.3,17.8,25.7C18.5,25.9,19.1,25.5,19.3,24.9L20.5,21.0C20.6,20.3,20.3,19.7,19.1,19.3C18.4,19.1,17.8,19.5,17.6,20.1zM14.1,18.1L12.9,21.9C12.7,22.6,13.1,23.2,14.3,23.6C15.0,23.8,15.6,23.5,15.8,22.8L16.9,19.0C17.1,18.3,16.8,17.6,15.5,17.3C14.9,17.1,14.3,17.4,14.1,18.1zM10.4,17.1L9.4,20.4C9.3,21.0,9.6,21.5,10.6,21.9C11.2,22.0,11.7,21.7,11.9,21.2L12.9,17.9C13.0,17.4,12.7,16.8,11.7,16.5C11.1,16.3,10.6,16.6,10.4,17.1zM6.5,16.4L6.0,18.0C5.8,18.5,6.1,19.2,7.1,19.6C7.7,19.8,8.3,19.5,8.5,18.9L9.0,17.4C9.2,16.8,8.9,16.1,7.9,15.8C7.4,15.5,6.7,15.8,6.5,16.4zM21.0,22.1L20.1,25.2L21.0,25.9C21.0,25.9,22.4,26.4,23.1,25.2C23.7,24.0,21.0,22.1,21.0,22.1z" transform="translate(553.000000,532.000018)"/><path fill-rule="nonzero" id="shape153" fill="#4155c6" d="M5.8,2.9L8.8,4.0C8.8,4.0,9.8,4.1,11.0,3.4C12.2,2.7,14.9,1.8,16.5,1.9L11.1,6.0C11.1,6.0,9.6,7.7,11.4,9.6C13.2,11.4,18.0,8.9,18.0,8.9L21.7,7.3C21.7,7.3,22.3,6.9,23.5,7.9L35.7,17.8C35.7,17.8,36.4,18.6,35.6,19.8C34.7,21.0,33.3,20.0,33.3,20.0L22.7,11.5C22.7,11.5,22.2,11.0,21.8,11.5C21.3,12.0,22.2,12.5,22.2,12.5L31.6,20.0C31.6,20.0,32.2,20.9,31.3,21.8C30.4,22.7,29.1,21.9,29.2,21.9C29.3,21.9,20.3,14.6,20.3,14.6C20.3,14.6,19.9,14.1,19.4,14.6C18.9,15.1,19.7,15.5,19.7,15.5L27.3,21.8C27.3,21.8,28.0,22.9,27.2,23.7C26.4,24.4,25.1,23.9,25.1,23.9L21.5,21.0C21.5,21.0,21.5,19.7,20.7,18.9C19.9,18.2,18.3,18.4,18.3,18.4C18.3,18.4,17.4,17.0,16.5,16.6C15.5,16.2,14.5,16.3,14.0,17.2C14.0,17.2,13.6,15.9,12.4,15.5C11.2,15.2,9.9,16.3,9.9,16.3C9.9,16.3,9.0,14.5,7.4,14.7C5.8,14.9,5.5,16.3,5.5,16.3C5.5,16.3,.1,13.2,.0,13.2C.0,13.2,5.8,3.0,5.8,2.9zM23.6,6.7L36.5,17.2L42.0,13.1L36.3,2.6L34.2,3.7C33.1,4.4,32.2,3.7,32.2,3.7C30.2,2.6,26.6,.8,26.6,.8C24.2,-0.8,22.2,.5,21.6,.7C17.1,2.9,15.1,4.4,15.1,4.4C12.5,6.1,11.7,7.3,11.7,7.3C10.8,10.0,14.9,9.2,14.9,9.2L22.2,6.1C22.6,6.0,23.6,6.7,23.6,6.7zM17.6,20.1L16.4,24.0C16.2,24.6,16.6,25.3,17.8,25.7C18.5,25.9,19.1,25.5,19.3,24.9L20.5,21.0C20.6,20.3,20.3,19.7,19.1,19.3C18.4,19.1,17.8,19.5,17.6,20.1zM14.1,18.1L12.9,21.9C12.7,22.6,13.1,23.2,14.3,23.6C15.0,23.8,15.6,23.5,15.8,22.8L16.9,19.0C17.1,18.3,16.8,17.6,15.5,17.3C14.9,17.1,14.3,17.4,14.1,18.1zM10.4,17.1L9.4,20.4C9.3,21.0,9.6,21.5,10.6,21.9C11.2,22.0,11.7,21.7,11.9,21.2L12.9,17.9C13.0,17.4,12.7,16.8,11.7,16.5C11.1,16.3,10.6,16.6,10.4,17.1zM6.5,16.4L6.0,18.0C5.8,18.5,6.1,19.2,7.1,19.6C7.7,19.8,8.3,19.5,8.5,18.9L9.0,17.4C9.2,16.8,8.9,16.1,7.9,15.8C7.4,15.5,6.7,15.8,6.5,16.4zM21.0,22.1L20.1,25.2L21.0,25.9C21.0,25.9,22.4,26.4,23.1,25.2C23.7,24.0,21.0,22.1,21.0,22.1z" transform="translate(348.000000,230.000018)"/><path fill-rule="nonzero" id="shape154" fill="#4155c6" d="M.0,20.0C.0,9.0,8.5,.0,19.0,.0C29.5,.0,38.0,9.0,38.0,20.0C38.0,31.0,29.5,40.0,19.0,40.0C8.5,40.0,.0,31.0,.0,20.0zM19.0,37.1C28.0,37.1,35.3,29.5,35.3,20.0C35.3,10.5,28.0,2.9,19.0,2.9C10.0,2.9,2.7,10.5,2.7,20.0C2.7,29.5,10.0,37.1,19.0,37.1zM26.0,17.3C27.5,17.3,28.8,15.9,28.8,14.3C28.8,12.6,27.5,11.3,26.0,11.3C24.4,11.3,23.1,12.6,23.1,14.3C23.1,15.9,24.4,17.3,26.0,17.3zM12.0,17.3C13.6,17.3,14.9,15.9,14.9,14.3C14.9,12.6,13.6,11.3,12.0,11.3C10.5,11.3,9.2,12.6,9.2,14.3C9.2,15.9,10.5,17.3,12.0,17.3zM19.1,31.4C23.6,31.3,27.4,28.0,28.6,23.6C28.6,23.6,28.7,22.6,27.8,22.5C26.9,22.4,26.5,23.6,26.5,23.6C25.4,26.9,22.5,29.3,19.0,29.4C15.5,29.3,12.6,26.9,11.5,23.6C11.5,23.6,11.1,22.4,10.2,22.5C9.3,22.6,9.4,23.6,9.4,23.6C10.6,28.0,14.4,31.3,18.9,31.4C18.9,31.4,18.9,31.4,18.9,31.4C18.9,31.4,19.0,31.4,19.0,31.4C19.0,31.4,19.1,31.4,19.1,31.4C19.1,31.4,19.1,31.4,19.1,31.4z" stroke-width="1" stroke="#4155c6" transform="translate(255.500000,487.000018)"/><path fill-rule="nonzero" id="shape155" fill="#4155c6" d="M5.9,29.7L5.9,11.3L10.4,11.3L10.4,29.7L13.2,29.7L17.6,29.7L20.4,29.7L20.4,11.3L24.8,11.3L24.8,29.7L27.6,29.7L27.6,11.3L32.1,11.3L32.1,29.7L35.3,29.7L35.3,31.8L2.7,31.8L2.7,29.7L5.9,29.7zM.0,7.9L2.7,7.9L2.7,9.9L35.3,9.9L35.3,7.9L38.0,7.9L19.0,.0L.0,7.9zM17.6,11.3L13.2,11.3L13.2,29.7L17.6,29.7L17.6,11.3zM.0,38.0L38.0,38.0L38.0,33.1L.0,33.1L.0,38.0z" stroke-width="1" stroke="#4155c6" transform="translate(284.000000,149.000018)"/><path fill-rule="nonzero" id="shape156" fill="#4155c6" d="M.0,9.8L26.0,.0L52.0,9.8L26.0,19.6L.0,9.8zM26.0,17.0L45.1,9.8L26.0,2.6L6.9,9.8L26.0,17.0zM25.7,34.0C25.8,34.0,25.9,34.0,26.0,34.0C26.1,34.0,26.2,34.0,26.3,34.0C32.4,33.9,37.7,32.1,41.3,29.5L41.3,16.4L38.6,17.4L38.6,27.3C35.7,29.5,31.2,30.9,26.0,31.0C20.8,30.9,16.3,29.5,13.4,27.3L13.4,17.4L10.7,16.4L10.7,29.5C14.3,32.1,19.6,33.9,25.7,34.0zM44.2,34.0L46.8,34.0L46.8,14.5L44.2,15.5L44.2,34.0z" stroke-width="1" stroke="#4155c6" transform="matrix(-1.000000,0.000000,0.000000,1.000000,960.000000,286.000018)"/><path fill-rule="nonzero" id="shape157" fill="#4155c6" d="M.0,20.0C.0,9.0,8.5,.0,19.0,.0C29.5,.0,38.0,9.0,38.0,20.0C38.0,31.0,29.5,40.0,19.0,40.0C8.5,40.0,.0,31.0,.0,20.0zM19.0,37.1C28.0,37.1,35.3,29.5,35.3,20.0C35.3,10.5,28.0,2.9,19.0,2.9C10.0,2.9,2.7,10.5,2.7,20.0C2.7,29.5,10.0,37.1,19.0,37.1zM26.0,17.3C27.5,17.3,28.8,15.9,28.8,14.3C28.8,12.6,27.5,11.3,26.0,11.3C24.4,11.3,23.1,12.6,23.1,14.3C23.1,15.9,24.4,17.3,26.0,17.3zM12.0,17.3C13.6,17.3,14.9,15.9,14.9,14.3C14.9,12.6,13.6,11.3,12.0,11.3C10.5,11.3,9.2,12.6,9.2,14.3C9.2,15.9,10.5,17.3,12.0,17.3zM19.1,31.4C23.6,31.3,27.4,28.0,28.6,23.6C28.6,23.6,28.7,22.6,27.8,22.5C26.9,22.4,26.5,23.6,26.5,23.6C25.4,26.9,22.5,29.3,19.0,29.4C15.5,29.3,12.6,26.9,11.5,23.6C11.5,23.6,11.1,22.4,10.2,22.5C9.3,22.6,9.4,23.6,9.4,23.6C10.6,28.0,14.4,31.3,18.9,31.4C18.9,31.4,18.9,31.4,18.9,31.4C18.9,31.4,19.0,31.4,19.0,31.4C19.0,31.4,19.1,31.4,19.1,31.4C19.1,31.4,19.1,31.4,19.1,31.4z" stroke-width="1" stroke="#4155c6" transform="translate(823.000000,395.000018)"/><g id="group158" transform="translate(767.000000,524.000018)"><path fill-rule="nonzero" id="shape159" fill="#e16e6a" d="M.0,28.0C.0,12.5,12.5,.0,28.0,.0C43.5,.0,56.0,12.5,56.0,28.0C56.0,43.5,43.5,56.0,28.0,56.0C12.5,56.0,.0,43.5,.0,28.0z" stroke-width="1" stroke="#e16e6a"/><path fill-rule="nonzero" id="shape160" fill="#ffffff" d="M18.6,.0L21.0,.0L21.0,2.5C22.2,4.0,24.7,5.1,27.6,5.1C30.3,5.1,32.7,4.2,33.9,2.8C34.1,2.6,34.9,3.1,35.1,3.5C33.9,5.2,31.0,6.4,27.5,6.4C24.9,6.4,22.5,5.7,21.0,4.7L21.0,28.1C23.7,28.4,25.9,29.8,27.3,31.8L12.4,31.8C13.7,29.8,16.0,28.4,18.6,28.1L18.6,4.7C17.1,5.7,14.8,6.4,12.2,6.4C8.7,6.4,5.7,5.2,4.6,3.5C4.7,3.4,5.5,2.6,5.8,2.8C7.0,4.2,9.3,5.1,12.1,5.1C15.0,5.1,17.5,4.0,18.6,2.5L18.6,.0zM15.7,16.1C14.1,18.8,11.2,20.5,7.9,20.5C4.5,20.5,1.6,18.8,.0,16.1L1.7,16.1L7.9,5.0L14.0,16.1L15.7,16.1zM2.6,16.1L13.0,16.1L7.9,6.7L2.6,16.1zM30.1,5.0L36.3,16.1L38.0,16.1C36.4,18.8,33.5,20.5,30.1,20.5C26.8,20.5,23.9,18.8,22.3,16.1L24.0,16.1L30.1,5.0zM35.3,16.1L30.1,6.7L25.1,16.1L35.3,16.1z" stroke-width="0.3333329856395721" stroke="#ffffff" transform="translate(9.000000,12.875200)"/></g><path fill-rule="nonzero" id="shape161" fill="#4155c6" d="M.0,3.0L15.3,3.0C15.7,1.3,17.2,.0,19.0,.0C20.8,.0,22.3,1.3,22.7,3.0L38.0,3.0L38.0,4.8L30.6,4.8L37.9,17.9C38.0,17.9,38.0,18.0,38.0,18.0C38.0,22.3,34.6,25.8,30.4,25.8C26.2,25.8,22.8,22.3,22.8,18.0C22.8,18.0,22.8,17.9,22.8,17.9L30.2,4.8L22.7,4.8C22.4,6.3,21.3,7.4,19.9,7.7L19.9,30.0L30.4,30.0L30.4,32.0L7.6,32.0L7.6,30.0L18.1,30.0L18.1,7.7C16.7,7.4,15.6,6.3,15.3,4.8L7.8,4.8L15.1,17.9C15.2,17.9,15.2,18.0,15.2,18.0C15.2,22.3,11.8,25.8,7.6,25.8C3.4,25.8,.0,22.3,.0,18.0C.0,18.0,.0,17.9,.0,17.9L7.4,4.8L.0,4.8L.0,3.0zM13.2,17.9L7.6,7.8L2.0,17.9L13.2,17.9zM36.0,17.9L30.4,7.8L24.8,17.9L36.0,17.9zM2.2,19.9C3.0,22.2,5.1,23.8,7.6,23.8C10.1,23.8,12.2,22.2,13.0,19.9L2.2,19.9zM25.0,19.9C25.8,22.2,27.9,23.8,30.4,23.8C32.9,23.8,35.0,22.2,35.8,19.9L25.0,19.9zM19.0,5.9C20.0,5.9,20.9,5.0,20.9,3.9C20.9,2.8,20.0,2.0,19.0,2.0C18.0,2.0,17.1,2.8,17.1,3.9C17.1,5.0,18.0,5.9,19.0,5.9z" stroke-width="0.3333329856395721" stroke="#4155c6" transform="translate(322.000000,369.000018)"/><path fill-rule="nonzero" id="shape162" fill="#4155c6" d="M.0,9.8L26.0,.0L52.0,9.8L26.0,19.6L.0,9.8zM26.0,17.0L45.1,9.8L26.0,2.6L6.9,9.8L26.0,17.0zM25.7,34.0C25.8,34.0,25.9,34.0,26.0,34.0C26.1,34.0,26.2,34.0,26.3,34.0C32.4,33.9,37.7,32.1,41.3,29.5L41.3,16.4L38.6,17.4L38.6,27.3C35.7,29.5,31.2,30.9,26.0,31.0C20.8,30.9,16.3,29.5,13.4,27.3L13.4,17.4L10.7,16.4L10.7,29.5C14.3,32.1,19.6,33.9,25.7,34.0zM44.2,34.0L46.8,34.0L46.8,14.5L44.2,15.5L44.2,34.0z" stroke-width="1" stroke="#4155c6" transform="matrix(-1.000000,0.000000,0.000000,1.000000,483.000000,502.000018)"/></g></g></svg>